# Blender 5.2.1 LTS
# www.blender.org
mtllib Anorexic Left Arm.mtl
o RenderMesh_111525819308010
v 2.195173 -0.167938 0.839509
v 2.214928 -0.181044 0.851783
v 2.198324 -0.183076 0.839713
v 2.210650 -0.166449 0.851273
v 2.036388 0.056937 0.828528
v 2.051863 0.058427 0.840291
v 2.019695 0.069903 0.827360
v 2.012467 0.053899 0.818240
v 2.000779 0.066725 0.819025
v 2.001071 0.077340 0.827137
v 1.992073 0.073271 0.820896
v 2.237967 0.068978 1.060732
v 2.218213 0.082085 1.048458
v 2.221777 0.081975 1.060145
v 2.194623 0.091180 1.047438
v 2.233295 0.069264 1.049286
v 2.036783 0.071247 0.839463
v 2.396752 -0.155897 1.071713
v 2.392081 -0.155612 1.060268
v 2.396357 -0.170207 1.060778
v 2.210650 -0.166449 0.851273
v 2.214928 -0.181044 0.851783
v 2.051863 0.058427 0.840291
v 2.036388 0.056937 0.828528
v 2.019695 0.069903 0.827360
v 2.013196 0.080340 0.838446
v 2.001071 0.077340 0.827137
v 2.166114 0.095164 1.046382
v 2.171250 -0.170975 0.829219
v 2.012467 0.053899 0.818240
v 2.195173 -0.167938 0.839509
v 2.198324 -0.183076 0.839713
v 2.178399 -0.184827 0.831307
v 2.193052 -0.194550 0.840412
v 2.180060 -0.192965 0.833894
v 2.207749 -0.195193 0.851899
v 1.984694 0.084321 0.837394
v 1.977373 0.080525 0.825679
v 1.992073 0.073271 0.820896
v 1.973456 0.073582 0.817940
v 1.976919 0.064081 0.813113
v 2.000779 0.066725 0.819025
v 1.944411 0.070979 0.815536
v 1.947469 0.079255 0.824995
v 1.983742 0.049773 0.810994
v 2.012467 0.053899 0.818240
v 1.946910 0.059017 0.809530
v 0.548877 -0.158470 0.774736
v 2.142520 -0.175098 0.821969
v 2.171250 -0.170975 0.829219
v 1.954586 0.045189 0.807892
v 0.551212 -0.170465 0.768718
v 2.194623 0.091180 1.047438
v 2.036783 0.071247 0.839463
v 2.013196 0.080340 0.838446
v -2.144083 -0.484686 0.424849
v -2.106033 -0.496510 0.403614
v -2.126949 -0.497049 0.428174
v -2.167952 -0.487902 0.560091
v -2.150716 -0.500252 0.562840
v -2.126162 -0.207113 0.435209
v -2.105246 -0.206574 0.410649
v -2.143362 -0.219208 0.431291
v -2.149929 -0.210316 0.569875
v -2.167232 -0.222424 0.566533
v -2.072663 -0.232749 0.386615
v -2.073305 -0.469377 0.380874
v -2.126754 -0.233001 0.403041
v -2.068513 -0.218390 0.389218
v -2.127396 -0.469629 0.397300
v -2.121144 -0.218635 0.405200
v -2.056775 -0.206348 0.395929
v -2.105246 -0.206574 0.410649
v -2.069234 -0.483868 0.382777
v -2.121864 -0.484113 0.398759
v -2.057561 -0.496284 0.388894
v -2.106033 -0.496510 0.403614
v -1.906705 -0.233340 0.392438
v -1.907347 -0.469969 0.386697
v -1.995392 -0.232868 0.382892
v -1.993329 -0.218506 0.385595
v -1.906430 -0.218968 0.394949
v -1.987530 -0.206455 0.392593
v -1.905726 -0.206891 0.401398
v -1.996034 -0.469496 0.377151
v -1.994049 -0.483984 0.379153
v -1.907151 -0.484447 0.388507
v -1.988317 -0.496391 0.385558
v -1.906516 -0.496827 0.394363
v -2.072663 -0.232749 0.386615
v -2.073305 -0.469377 0.380874
v -2.068513 -0.218390 0.389218
v -2.069234 -0.483868 0.382777
v -1.993329 -0.218506 0.385595
v -2.056775 -0.206348 0.395929
v -1.987530 -0.206455 0.392593
v -1.994049 -0.483984 0.379153
v -2.057561 -0.496284 0.388894
v -1.988317 -0.496391 0.385558
v 0.215025 -0.233605 0.993108
v 0.287341 -0.468092 0.997738
v 0.557135 -0.445109 1.023610
v 0.447496 -0.213740 1.015360
v 0.907852 -0.401891 1.046021
v 0.914790 -0.415842 1.044352
v 0.562534 -0.459249 1.021842
v 0.291007 -0.482381 0.995803
v 0.564527 -0.471287 1.015803
v 0.917124 -0.427838 1.038334
v 2.357598 -0.191477 1.080852
v 0.562813 -0.479388 1.006410
v 0.914502 -0.436051 1.028883
v -0.087745 -0.499012 0.946355
v -0.435018 -0.500607 0.891318
v -0.086699 -0.511109 0.940205
v 0.292620 -0.494452 0.989724
v -0.086469 -0.519085 0.931031
v 0.291934 -0.502468 0.980429
v -0.087085 -0.521727 0.920230
v 0.289054 -0.505210 0.969332
v 0.221476 -0.503314 0.768771
v -0.104955 -0.517646 0.726074
v 0.216840 -0.500362 0.757560
v -0.106326 -0.514551 0.715289
v 0.211154 -0.492166 0.747943
v -0.108241 -0.506190 0.706164
v 0.289054 -0.505210 0.969332
v 0.557652 -0.482320 0.995095
v 0.221476 -0.503314 0.768771
v 0.440873 -0.484554 0.789744
v 0.433050 -0.481870 0.778228
v 0.216840 -0.500362 0.757560
v 0.423757 -0.473979 0.768265
v 0.723831 -0.437003 0.787440
v 0.433050 -0.481870 0.778228
v 0.736321 -0.444499 0.797607
v 0.440873 -0.484554 0.789744
v 0.746968 -0.446835 0.809304
v 0.907320 -0.439232 1.017439
v 0.557652 -0.482320 0.995095
v 2.138955 -0.204548 0.828983
v 0.736321 -0.444499 0.797607
v 2.152978 -0.211803 0.839200
v 2.165433 -0.198306 0.831212
v 0.746968 -0.446835 0.809304
v 2.178240 -0.203955 0.839566
v 2.180060 -0.192965 0.833894
v 2.193052 -0.194550 0.840412
v 2.207749 -0.195193 0.851899
v 2.190210 -0.206740 0.851603
v 2.164979 -0.213929 0.850938
v 2.346391 -0.203081 1.059922
v 0.907320 -0.439232 1.017439
v 2.371630 -0.195898 1.060590
v 2.389176 -0.184353 1.060891
v 2.207749 -0.195193 0.851899
v 2.354541 -0.199753 1.071394
v 2.380313 -0.191878 1.072346
v 2.394082 -0.182539 1.071988
v 2.389176 -0.184353 1.060891
v 2.381405 -0.185398 1.080002
v 2.391882 -0.180309 1.077901
v 2.380767 -0.175434 1.084912
v 2.400405 -0.171004 1.072498
v 2.389176 -0.184353 1.060891
v 2.394376 -0.171923 1.080100
v 2.389905 -0.157911 1.081097
v 2.372583 -0.161349 1.086991
v 2.389905 -0.157911 1.081097
v 2.347423 -0.165687 1.088497
v 2.231123 0.066962 1.070118
v 2.213806 0.063522 1.076015
v 2.188651 0.059181 1.077525
v 2.202146 0.077541 1.072563
v 2.231123 0.066962 1.070118
v 2.355098 -0.179515 1.086859
v 0.907852 -0.401891 1.046021
v 0.765087 -0.174604 1.035655
v 2.216756 0.079628 1.067819
v 2.176966 0.072770 1.074547
v 2.189429 0.086489 1.066730
v 2.163054 0.084051 1.067406
v 2.203895 0.085928 1.064902
v 2.179446 0.092602 1.058458
v 2.163054 0.084051 1.067406
v 2.149030 0.091306 1.057189
v 2.202103 0.089351 1.058713
v 2.231123 0.066962 1.070118
v -2.098754 -0.489009 0.598012
v -1.152013 -0.495629 0.764948
v -2.099077 -0.474633 0.600417
v -2.125567 -0.504678 0.577456
v -2.126209 -0.499278 0.585706
v -2.142926 -0.495719 0.580341
v -2.149056 -0.498912 0.573185
v -2.097754 -0.501100 0.591863
v -2.150716 -0.500252 0.562840
v -2.124893 -0.508604 0.567198
v -2.101278 -0.505421 0.433396
v -2.126949 -0.497049 0.428174
v -2.082313 -0.504932 0.411126
v -1.151013 -0.507719 0.758799
v -2.096230 -0.509063 0.582905
v -2.094414 -0.511686 0.572504
v -1.149490 -0.515682 0.749841
v -1.127566 -0.507883 0.762933
v -2.070979 -0.508528 0.439719
v -1.147674 -0.518306 0.739440
v -1.904366 -0.508360 0.414163
v -1.128889 -0.481416 0.771487
v -1.152337 -0.481252 0.767353
v -1.128565 -0.495793 0.769082
v -1.151695 -0.244626 0.773094
v -0.435518 -0.486229 0.893693
v -1.128247 -0.244790 0.777229
v -1.127845 -0.230315 0.775523
v -0.440317 -0.249583 0.898499
v -0.440402 -0.235106 0.896709
v -0.440057 -0.222734 0.891028
v -0.124759 -0.221517 0.941067
v -0.126674 -0.213156 0.931941
v -0.122589 -0.233872 0.947144
v -0.440317 -0.249583 0.898499
v -0.120496 -0.248338 0.949248
v -0.089442 -0.484637 0.948545
v 0.287341 -0.468092 0.997738
v 0.215025 -0.233605 0.993108
v 0.209863 -0.219274 0.990607
v -1.903509 -0.196344 0.421735
v -2.093568 -0.199670 0.580075
v -1.146827 -0.206289 0.747011
v -1.148659 -0.209404 0.757273
v -1.113989 -0.201864 0.560949
v -1.123380 -0.206453 0.751146
v -1.090541 -0.202028 0.565083
v -1.112173 -0.204487 0.550548
v -1.088725 -0.204651 0.554682
v -1.125211 -0.209568 0.761407
v -0.438349 -0.211232 0.871908
v -0.419527 -0.206746 0.683454
v -1.090541 -0.202028 0.565083
v -0.439337 -0.214351 0.882319
v -0.418423 -0.209366 0.672927
v -1.110649 -0.212450 0.541591
v -0.417372 -0.217328 0.663886
v -1.126779 -0.217947 0.769968
v -0.146531 -0.208623 0.716201
v -0.419527 -0.206746 0.683454
v -1.087202 -0.212614 0.545726
v -1.150227 -0.217783 0.765833
v -2.096967 -0.211164 0.598897
v -1.151293 -0.230151 0.771389
v -2.095399 -0.202785 0.590337
v -2.098033 -0.223532 0.604453
v -2.124062 -0.202326 0.574630
v -2.070132 -0.196512 0.447290
v -1.968695 -0.195996 0.414719
v -2.098435 -0.238006 0.606158
v -1.152337 -0.481252 0.767353
v -2.128559 -0.237744 0.598728
v -2.128845 -0.222893 0.596471
v -2.126395 -0.212841 0.592248
v -2.096967 -0.211164 0.598897
v -2.149040 -0.223383 0.588000
v -2.142357 -0.215650 0.587166
v -2.096967 -0.211164 0.598897
v -2.126705 -0.206035 0.585002
v -2.147658 -0.212500 0.580596
v -2.161781 -0.222365 0.578423
v -2.149929 -0.210316 0.569875
v -2.169094 -0.237095 0.576514
v -2.167232 -0.222424 0.566533
v -2.100447 -0.199143 0.440827
v -2.126162 -0.207113 0.435209
v -2.053468 -0.196082 0.427722
v -2.081482 -0.198654 0.418558
v -2.105246 -0.206574 0.410649
v -2.018560 -0.195919 0.417121
v -2.039234 -0.198458 0.405728
v -2.105246 -0.206574 0.410649
v -2.056775 -0.206348 0.395929
v -2.143362 -0.219208 0.431291
v -2.121144 -0.218635 0.405200
v -2.149429 -0.233585 0.429669
v -2.126754 -0.233001 0.403041
v -2.127396 -0.469629 0.397300
v -2.150071 -0.470213 0.423928
v -2.121864 -0.484113 0.398759
v -2.144083 -0.484686 0.424849
v -2.106033 -0.496510 0.403614
v -2.173334 -0.236807 0.565114
v -2.149429 -0.233585 0.429669
v -2.173976 -0.473435 0.559372
v -2.150071 -0.470213 0.423928
v -2.169736 -0.473723 0.570773
v -2.167952 -0.487902 0.560091
v -2.160896 -0.487693 0.571625
v -2.154013 -0.474051 0.582577
v -2.153371 -0.237424 0.588318
v -2.129201 -0.474371 0.592986
v -2.150478 -0.487610 0.581700
v -2.154013 -0.474051 0.582577
v -2.127638 -0.488225 0.589851
v -2.054315 -0.508099 0.420151
v -1.969541 -0.508013 0.407148
v -2.019407 -0.507936 0.409551
v -2.040065 -0.504736 0.398296
v -2.106033 -0.496510 0.403614
v -2.057561 -0.496284 0.388894
v -1.979711 -0.504829 0.395388
v -2.057561 -0.496284 0.388894
v -1.988317 -0.496391 0.385558
v -1.906516 -0.496827 0.394363
v -1.988317 -0.496391 0.385558
v -1.905538 -0.505224 0.403372
v -1.111436 -0.502386 0.534557
v -1.906516 -0.496827 0.394363
v -1.113004 -0.510765 0.543117
v -1.087988 -0.502550 0.538691
v -1.114836 -0.513880 0.553379
v -1.089556 -0.510929 0.547252
v -0.411491 -0.507291 0.657998
v -0.412212 -0.515675 0.666707
v -1.091388 -0.514044 0.557513
v -0.413199 -0.518794 0.677118
v -1.124226 -0.518470 0.743574
v -0.432021 -0.523279 0.865570
v -1.126042 -0.515846 0.753976
v -0.108241 -0.506190 0.706164
v -0.412212 -0.515675 0.666707
v -0.106326 -0.514551 0.715289
v -0.413199 -0.518794 0.677118
v -0.104955 -0.517646 0.726074
v -0.087085 -0.521727 0.920230
v -0.433125 -0.520658 0.876098
v -0.434178 -0.512697 0.885139
v 2.155540 -0.188894 0.825461
v 2.178399 -0.184827 0.831307
v 2.180060 -0.192965 0.833894
v 2.165433 -0.198306 0.831212
v 2.138955 -0.204548 0.828983
v 2.125042 -0.193268 0.821841
v 0.723831 -0.437003 0.787440
v 0.711396 -0.425486 0.780350
v 2.113358 -0.179679 0.818864
v 0.700913 -0.411703 0.777416
v 0.558149 -0.184416 0.767049
v 0.423757 -0.473979 0.768265
v 0.711396 -0.425486 0.780350
v 0.414409 -0.462083 0.761372
v 0.700913 -0.411703 0.777416
v 0.296788 -0.216622 0.750348
v 0.406428 -0.447991 0.758598
v 0.291389 -0.202482 0.752115
v 0.211154 -0.492166 0.747943
v 0.414409 -0.462083 0.761372
v 0.205284 -0.479975 0.741386
v -0.108241 -0.506190 0.706164
v 0.205284 -0.479975 0.741386
v -0.110410 -0.493836 0.700087
v 0.200121 -0.465643 0.738884
v -0.112503 -0.479369 0.697983
v 0.127806 -0.231162 0.734254
v 0.296788 -0.216622 0.750348
v 0.124140 -0.216871 0.736190
v -0.143558 -0.243076 0.698686
v 0.127806 -0.231162 0.734254
v -0.145255 -0.228699 0.700876
v 0.122527 -0.204798 0.742270
v -0.146299 -0.216600 0.707026
v 0.289397 -0.190444 0.758155
v 0.551500 -0.150257 0.784187
v 0.291110 -0.182343 0.767548
v 1.955617 0.082583 0.836467
v 0.558683 -0.147076 0.795632
v 2.137031 0.093431 1.045451
v 0.719033 -0.139472 1.003766
v 0.296272 -0.179411 0.778864
v 0.719033 -0.139472 1.003766
v 0.413051 -0.177177 0.984214
v 0.729680 -0.141808 1.015463
v 0.420874 -0.179861 0.995730
v 0.742171 -0.149305 1.025630
v 0.430166 -0.187752 1.005693
v 0.754604 -0.160821 1.032720
v 0.439515 -0.199648 1.012586
v 0.203993 -0.207083 0.984049
v 0.198307 -0.198887 0.974433
v 0.413051 -0.177177 0.984214
v 0.193671 -0.195935 0.963223
v 0.126095 -0.194040 0.762667
v 0.296272 -0.179411 0.778864
v -0.128045 -0.210061 0.921157
v 0.123213 -0.196781 0.751567
v -0.438349 -0.211232 0.871908
v 0.126095 -0.194040 0.762667
v -0.145914 -0.205981 0.727002
v -0.416531 -0.229417 0.657708
v -0.416030 -0.243794 0.655333
v -1.086202 -0.224703 0.539577
v -1.085878 -0.239079 0.537172
v -1.086521 -0.475708 0.531430
v -0.411232 -0.480442 0.650527
v -1.086922 -0.490182 0.533136
v -0.411147 -0.494919 0.652317
v -0.411147 -0.494919 0.652317
v -0.110410 -0.493836 0.700087
v -1.087988 -0.502550 0.538691
v -0.411491 -0.507291 0.657998
v -0.108241 -0.506190 0.706164
v -1.111436 -0.502386 0.534557
v -1.086922 -0.490182 0.533136
v -1.110370 -0.490018 0.529001
v -1.906516 -0.496827 0.394363
v -1.086521 -0.475708 0.531430
v -1.907151 -0.484447 0.388507
v -1.109968 -0.475544 0.527296
v -1.907347 -0.469969 0.386697
v -1.109326 -0.238915 0.533037
v -1.906430 -0.218968 0.394949
v -1.109650 -0.224539 0.535443
v -1.905726 -0.206891 0.401398
v -1.904700 -0.198946 0.410804
v -1.978880 -0.198551 0.402820
v -1.905726 -0.206891 0.401398
v -1.987530 -0.206455 0.392593
v -2.056775 -0.206348 0.395929
v -1.987530 -0.206455 0.392593
vn 0.4643 0.1860 -0.8659
vn 0.6712 -0.0809 -0.7368
vn 0.4869 -0.0807 -0.8697
vn 0.6336 0.2801 -0.7212
vn 0.4258 0.3570 -0.8314
vn 0.5639 0.4917 -0.6635
vn 0.3466 0.5630 -0.7502
vn 0.2799 0.2270 -0.9328
vn 0.2393 0.4039 -0.8830
vn 0.2161 0.7641 -0.6078
vn 0.1802 0.5941 -0.7839
vn 0.7132 0.6857 0.1454
vn 0.4815 0.8201 -0.3092
vn 0.4702 0.8662 0.1689
vn 0.2461 0.9589 -0.1411
vn 0.6697 0.6037 -0.4324
vn 0.4336 0.7162 -0.5469
vn 0.8912 0.4328 0.1359
vn 0.7847 0.3630 -0.5026
vn 0.8454 -0.0941 -0.5257
vn 0.6337 0.2801 -0.7211
vn 0.6713 -0.0809 -0.7368
vn 0.5639 0.4916 -0.6635
vn 0.3466 0.5631 -0.7502
vn 0.2398 0.8975 -0.3700
vn 0.2161 0.7642 -0.6078
vn 0.0370 0.9986 0.0389
vn 0.4257 0.3570 -0.8315
vn 0.3032 0.0923 -0.9484
vn 0.2799 0.2269 -0.9328
vn 0.4643 0.1859 -0.8660
vn 0.3264 -0.0968 -0.9403
vn 0.4487 -0.4263 -0.7854
vn 0.3382 -0.3193 -0.8853
vn 0.6712 -0.0810 -0.7368
vn 0.5727 -0.5472 -0.6104
vn 0.0446 0.9767 -0.2100
vn 0.0570 0.8526 -0.5194
vn 0.0736 0.6043 -0.7934
vn 0.1211 0.3356 -0.9342
vn 0.2392 0.4038 -0.8830
vn -0.0326 0.6074 -0.7937
vn -0.0812 0.8905 -0.4477
vn 0.1538 0.1365 -0.9786
vn 0.0222 0.2908 -0.9565
vn -0.0499 0.6080 -0.7923
vn 0.1754 0.0005 -0.9845
vn 0.3032 0.0923 -0.9485
vn 0.0577 0.0729 -0.9957
vn 0.0043 0.2841 -0.9588
vn 0.2462 0.9589 -0.1412
vn 0.4336 0.7162 -0.5468
vn 0.2398 0.8975 -0.3701
vn -0.6857 -0.6374 -0.3515
vn -0.2804 -0.8097 -0.5155
vn -0.3963 -0.8923 -0.2160
vn -0.7610 -0.6375 0.1203
vn -0.3963 -0.8924 -0.2159
vn -0.4439 -0.8911 0.0938
vn -0.3918 0.9037 -0.1725
vn -0.2758 0.8353 -0.4755
vn -0.6821 0.6575 -0.3201
vn -0.4360 0.8935 0.1073
vn -0.3919 0.9037 -0.1725
vn -0.7559 0.6447 0.1139
vn -0.1509 0.1207 -0.9811
vn -0.1514 -0.0720 -0.9858
vn -0.4837 0.1670 -0.8592
vn -0.1400 0.3939 -0.9084
vn -0.4845 -0.1223 -0.8662
vn -0.4172 0.5355 -0.7343
vn -0.1078 0.7096 -0.6963
vn -0.2758 0.8353 -0.4756
vn -0.1420 -0.3494 -0.9262
vn -0.4198 -0.4978 -0.7589
vn -0.1116 -0.6743 -0.7300
vn -0.2803 -0.8097 -0.5156
vn 0.1405 0.0953 -0.9855
vn 0.1402 -0.0480 -0.9890
vn 0.0354 0.1013 -0.9942
vn 0.0342 0.3277 -0.9442
vn 0.1355 0.3097 -0.9411
vn 0.0294 0.6275 -0.7781
vn 0.1159 0.6037 -0.7888
vn 0.0350 -0.0531 -0.9980
vn 0.0326 -0.2823 -0.9588
vn 0.1340 -0.2643 -0.9551
vn 0.0261 -0.5891 -0.8076
vn 0.1127 -0.5658 -0.8168
vn -0.1509 0.1207 -0.9812
vn -0.1420 -0.3493 -0.9262
vn -0.1078 0.7096 -0.6964
vn 0.0293 0.6275 -0.7780
vn 0.0325 -0.2823 -0.9588
vn 0.0260 -0.5891 -0.8076
vn -0.1161 0.0551 0.9917
vn -0.1066 -0.0884 0.9904
vn -0.0720 -0.0759 0.9945
vn -0.0867 0.0678 0.9939
vn -0.0384 -0.0593 0.9975
vn -0.0039 -0.2873 0.9578
vn -0.0454 -0.2989 0.9532
vn -0.0877 -0.3076 0.9475
vn -0.0005 -0.6078 0.7941
vn 0.0497 -0.6074 0.7929
vn 0.1245 -0.6052 0.7862
vn 0.0554 -0.8869 0.4586
vn 0.1069 -0.8914 0.4404
vn -0.1284 -0.3125 0.9412
vn -0.1571 -0.3108 0.9374
vn -0.0992 -0.6078 0.7879
vn -0.0509 -0.6078 0.7925
vn -0.0471 -0.8801 0.4725
vn 0.0034 -0.8827 0.4700
vn 0.0076 -0.9936 0.1126
vn 0.0522 -0.9932 0.1039
vn 0.0817 -0.9838 -0.1599
vn 0.0455 -0.9873 -0.1521
vn 0.1123 -0.8563 -0.5041
vn 0.0931 -0.8602 -0.5013
vn 0.1289 -0.5764 -0.8069
vn 0.1305 -0.5753 -0.8074
vn 0.0962 -0.9917 0.0857
vn 0.1156 -0.9775 -0.1766
vn 0.1295 -0.8486 -0.5130
vn 0.1245 -0.5779 -0.8065
vn 0.1212 -0.5806 -0.8051
vn 0.1245 -0.5780 -0.8065
vn 0.1447 -0.8400 -0.5229
vn 0.1481 -0.9686 -0.1996
vn 0.1389 -0.9885 0.0595
vn 0.1535 -0.5425 -0.8259
vn 0.1966 -0.7970 -0.5710
vn 0.2429 -0.4423 -0.8633
vn 0.3154 -0.6676 -0.6744
vn 0.3382 -0.3193 -0.8852
vn 0.4487 -0.4264 -0.7854
vn 0.5727 -0.5473 -0.6104
vn 0.3717 -0.8304 -0.4151
vn 0.2173 -0.9384 -0.2685
vn 0.2183 -0.9759 -0.0035
vn 0.3980 -0.9051 -0.1495
vn 0.6683 -0.6404 -0.3786
vn 0.5727 -0.5473 -0.6103
vn 0.1931 -0.8992 0.3926
vn 0.3861 -0.8726 0.2991
vn 0.7141 -0.6885 0.1266
vn 0.2832 -0.5878 0.7578
vn 0.5368 -0.5211 0.6636
vn 0.2141 -0.2124 0.9534
vn 0.9845 -0.1230 0.1253
vn 0.6683 -0.6403 -0.3786
vn 0.5503 -0.1229 0.8259
vn 0.4792 0.2396 0.8443
vn 0.1594 0.0588 0.9855
vn 0.4792 0.2397 0.8444
vn 0.0189 -0.0255 0.9995
vn 0.4020 0.4515 0.7965
vn 0.1243 0.2328 0.9646
vn -0.0072 0.1282 0.9917
vn 0.0791 0.4557 0.8866
vn 0.4020 0.4516 0.7966
vn 0.0601 -0.2605 0.9636
vn -0.0590 0.0847 0.9947
vn 0.2912 0.6576 0.6948
vn -0.0412 0.3384 0.9401
vn 0.0285 0.7054 0.7082
vn -0.0822 0.6126 0.7861
vn 0.1786 0.8024 0.5694
vn 0.0295 0.9259 0.3767
vn -0.1068 0.8634 0.4931
vn 0.2300 0.9496 0.2129
vn 0.4020 0.4516 0.7965
vn -0.2066 -0.3073 0.9289
vn -0.1672 -0.3108 0.9357
vn -0.2099 -0.1027 0.9723
vn -0.2478 -0.8698 0.4266
vn -0.2742 -0.6005 0.7511
vn -0.3974 -0.5835 0.7082
vn -0.4471 -0.7795 0.4387
vn -0.1840 -0.6062 0.7738
vn -0.4439 -0.8911 0.0939
vn -0.2135 -0.9710 0.1075
vn -0.1829 -0.9766 -0.1131
vn -0.1407 -0.9527 -0.2694
vn -0.1421 -0.6069 0.7819
vn -0.1368 -0.8812 0.4526
vn -0.0783 -0.9904 0.1139
vn -0.0884 -0.8805 0.4657
vn -0.1421 -0.6069 0.7820
vn -0.0476 -0.9978 -0.0467
vn -0.0260 -0.9938 0.1081
vn 0.0172 -0.9864 -0.1637
vn -0.1735 -0.0948 0.9803
vn -0.1670 -0.3106 0.9358
vn -0.1731 0.0481 0.9837
vn -0.1644 -0.0952 0.9818
vn -0.1657 0.2658 0.9497
vn -0.1648 0.0473 0.9852
vn -0.1589 0.2642 0.9513
vn -0.1352 0.5670 0.8125
vn -0.1315 0.5640 0.8153
vn -0.0948 0.8519 0.5150
vn -0.1443 0.2622 0.9542
vn -0.1440 0.0482 0.9884
vn -0.1401 -0.0952 0.9855
vn -0.1067 -0.0884 0.9904
vn -0.1257 0.2682 0.9551
vn 0.0226 0.9930 -0.1157
vn -0.0676 0.9861 0.1521
vn -0.0207 0.9876 0.1558
vn -0.0837 0.8574 0.5079
vn 0.0259 0.9938 -0.1082
vn -0.0208 0.9876 0.1556
vn 0.0260 0.9938 -0.1081
vn 0.0882 0.8804 -0.4660
vn 0.0881 0.8804 -0.4660
vn -0.0837 0.8574 0.5078
vn -0.0247 0.9872 0.1577
vn 0.0201 0.9941 -0.1066
vn -0.0844 0.8550 0.5117
vn 0.0798 0.8815 -0.4655
vn 0.1421 0.6069 -0.7819
vn 0.1326 0.6082 -0.7827
vn -0.1389 0.5691 0.8105
vn 0.0472 0.8832 -0.4666
vn 0.1420 0.6069 -0.7820
vn -0.1391 0.5692 0.8103
vn -0.1741 0.5691 0.8036
vn -0.1258 0.8578 0.4984
vn -0.1995 0.2650 0.9434
vn -0.2060 0.9698 0.1307
vn -0.0421 0.9991 0.0017
vn 0.0075 0.9935 -0.1140
vn -0.2068 0.0500 0.9771
vn -0.3072 0.0544 0.9501
vn -0.2993 0.2739 0.9140
vn -0.2719 0.5643 0.7795
vn -0.1741 0.5691 0.8037
vn -0.4531 0.3079 0.8366
vn -0.3944 0.5506 0.7357
vn -0.2525 0.8372 0.4851
vn -0.4428 0.7581 0.4788
vn -0.6464 0.4830 0.5906
vn -0.4360 0.8935 0.1074
vn -0.7515 0.1303 0.6467
vn -0.1776 0.9819 -0.0655
vn -0.0334 0.9986 -0.0401
vn -0.1356 0.9655 -0.2223
vn -0.2758 0.8354 -0.4755
vn -0.0141 0.9962 -0.0855
vn -0.0591 0.9235 -0.3790
vn -0.6821 0.6575 -0.3200
vn -0.4173 0.5355 -0.7342
vn -0.2759 0.8353 -0.4755
vn -0.8790 0.2126 -0.4269
vn -0.4838 0.1670 -0.8591
vn -0.4846 -0.1223 -0.8662
vn -0.8801 -0.1866 -0.4365
vn -0.4198 -0.4979 -0.7589
vn -0.6857 -0.6373 -0.3516
vn -0.9719 0.2031 0.1192
vn -0.8791 0.2126 -0.4267
vn -0.9667 -0.2199 0.1305
vn -0.8802 -0.1866 -0.4365
vn -0.7517 -0.1799 0.6346
vn -0.7610 -0.6374 0.1203
vn -0.6663 -0.5004 0.5528
vn -0.4783 -0.1265 0.8690
vn -0.2803 -0.8098 -0.5155
vn -0.4786 0.0699 0.8753
vn -0.3066 -0.1107 0.9454
vn -0.4555 -0.3438 0.8212
vn -0.4783 -0.1266 0.8690
vn -0.2956 -0.3039 0.9057
vn -0.0388 -0.9953 -0.0885
vn 0.0023 -0.9867 -0.1624
vn -0.0195 -0.9908 -0.1337
vn -0.0640 -0.9037 -0.4233
vn -0.2803 -0.8097 -0.5155
vn -0.1116 -0.6743 -0.7299
vn 0.0146 -0.8622 -0.5063
vn 0.0260 -0.5892 -0.8076
vn 0.1127 -0.5659 -0.8168
vn 0.0261 -0.5892 -0.8076
vn 0.0685 -0.8519 -0.5192
vn 0.1388 -0.5689 -0.8106
vn 0.0835 -0.8572 -0.5082
vn 0.0206 -0.9875 -0.1562
vn 0.1347 -0.5721 -0.8090
vn 0.0833 -0.8591 -0.5050
vn 0.0205 -0.9875 -0.1563
vn 0.0240 -0.9879 -0.1530
vn -0.0199 -0.9936 0.1112
vn -0.0884 -0.8806 0.4656
vn 0.0075 -0.9936 0.1126
vn -0.0795 -0.8794 0.4695
vn -0.1320 -0.6062 0.7842
vn 0.2050 -0.1904 -0.9601
vn 0.3263 -0.0968 -0.9403
vn 0.2429 -0.4423 -0.8634
vn 0.1123 -0.2718 -0.9558
vn 0.1212 -0.5806 -0.8052
vn 0.0878 -0.3020 -0.9492
vn 0.0808 -0.0712 -0.9942
vn 0.0594 -0.0884 -0.9943
vn 0.0388 0.0564 -0.9977
vn 0.1062 -0.2886 -0.9515
vn 0.0717 0.0731 -0.9947
vn 0.0870 -0.0716 -0.9936
vn 0.0453 0.2956 -0.9542
vn 0.1289 -0.5763 -0.8070
vn 0.1245 -0.5779 -0.8066
vn 0.1258 -0.2793 -0.9519
vn 0.1305 -0.5753 -0.8075
vn 0.1444 -0.2725 -0.9513
vn 0.1164 -0.0593 -0.9914
vn 0.1444 -0.0522 -0.9881
vn 0.1068 0.0849 -0.9907
vn 0.0718 0.0731 -0.9947
vn 0.0880 0.3038 -0.9487
vn 0.1409 0.0918 -0.9858
vn 0.1297 0.3079 -0.9425
vn 0.0503 0.6091 -0.7915
vn 0.1003 0.6076 -0.7879
vn -0.0001 0.6084 -0.7937
vn -0.1079 0.8950 -0.4328
vn -0.0569 0.8906 -0.4513
vn -0.1055 0.9905 -0.0882
vn -0.1388 0.9889 -0.0530
vn -0.1120 0.9786 0.1725
vn -0.1483 0.9670 0.2071
vn -0.0971 0.9921 -0.0794
vn -0.1164 0.9760 0.1840
vn -0.1444 0.8323 0.5352
vn -0.1297 0.8408 0.5256
vn -0.1200 0.5711 0.8121
vn -0.1242 0.5678 0.8137
vn -0.0868 0.2932 0.9521
vn -0.1054 0.2792 0.9544
vn -0.1288 0.5648 0.8151
vn -0.1135 0.8468 0.5196
vn -0.1163 0.9760 0.1840
vn -0.0824 0.9823 0.1683
vn -0.0534 0.9939 -0.0964
vn -0.0462 0.9861 0.1594
vn -0.0051 0.8868 -0.4622
vn -0.0247 0.9872 0.1576
vn -0.0075 0.9943 -0.1064
vn 0.1579 0.3109 -0.9372
vn 0.1649 0.0948 -0.9817
vn 0.1673 0.3108 -0.9356
vn 0.1734 0.0948 -0.9803
vn 0.1730 -0.0479 -0.9838
vn 0.1650 -0.0487 -0.9851
vn 0.1656 -0.2659 -0.9497
vn 0.1589 -0.2681 -0.9502
vn 0.1347 -0.5721 -0.8091
vn 0.1655 -0.2659 -0.9497
vn 0.1730 -0.0480 -0.9838
vn 0.1730 -0.0480 -0.9837
vn 0.1406 0.0953 -0.9855
vn 0.1735 0.0948 -0.9803
vn 0.1672 0.3108 -0.9357
vn 0.1159 0.6037 -0.7887
vn 0.0732 0.8757 -0.4772
vn 0.0193 0.8857 -0.4639
vn 0.0294 0.6276 -0.7780
vn 0.0293 0.6276 -0.7780
vt 1.000000 0.098813
vt 1.000000 0.074863
vt 1.000000 0.065135
vt 1.000000 0.106013
vt 1.000000 0.651185
vt 1.000000 0.643987
vt 1.000000 0.684860
vt 1.000000 0.659387
vt 1.000000 0.693124
vt 1.000000 0.732351
vt 0.999146 0.750294
vt 1.000000 0.478004
vt 1.000000 0.500286
vt 1.000000 0.491717
vt 1.000000 0.528116
vt 1.000000 0.485204
vt 1.000000 0.675135
vt 1.000000 0.271996
vt 1.000000 0.264796
vt 1.000000 0.249714
vt 1.000000 0.721882
vt 0.996308 0.528119
vt 1.000000 0.090606
vt 1.000000 0.056867
vt 1.000000 0.017647
vt 1.000000 0.038294
vt 1.000000 0.028116
vt 0.996284 0.721883
vt 0.996337 0.732914
vt 0.996199 0.750000
vt 0.996334 0.768354
vt 1.000000 0.768959
vt 0.993944 0.750000
vt 0.993968 0.732643
vt 0.996279 0.780203
vt 1.000000 0.780204
vt 0.993963 0.768645
vt 0.875000 0.750000
vt 0.996298 0.969795
vt 1.000000 0.969798
vt 0.993969 0.780204
vt 0.875047 0.768653
vt 0.000000 0.124673
vt 0.001006 0.051504
vt 0.000014 0.080837
vt 0.000000 0.248199
vt 0.000000 0.221884
vt 0.000014 0.669163
vt 0.001006 0.698496
vt 0.000000 0.625327
vt 0.000000 0.528116
vt 0.000000 0.501801
vt 0.000000 0.659394
vt 0.000000 0.090606
vt 0.000000 0.621553
vt 0.000000 0.693540
vt 0.000000 0.128448
vt 0.000000 0.652140
vt 0.000000 0.747408
vt 0.000000 0.702694
vt 0.000000 0.056460
vt 0.000000 0.097860
vt 0.000000 0.002592
vt 0.000000 0.047306
vt 0.027892 0.780202
vt 0.027892 0.969798
vt 0.017218 0.780202
vt 0.017362 0.768644
vt 0.027821 0.768644
vt 0.017772 0.750000
vt 0.027618 0.750000
vt 0.017218 0.969798
vt 0.017362 0.981356
vt 0.027821 0.981356
vt 0.017772 1.000000
vt 0.027617 1.000000
vt 0.000000 0.780202
vt 0.000000 0.969798
vt 0.000232 0.768644
vt 0.000232 0.981356
vt 0.016986 0.768644
vt 0.000894 0.750000
vt 0.016324 0.750000
vt 0.016986 0.981356
vt 0.000894 1.000000
vt 0.016324 1.000000
vt 0.625000 0.469772
vt 0.625000 0.280227
vt 0.750000 0.280221
vt 0.750000 0.469779
vt 0.875000 0.280221
vt 0.874966 0.268653
vt 0.749984 0.268652
vt 0.625018 0.268655
vt 0.749892 0.250000
vt 0.874768 0.250000
vt 0.994135 0.250000
vt 0.749987 0.232632
vt 0.874971 0.232631
vt 0.499997 0.268655
vt 0.375015 0.268645
vt 0.499982 0.250000
vt 0.625119 0.250000
vt 0.499997 0.232632
vt 0.625015 0.232628
vt 0.500000 0.221861
vt 0.625000 0.221852
vt 0.625000 0.028151
vt 0.500000 0.028140
vt 0.624906 0.017383
vt 0.500094 0.017375
vt 0.625000 0.000000
vt 0.500003 0.000000
vt 0.750000 0.221859
vt 0.750000 0.028141
vt 0.749882 0.017375
vt 0.625136 0.017382
vt 0.750000 0.000000
vt 0.875000 0.000000
vt 0.750081 0.017375
vt 0.874919 0.017375
vt 0.875000 0.028141
vt 0.875000 0.221859
vt 0.994030 0.000000
vt 0.875016 0.017374
vt 0.994052 0.017359
vt 0.996253 0.000000
vt 0.996388 0.017090
vt 1.000000 0.011883
vt 0.996336 0.028119
vt 0.994059 0.028119
vt 0.994107 0.221881
vt 0.996359 0.221883
vt 1.000000 0.221881
vt 0.994114 0.232642
vt 0.996420 0.232913
vt 1.000000 0.232350
vt 0.996318 0.250000
vt 0.999173 0.250294
vt 0.996423 0.268354
vt 1.000000 0.258284
vt 1.000000 0.268959
vt 1.000000 0.280205
vt 0.996363 0.280203
vt 0.994113 0.280204
vt 1.000000 0.469798
vt 0.996346 0.469795
vt 0.994077 0.469796
vt 0.996399 0.481642
vt 0.994119 0.268645
vt 0.875000 0.469779
vt 1.000000 0.481045
vt 0.994071 0.481353
vt 0.996268 0.500000
vt 0.994054 0.500000
vt 0.999162 0.499707
vt 0.996370 0.517090
vt 0.994032 0.517359
vt 1.000000 0.517647
vt 0.009702 0.268645
vt 0.125000 0.268645
vt 0.009702 0.280203
vt 0.006120 0.232264
vt 0.006211 0.250000
vt 0.001374 0.250296
vt 0.000000 0.231999
vt 0.009702 0.250000
vt 0.005989 0.221884
vt 0.005989 0.082539
vt 0.007765 0.056669
vt 0.125000 0.250000
vt 0.009702 0.232643
vt 0.009702 0.221884
vt 0.125000 0.232643
vt 0.250001 0.250000
vt 0.009702 0.083599
vt 0.125000 0.221884
vt 0.028848 0.028116
vt 0.250000 0.280203
vt 0.125000 0.280203
vt 0.250000 0.268645
vt 0.125000 0.469798
vt 0.375000 0.280205
vt 0.250000 0.469798
vt 0.250000 0.481355
vt 0.375000 0.469796
vt 0.375017 0.481354
vt 0.375036 0.500000
vt 0.500000 0.500000
vt 0.500003 0.517374
vt 0.499998 0.481336
vt 0.500000 0.469772
vt 0.500000 0.280226
vt 0.625000 0.280226
vt 0.625022 0.481335
vt 0.028849 0.721885
vt 0.009702 0.528116
vt 0.125000 0.528116
vt 0.125000 0.517356
vt 0.125000 0.721885
vt 0.250000 0.528116
vt 0.250000 0.721885
vt 0.125000 0.732644
vt 0.250000 0.732644
vt 0.250000 0.517356
vt 0.375000 0.528125
vt 0.375000 0.721876
vt 0.374994 0.517363
vt 0.374992 0.732640
vt 0.125000 0.750000
vt 0.375000 0.750000
vt 0.250000 0.500000
vt 0.500002 0.732632
vt 0.250001 0.750000
vt 0.125000 0.500000
vt 0.009702 0.500000
vt 0.125000 0.481356
vt 0.009702 0.517356
vt 0.009702 0.481356
vt 0.005989 0.528116
vt 0.009702 0.666401
vt 0.021004 0.717363
vt 0.009702 0.469798
vt 0.005989 0.469798
vt 0.005896 0.481645
vt 0.006089 0.500000
vt 0.000000 0.481044
vt 0.001367 0.499706
vt 0.005896 0.517087
vt 0.000000 0.517646
vt 0.000000 0.492870
vt 0.000000 0.479323
vt 0.005989 0.667461
vt 0.011262 0.689133
vt 0.007765 0.693331
vt 0.015164 0.706055
vt 0.012487 0.713813
vt 0.002437 0.701465
vt 0.007855 0.724964
vt 0.000000 0.651285
vt 0.000000 0.598094
vt 0.000000 0.151906
vt 0.000000 0.098715
vt 0.000000 0.487050
vt 0.000000 0.262950
vt 0.000000 0.270677
vt 0.000000 0.257443
vt 0.000000 0.280203
vt 0.000000 0.469798
vt 0.005989 0.280203
vt 0.000000 0.269337
vt 0.006120 0.269052
vt 0.011262 0.060867
vt 0.021004 0.032637
vt 0.015164 0.043945
vt 0.012487 0.036188
vt 0.002437 0.048535
vt 0.007855 0.025036
vt 0.019555 0.022502
vt 0.008639 0.022764
vt 0.016748 0.007063
vt 0.027617 0.000158
vt 0.017772 0.005833
vt 0.028482 0.017356
vt 0.125000 0.000000
vt 0.028172 0.000000
vt 0.125000 0.017356
vt 0.250000 0.000000
vt 0.125000 0.028116
vt 0.250000 0.017356
vt 0.375000 0.000000
vt 0.374988 0.017362
vt 0.250000 0.028116
vt 0.375000 0.028125
vt 0.250000 0.221883
vt 0.375000 0.221874
vt 0.250000 0.232643
vt 0.499996 0.000000
vt 0.375029 0.017364
vt 0.499901 0.017374
vt 0.375007 0.232638
vt 0.375088 0.250000
vt 0.996358 0.981642
vt 1.000000 0.981044
vt 0.997477 1.000000
vt 0.996253 1.000000
vt 0.994030 1.000000
vt 0.994013 0.981353
vt 0.875000 1.000000
vt 0.874981 0.981341
vt 0.994007 0.969796
vt 0.875000 0.969779
vt 0.875000 0.780221
vt 0.750000 1.000000
vt 0.875104 0.981340
vt 0.749896 0.981340
vt 0.750000 0.780221
vt 0.750000 0.969779
vt 0.750033 0.768652
vt 0.625000 1.000000
vt 0.750151 0.981340
vt 0.624817 0.981335
vt 0.500003 1.000000
vt 0.625124 0.981335
vt 0.499900 0.981335
vt 0.625000 0.969772
vt 0.500000 0.969771
vt 0.625000 0.780231
vt 0.624960 0.768657
vt 0.500000 0.780231
vt 0.500002 0.768658
vt 0.625000 0.750000
vt 0.500000 0.750000
vt 0.750000 0.750000
vt 0.875039 0.732631
vt 0.750028 0.732631
vt 0.993975 0.721882
vt 0.875000 0.721859
vt 0.994025 0.528119
vt 0.875000 0.528141
vt 0.750000 0.721859
vt 0.750000 0.528141
vt 0.875034 0.517375
vt 0.750018 0.517375
vt 0.874975 0.500000
vt 0.749987 0.500000
vt 0.874963 0.481341
vt 0.749980 0.481340
vt 0.625016 0.500000
vt 0.624978 0.517382
vt 0.625000 0.528150
vt 0.625000 0.721846
vt 0.500000 0.528139
vt 0.624967 0.732624
vt 0.500000 0.721859
vt 0.374980 0.768644
vt 0.375000 0.780203
vt 0.250000 0.768644
vt 0.250000 0.780202
vt 0.250000 0.969798
vt 0.375000 0.969796
vt 0.250000 0.981356
vt 0.374936 0.981354
vt 0.375029 0.981354
vt 0.500108 0.981336
vt 0.250000 1.000000
vt 0.375000 1.000000
vt 0.499996 1.000000
vt 0.125000 1.000000
vt 0.125000 0.981356
vt 0.028172 1.000000
vt 0.027965 0.981356
vt 0.125000 0.969798
vt 0.125000 0.780202
vt 0.027965 0.768644
vt 0.125000 0.768644
vt 0.028172 0.750000
vt 0.028483 0.732644
vt 0.019555 0.727498
vt 0.027618 0.749842
vt 0.017772 0.744167
vt 0.008639 0.727236
vt 0.016748 0.742937
s 1
f 1/1/1 2/2/2 3/3/3
f 2/2/2 1/1/1 4/4/4
f 1/1/1 5/5/5 4/4/4
f 6/6/6 5/5/5 7/7/7
f 8/8/8 7/7/7 5/5/5
f 7/7/7 8/8/8 9/9/9
f 9/9/9 10/10/10 7/7/7
f 10/10/10 9/9/9 11/11/11
f 12/12/12 13/13/13 14/14/14
f 15/15/15 14/14/14 13/13/13
f 13/13/13 12/12/12 16/16/16
f 17/17/17 15/15/15 13/13/13
f 16/16/16 17/17/17 13/13/13
f 12/12/12 18/18/18 16/16/16
f 19/19/19 16/16/16 18/18/18
f 18/18/18 20/20/20 19/19/19
f 20/20/20 21/4/21 19/19/19
f 21/4/21 20/20/20 22/2/22
f 16/16/16 19/19/19 23/6/23
f 23/6/23 19/19/19 21/4/21
f 17/17/17 16/16/16 23/6/23
f 23/6/23 21/4/21 24/5/5
f 25/7/24 17/17/17 23/6/23
f 25/7/24 26/21/25 17/17/17
f 26/21/25 25/7/24 27/10/26
f 26/21/25 28/22/27 15/15/15
f 24/5/28 29/23/29 30/8/30
f 29/23/29 24/5/28 31/1/31
f 32/3/3 29/23/29 31/1/31
f 29/23/29 32/3/3 33/24/32
f 34/25/33 33/24/32 32/3/3
f 33/24/32 34/25/33 35/26/34
f 32/3/3 22/2/35 34/25/33
f 22/2/35 36/27/36 34/25/33
f 28/22/27 26/21/25 37/28/37
f 27/10/26 37/28/37 26/21/25
f 37/28/37 27/10/26 38/29/38
f 39/11/11 38/29/38 27/10/26
f 38/29/38 39/11/11 40/30/39
f 39/11/11 41/31/40 40/30/39
f 41/31/40 39/11/11 42/32/41
f 43/33/42 38/29/38 40/30/39
f 41/31/40 43/33/42 40/30/39
f 44/34/43 37/28/37 38/29/38
f 38/29/38 43/33/42 44/34/43
f 42/32/41 45/35/44 41/31/40
f 45/35/44 42/32/41 46/36/8
f 43/33/42 41/31/40 47/37/45
f 45/35/44 47/37/45 41/31/40
f 43/33/42 48/38/46 44/34/43
f 47/37/45 48/38/46 43/33/42
f 46/36/8 49/39/47 45/35/44
f 49/39/47 46/36/8 50/40/48
f 47/37/45 45/35/44 51/41/49
f 45/35/44 49/39/47 51/41/49
f 48/38/46 47/37/45 52/42/50
f 51/41/49 52/42/50 47/37/45
f 53/15/51 54/17/52 55/21/53
f 56/43/54 57/44/55 58/45/56
f 59/46/57 58/45/58 60/47/59
f 61/48/60 62/49/61 63/50/62
f 64/51/63 61/48/64 65/52/65
f 66/53/66 67/54/67 68/55/68
f 66/53/66 68/55/68 69/56/69
f 68/55/68 67/54/67 70/57/70
f 71/58/71 69/56/69 68/55/68
f 69/56/69 71/58/71 72/59/72
f 73/60/73 72/59/72 71/58/71
f 74/61/74 70/57/70 67/54/67
f 70/57/70 74/61/74 75/62/75
f 76/63/76 75/62/75 74/61/74
f 75/62/75 76/63/76 77/64/77
f 78/65/78 79/66/79 80/67/80
f 81/68/81 78/65/78 80/67/80
f 78/65/78 81/68/81 82/69/82
f 83/70/83 82/69/82 81/68/81
f 82/69/82 83/70/83 84/71/84
f 80/67/80 79/66/79 85/72/85
f 79/66/79 86/73/86 85/72/85
f 86/73/86 79/66/79 87/74/87
f 87/74/87 88/75/88 86/73/86
f 88/75/88 87/74/87 89/76/89
f 80/67/80 85/72/85 90/77/90
f 90/77/90 85/72/85 91/78/67
f 92/79/69 80/67/80 90/77/90
f 85/72/85 93/80/91 91/78/67
f 80/67/80 92/79/69 94/81/81
f 95/82/92 94/81/81 92/79/69
f 94/81/81 95/82/92 96/83/93
f 93/80/91 85/72/85 97/84/94
f 93/80/91 97/84/94 98/85/76
f 98/85/76 97/84/94 99/86/95
f 100/87/96 101/88/97 102/89/98
f 100/87/96 102/89/98 103/90/99
f 103/90/99 102/89/98 104/91/100
f 104/91/100 102/89/98 105/92/101
f 102/89/98 101/88/97 106/93/102
f 106/93/102 105/92/101 102/89/98
f 107/94/103 106/93/102 101/88/97
f 106/93/102 107/94/103 108/95/104
f 105/92/101 106/93/102 109/96/105
f 108/95/104 109/96/105 106/93/102
f 109/96/105 110/97/106 105/92/101
f 111/98/107 109/96/105 108/95/104
f 112/99/108 110/97/106 109/96/105
f 109/96/105 111/98/107 112/99/108
f 113/100/109 114/101/110 115/102/111
f 115/102/111 116/103/112 113/100/109
f 107/94/103 113/100/109 116/103/112
f 117/104/113 116/103/112 115/102/111
f 116/103/112 117/104/113 118/105/114
f 119/106/115 118/105/114 117/104/113
f 118/105/114 119/106/115 120/107/116
f 119/106/115 121/108/117 120/107/116
f 121/108/117 119/106/115 122/109/118
f 122/109/118 123/110/119 121/108/117
f 123/110/119 122/109/118 124/111/120
f 124/111/120 125/112/121 123/110/119
f 125/112/121 124/111/120 126/113/122
f 118/105/114 108/95/104 116/103/112
f 116/103/112 108/95/104 107/94/103
f 108/95/104 118/105/114 111/98/107
f 127/107/116 111/98/107 118/105/114
f 111/98/107 127/107/116 128/114/123
f 129/108/117 128/114/123 127/107/116
f 128/114/123 129/108/117 130/115/124
f 129/108/117 131/116/125 130/115/124
f 131/116/125 129/108/117 132/117/119
f 132/117/119 133/118/126 131/116/125
f 133/118/126 132/117/119 125/112/121
f 134/119/127 135/120/125 133/118/128
f 135/120/125 134/119/127 136/121/129
f 136/121/129 137/115/124 135/120/125
f 137/115/124 136/121/129 138/122/130
f 139/123/131 137/115/124 138/122/130
f 137/115/124 139/123/131 140/114/123
f 112/99/108 140/114/123 139/123/131
f 140/114/123 112/99/108 111/98/107
f 134/119/127 141/124/132 142/125/129
f 142/125/129 141/124/132 143/126/133
f 141/124/132 144/127/134 143/126/133
f 143/126/133 145/122/130 142/125/129
f 143/126/133 144/127/134 146/128/135
f 144/127/134 147/129/136 146/128/135
f 148/25/137 146/128/135 147/129/136
f 149/27/138 146/128/135 148/25/137
f 146/128/135 149/27/138 150/130/139
f 146/128/135 151/131/140 143/126/133
f 145/122/130 143/126/133 151/131/140
f 151/131/140 146/128/135 150/130/139
f 152/132/141 145/122/130 151/131/140
f 145/122/130 152/132/141 153/123/131
f 150/130/139 154/133/142 151/131/140
f 152/132/141 151/131/140 154/133/142
f 150/130/139 155/134/143 154/133/142
f 155/134/143 150/130/139 156/27/144
f 156/27/144 20/20/20 155/134/143
f 20/20/20 156/27/144 22/2/22
f 157/135/145 153/123/131 152/132/141
f 153/123/131 157/135/145 112/99/108
f 152/132/141 154/133/142 158/136/146
f 157/135/145 152/132/141 158/136/146
f 154/133/142 159/137/147 158/136/146
f 159/137/147 154/133/142 160/134/143
f 157/135/145 158/136/146 161/138/148
f 110/97/106 112/99/108 157/135/145
f 110/97/106 157/135/145 161/138/148
f 158/136/146 162/139/149 161/138/148
f 162/139/149 158/136/146 159/137/147
f 162/139/149 163/140/150 161/138/148
f 163/140/150 110/97/106 161/138/148
f 164/141/151 162/139/149 159/137/147
f 165/134/152 164/141/151 159/137/147
f 164/141/151 165/134/152 20/20/20
f 162/139/149 164/141/151 166/142/153
f 163/140/150 162/139/149 166/142/153
f 164/141/151 167/143/154 166/142/153
f 167/143/154 164/141/151 18/18/18
f 20/20/20 18/18/18 164/141/151
f 168/144/155 163/140/150 166/142/153
f 169/143/156 168/144/155 166/142/153
f 170/145/157 163/140/150 168/144/155
f 18/18/18 171/146/158 169/143/156
f 172/147/159 169/143/156 171/146/158
f 169/143/156 172/147/159 168/144/155
f 171/146/158 18/18/18 12/12/12
f 173/148/160 168/144/155 172/147/159
f 168/144/155 173/148/160 170/145/157
f 173/148/160 172/147/159 174/149/161
f 175/146/162 174/149/161 172/147/159
f 170/145/157 176/150/163 163/140/150
f 110/97/106 163/140/150 176/150/163
f 170/145/157 177/91/100 176/150/163
f 105/92/101 176/150/163 177/91/100
f 176/150/163 105/92/101 110/97/106
f 177/91/100 170/145/157 178/151/164
f 178/151/164 170/145/157 173/148/160
f 174/149/161 175/146/162 179/152/165
f 180/153/166 178/151/164 173/148/160
f 180/153/166 173/148/160 174/149/161
f 180/153/166 174/149/161 181/154/167
f 182/155/168 180/153/166 181/154/167
f 174/149/161 183/156/169 181/154/167
f 174/149/161 179/152/165 183/156/169
f 184/157/170 181/154/167 183/156/169
f 184/157/170 185/155/168 181/154/167
f 185/155/168 184/157/170 186/158/171
f 183/156/169 187/159/172 184/157/170
f 179/152/165 187/159/172 183/156/169
f 187/159/172 28/22/27 184/157/170
f 28/22/27 186/158/171 184/157/170
f 187/159/172 179/152/165 14/14/14
f 179/152/165 12/12/12 14/14/14
f 12/12/12 179/152/165 188/146/173
f 14/14/14 15/15/15 187/159/172
f 28/22/27 187/159/172 15/15/15
f 189/160/174 190/161/175 191/162/176
f 192/163/177 193/164/178 194/165/179
f 195/166/180 192/163/177 194/165/179
f 189/160/174 193/164/178 196/167/181
f 197/47/182 198/168/183 195/166/180
f 198/168/183 192/163/177 195/166/180
f 197/47/182 199/169/184 198/168/183
f 199/169/184 197/47/182 200/45/58
f 200/45/58 201/170/185 199/169/184
f 196/167/181 202/171/186 189/160/174
f 190/161/175 189/160/174 202/171/186
f 203/172/187 196/167/181 193/164/178
f 192/163/177 203/172/187 193/164/178
f 203/172/187 202/171/186 196/167/181
f 204/173/188 203/172/187 192/163/177
f 198/168/183 204/173/188 192/163/177
f 202/171/186 203/172/187 205/174/189
f 204/173/188 205/174/189 203/172/187
f 190/161/175 202/171/186 206/175/190
f 205/174/189 206/175/190 202/171/186
f 198/168/183 207/176/191 204/173/188
f 207/176/191 198/168/183 199/169/184
f 205/174/189 204/173/188 208/177/192
f 209/178/193 204/173/188 207/176/191
f 209/178/193 208/177/192 204/173/188
f 210/179/194 211/180/194 212/181/195
f 213/182/196 211/180/194 210/179/194
f 214/183/197 212/181/195 114/101/110
f 212/181/195 214/183/197 210/179/194
f 210/179/194 215/184/196 213/182/196
f 216/185/198 213/182/196 215/184/196
f 217/186/199 210/179/194 214/183/197
f 210/179/194 217/186/199 215/184/196
f 218/187/200 215/184/196 217/186/199
f 215/184/196 218/187/200 216/185/198
f 219/188/201 216/185/198 218/187/200
f 218/187/200 220/189/202 219/188/201
f 221/190/203 219/188/201 220/189/202
f 220/189/202 218/187/200 222/191/204
f 223/186/199 222/191/204 218/187/200
f 214/183/197 224/192/205 223/186/199
f 222/191/204 223/186/199 224/192/205
f 224/192/205 214/183/197 225/193/206
f 114/101/110 225/193/206 214/183/197
f 224/192/205 225/193/206 226/194/207
f 224/192/205 226/194/207 227/87/96
f 228/195/208 224/192/205 227/87/96
f 224/192/205 228/195/208 222/191/204
f 226/194/207 225/193/206 107/94/103
f 225/193/206 114/101/110 113/100/109
f 113/100/109 107/94/103 225/193/206
f 229/196/209 230/197/210 231/198/211
f 230/197/210 232/199/212 231/198/211
f 229/196/209 231/198/211 233/200/213
f 234/201/214 233/200/213 231/198/211
f 233/200/213 234/201/214 235/202/215
f 235/202/215 236/203/216 233/200/213
f 236/203/216 229/196/209 233/200/213
f 236/203/216 235/202/215 237/204/217
f 231/198/211 238/205/218 234/201/214
f 238/205/218 231/198/211 232/199/212
f 238/205/218 239/206/219 234/201/214
f 240/207/220 234/201/214 239/206/219
f 234/201/214 240/207/220 241/202/213
f 239/206/219 238/205/218 242/208/221
f 243/209/222 241/202/213 240/207/220
f 241/202/213 243/209/222 237/204/217
f 237/204/217 244/210/223 236/203/216
f 245/211/224 237/204/217 243/209/222
f 246/212/225 242/208/221 238/205/218
f 232/199/212 246/212/225 238/205/218
f 247/213/226 245/211/224 243/209/222
f 248/207/220 247/213/226 243/209/222
f 237/204/217 245/211/224 249/214/227
f 244/210/223 237/204/217 249/214/227
f 246/212/225 232/199/212 250/215/228
f 232/199/212 251/216/229 250/215/228
f 252/217/198 246/212/225 250/215/228
f 250/215/228 251/216/229 252/217/198
f 251/216/229 232/199/212 253/218/230
f 232/199/212 230/197/210 253/218/230
f 254/219/231 252/217/198 251/216/229
f 255/220/232 253/218/230 230/197/210
f 246/212/225 252/217/198 216/185/198
f 230/197/210 256/221/233 255/220/232
f 229/196/209 256/221/233 230/197/210
f 256/221/233 229/196/209 257/222/234
f 216/185/198 219/188/201 246/212/225
f 242/208/221 246/212/225 219/188/201
f 213/182/196 216/185/198 252/217/198
f 219/188/201 221/190/203 242/208/221
f 252/217/198 258/223/235 213/182/196
f 258/223/235 252/217/198 254/219/231
f 213/182/196 258/223/235 259/180/194
f 191/162/176 259/180/194 258/223/235
f 254/219/231 260/224/236 258/223/235
f 260/224/236 191/162/176 258/223/235
f 259/180/194 191/162/176 190/161/175
f 260/224/236 254/219/231 261/225/237
f 254/219/231 262/226/238 261/225/237
f 262/226/238 254/219/231 263/216/239
f 264/227/240 260/224/236 261/225/237
f 265/228/241 261/225/237 262/226/238
f 261/225/237 265/228/241 264/227/240
f 262/226/238 266/216/229 253/218/230
f 262/226/238 253/218/230 267/229/242
f 265/228/241 262/226/238 267/229/242
f 253/218/230 255/220/232 267/229/242
f 267/229/242 268/230/243 265/228/241
f 268/230/243 267/229/242 255/220/232
f 269/231/244 264/227/240 265/228/241
f 265/228/241 268/230/243 269/231/244
f 255/220/232 270/51/245 268/230/243
f 264/227/240 269/231/244 271/232/246
f 268/230/243 272/52/65 269/231/244
f 268/230/243 270/51/245 272/52/65
f 272/52/65 271/232/246 269/231/244
f 255/220/232 273/233/247 270/51/245
f 255/220/232 256/221/233 273/233/247
f 270/51/245 273/233/247 274/48/60
f 275/234/248 273/233/247 256/221/233
f 257/222/234 275/234/248 256/221/233
f 276/235/249 274/48/60 273/233/247
f 273/233/247 275/234/248 276/235/249
f 274/48/60 276/235/249 277/49/250
f 278/236/251 276/235/249 275/234/248
f 275/234/248 257/222/234 278/236/251
f 276/235/249 278/236/251 279/237/252
f 257/222/234 279/237/252 278/236/251
f 279/237/252 280/238/250 276/235/249
f 280/238/250 279/237/252 281/239/72
f 282/50/253 272/52/65 274/48/64
f 283/240/254 282/50/62 277/49/255
f 282/50/62 283/240/254 284/241/256
f 285/55/257 284/241/256 283/240/254
f 285/55/257 286/57/258 284/241/256
f 284/241/256 286/57/258 287/242/259
f 288/243/260 287/242/259 286/57/258
f 287/242/259 288/243/260 289/43/261
f 290/44/55 289/43/261 288/243/260
f 272/52/65 282/50/253 291/244/262
f 292/241/263 291/244/262 282/50/253
f 271/232/246 272/52/65 291/244/262
f 291/244/262 292/241/263 293/245/264
f 292/241/263 294/242/265 293/245/264
f 289/43/54 293/245/264 294/242/265
f 295/246/266 291/244/262 293/245/264
f 291/244/262 295/246/266 271/232/246
f 293/245/264 289/43/54 296/46/267
f 200/45/58 296/46/267 289/43/54
f 295/246/266 293/245/264 297/247/268
f 293/245/264 296/46/267 297/247/268
f 298/248/269 271/232/246 295/246/266
f 201/170/185 200/45/58 290/44/270
f 271/232/246 298/248/269 299/249/271
f 271/232/246 299/249/271 264/227/240
f 260/224/236 264/227/240 299/249/271
f 300/250/272 299/249/271 298/248/269
f 299/249/271 300/250/272 260/224/236
f 298/248/269 295/246/266 301/251/273
f 295/246/266 297/247/268 301/251/273
f 302/248/274 301/251/273 300/250/272
f 191/162/176 260/224/236 300/250/272
f 300/250/272 301/251/273 303/252/275
f 303/252/275 191/162/176 300/250/272
f 301/251/273 297/247/268 194/165/179
f 301/251/273 194/165/179 303/252/275
f 297/247/268 195/166/180 194/165/179
f 297/247/268 296/46/267 195/166/180
f 296/46/267 197/47/182 195/166/180
f 191/162/176 303/252/275 189/160/174
f 303/252/275 194/165/179 193/164/178
f 303/252/275 193/164/178 189/160/174
f 199/169/184 304/253/276 207/176/191
f 304/253/276 199/169/184 201/170/185
f 305/254/277 207/176/191 304/253/276
f 207/176/191 305/254/277 209/178/193
f 201/170/185 306/255/278 304/253/276
f 305/254/277 304/253/276 306/255/278
f 306/255/278 201/170/185 307/256/279
f 307/256/279 305/254/277 306/255/278
f 308/257/280 307/256/279 201/170/185
f 307/256/279 308/257/280 309/258/281
f 305/254/277 307/256/279 310/259/282
f 311/260/76 310/259/282 307/256/279
f 310/259/282 311/260/76 312/261/283
f 313/262/284 310/259/282 314/263/285
f 310/259/282 313/262/284 315/264/286
f 315/264/286 305/254/277 310/259/282
f 305/254/277 315/264/286 209/178/193
f 316/265/287 315/264/286 317/266/284
f 315/264/286 316/265/287 318/267/288
f 318/267/288 209/178/193 315/264/286
f 319/268/287 318/267/288 316/265/287
f 209/178/193 318/267/288 320/269/289
f 318/267/288 319/268/287 321/270/288
f 321/270/288 320/269/289 318/267/288
f 322/271/290 321/270/288 319/268/287
f 208/177/192 209/178/193 320/269/289
f 321/270/288 322/271/290 323/272/291
f 323/272/291 324/273/292 321/270/288
f 320/269/289 321/270/288 324/273/292
f 324/273/292 323/272/291 325/274/293
f 326/275/192 320/269/289 324/273/292
f 325/274/293 326/275/192 324/273/292
f 320/269/289 326/275/192 208/177/192
f 326/275/192 325/274/293 327/276/294
f 328/277/295 208/177/192 326/275/192
f 327/276/294 328/277/295 326/275/192
f 208/177/192 328/277/295 205/174/189
f 206/175/190 205/174/189 328/277/295
f 329/278/122 330/279/291 322/271/290
f 330/279/291 329/278/122 331/280/120
f 331/280/120 332/274/293 330/279/291
f 332/274/293 331/280/120 333/109/118
f 333/109/118 327/276/294 332/274/293
f 327/276/294 333/109/118 334/106/296
f 117/104/113 327/276/294 334/106/296
f 328/277/295 327/276/294 335/281/297
f 335/281/297 206/175/190 328/277/295
f 327/276/294 117/104/113 335/281/297
f 206/175/190 335/281/297 336/282/298
f 206/175/190 336/282/298 212/181/195
f 212/181/195 190/161/175 206/175/190
f 335/281/297 115/102/111 336/282/298
f 115/102/111 335/281/297 117/104/113
f 211/180/194 190/161/175 212/181/195
f 336/282/298 115/102/111 114/101/110
f 114/101/110 212/181/195 336/282/298
f 50/40/48 337/283/299 49/39/47
f 337/283/299 50/40/48 338/284/300
f 337/283/299 338/284/300 339/285/34
f 340/286/301 337/283/299 339/285/34
f 341/287/132 337/283/299 340/286/301
f 337/283/299 341/287/132 342/288/302
f 342/288/302 49/39/47 337/283/299
f 343/289/303 342/288/302 341/287/132
f 344/290/304 342/288/302 343/289/303
f 49/39/47 342/288/302 345/291/305
f 344/290/304 345/291/305 342/288/302
f 51/41/49 49/39/47 345/291/305
f 345/291/305 344/290/304 346/292/306
f 347/293/307 345/291/305 346/292/306
f 345/291/305 347/293/307 51/41/49
f 52/42/50 51/41/49 347/293/307
f 348/294/126 349/295/304 343/289/303
f 349/295/304 348/294/126 350/296/308
f 350/296/308 351/292/306 349/295/304
f 351/292/306 352/297/309 347/293/307
f 351/292/306 350/296/308 353/298/310
f 352/297/309 351/292/306 353/298/310
f 354/299/311 347/293/307 352/297/309
f 347/293/307 354/299/311 52/42/50
f 355/300/312 356/301/308 348/294/313
f 356/301/308 355/300/312 357/302/314
f 357/302/314 353/298/310 356/301/308
f 358/303/315 359/304/314 355/300/312
f 359/304/314 358/303/315 360/305/316
f 360/305/316 361/306/317 359/304/314
f 353/298/310 357/302/314 361/306/317
f 361/306/317 360/305/316 362/307/318
f 363/308/319 353/298/310 361/306/317
f 353/298/310 363/308/319 364/297/320
f 365/309/321 364/297/320 363/308/319
f 364/297/320 365/309/321 354/299/311
f 366/310/322 361/306/317 362/307/318
f 361/306/317 366/310/322 367/308/319
f 367/308/319 368/311/323 365/309/321
f 368/311/323 367/308/319 366/310/322
f 369/312/324 354/299/311 365/309/321
f 370/313/325 365/309/321 368/311/323
f 365/309/321 370/313/325 369/312/324
f 368/311/323 245/211/224 370/313/325
f 354/299/311 369/312/324 371/314/326
f 371/314/326 52/42/50 354/299/311
f 52/42/50 371/314/326 48/38/46
f 48/38/46 371/314/326 372/315/327
f 44/34/43 48/38/46 372/315/327
f 371/314/326 369/312/324 373/316/328
f 372/315/327 371/314/326 373/316/328
f 44/34/43 372/315/327 374/317/329
f 37/28/37 44/34/43 374/317/329
f 374/317/329 28/22/27 37/28/37
f 374/317/329 372/315/327 375/318/330
f 372/315/327 373/316/328 375/318/330
f 28/22/27 374/317/329 376/319/331
f 374/317/329 375/318/330 376/319/331
f 186/158/171 28/22/27 376/319/331
f 376/319/331 375/318/330 377/320/332
f 375/318/330 373/316/328 378/321/333
f 378/321/333 379/320/332 375/318/330
f 379/320/332 378/321/333 380/322/334
f 381/323/335 376/319/331 377/320/332
f 376/319/331 381/323/335 186/158/171
f 382/324/336 379/320/332 380/322/334
f 379/320/332 382/324/336 381/323/335
f 383/325/337 186/158/171 381/323/335
f 186/158/171 383/325/337 182/155/168
f 384/326/338 381/323/335 382/324/336
f 381/323/335 384/326/338 383/325/337
f 385/327/339 182/155/168 383/325/337
f 182/155/168 385/327/339 180/153/166
f 178/151/164 180/153/166 385/327/339
f 383/325/337 386/328/340 385/327/339
f 386/328/340 383/325/337 384/326/338
f 385/327/339 103/90/99 178/151/164
f 103/90/99 385/327/339 386/328/340
f 103/90/99 104/91/100 178/151/164
f 384/326/338 228/195/208 386/328/340
f 386/328/340 100/87/96 103/90/99
f 100/87/96 386/328/340 228/195/208
f 228/195/208 384/326/338 387/329/341
f 382/324/336 387/329/341 384/326/338
f 387/329/341 222/191/204 228/195/208
f 222/191/204 387/329/341 220/189/202
f 387/329/341 382/324/336 388/330/342
f 388/330/342 220/189/202 387/329/341
f 389/322/343 388/330/342 382/324/336
f 220/189/202 388/330/342 221/190/203
f 388/330/342 389/322/343 390/331/344
f 390/331/344 221/190/203 388/330/342
f 389/322/343 391/332/345 390/331/344
f 391/332/345 389/322/343 392/321/333
f 221/190/203 390/331/344 393/333/346
f 392/321/333 394/334/347 391/332/345
f 393/333/346 242/208/221 221/190/203
f 373/316/328 394/334/347 392/321/333
f 373/316/328 369/312/324 394/334/347
f 242/208/221 393/333/346 395/206/348
f 369/312/324 370/313/325 394/334/347
f 396/332/345 393/333/346 390/331/344
f 397/335/349 395/206/348 393/333/346
f 393/333/346 396/332/345 397/335/349
f 395/206/348 397/335/349 248/207/220
f 247/213/226 248/207/220 397/335/349
f 396/332/345 247/213/226 397/335/349
f 394/334/347 247/213/226 396/332/345
f 394/334/347 370/313/325 247/213/226
f 245/211/224 247/213/226 370/313/325
f 245/211/224 368/311/323 398/336/350
f 398/336/350 249/214/227 245/211/224
f 368/311/323 399/337/351 398/336/350
f 399/337/351 368/311/323 366/310/322
f 249/214/227 398/336/350 400/338/352
f 400/338/352 244/210/223 249/214/227
f 401/339/353 398/336/350 399/337/351
f 398/336/350 401/339/353 400/338/352
f 399/337/351 402/340/354 401/339/353
f 366/310/322 403/341/355 399/337/351
f 402/340/354 399/337/351 403/341/355
f 403/341/355 366/310/322 362/307/318
f 403/341/355 404/342/356 402/340/354
f 362/307/318 405/343/357 403/341/355
f 404/342/356 403/341/355 406/344/357
f 405/343/357 362/307/318 407/345/316
f 406/344/357 408/346/287 404/342/356
f 407/345/316 409/347/358 405/343/357
f 408/346/287 406/344/357 409/347/358
f 409/347/358 407/345/316 410/348/315
f 411/349/287 412/342/359 408/346/287
f 412/342/359 411/349/287 413/350/359
f 414/351/89 413/350/359 411/349/287
f 413/350/359 415/340/360 412/342/359
f 413/350/359 414/351/89 416/352/87
f 416/352/87 417/353/361 413/350/359
f 415/340/360 413/350/359 417/353/361
f 417/353/361 416/352/87 418/66/79
f 78/65/362 417/353/361 418/66/79
f 419/354/363 415/340/360 417/353/361
f 417/353/361 78/65/362 419/354/363
f 415/340/360 419/354/363 401/339/353
f 420/355/82 419/354/363 78/65/362
f 421/356/364 401/339/353 419/354/363
f 419/354/363 420/355/82 421/356/364
f 401/339/353 421/356/364 400/338/352
f 422/357/365 421/356/364 420/355/82
f 244/210/223 400/338/352 421/356/364
f 421/356/364 422/357/365 244/210/223
f 423/358/366 244/210/223 422/357/365
f 244/210/223 423/358/366 236/203/216
f 229/196/209 236/203/216 423/358/366
f 423/358/366 257/222/234 229/196/209
f 257/222/234 423/358/366 424/359/367
f 425/360/365 424/359/367 423/358/366
f 424/359/367 425/360/365 426/361/368
f 424/359/367 279/237/252 257/222/234
f 424/359/367 427/362/72 279/237/252
f 428/363/369 427/362/72 424/359/367
