# Blender 5.2.1 LTS
# www.blender.org
mtllib Skinny Right.mtl
o RenderMesh_140242362964055
v 1.896622 -0.028530 0.179583
v 1.887653 -0.011271 0.196635
v 1.890927 -0.030469 0.197062
v 1.885789 -0.045255 0.196176
v 1.890257 -0.046715 0.179583
v 1.887654 -0.011271 -0.144578
v 1.896622 -0.028530 -0.127525
v 1.890927 -0.030469 -0.145005
v 1.892558 -0.010023 -0.127525
v 1.740546 0.271834 -0.144578
v 1.726582 0.268276 -0.159035
v 1.714579 0.284235 -0.156768
v 1.707927 0.297038 -0.144119
v 1.704692 0.292184 -0.153252
v 1.710011 0.300166 -0.127525
v 1.725435 0.288017 -0.145005
v 1.731578 0.289092 -0.127525
v 1.745450 0.273083 -0.127525
v 1.681028 0.256671 0.224143
v 1.852784 -0.020145 0.220752
v 1.705681 0.262952 0.220752
v 0.506817 -0.042464 0.224143
v 0.498845 -0.024952 0.220752
v 1.672060 0.273930 0.220752
v 0.492085 -0.010106 0.211092
v 1.726582 0.268276 0.211092
v 1.714579 0.284235 0.208826
v 1.664457 0.288561 0.211092
v 1.659378 0.298337 0.196635
v 1.697106 0.280800 0.216658
v 1.689638 0.292378 0.208826
v 1.686802 0.300631 0.197062
v 1.684031 0.304617 0.179583
v 1.704692 0.292184 0.205310
v 1.707927 0.297038 0.196176
v 1.710011 0.300165 0.179583
v 1.710011 0.300166 -0.127525
v 1.731578 0.289092 -0.127525
v 1.731578 0.289092 0.179583
v 1.725435 0.288017 0.197062
v 1.745450 0.273083 0.179583
v 1.745450 0.273083 -0.127525
v 1.740546 0.271834 0.196635
v 1.726582 0.268276 0.211092
v 1.892558 -0.010023 0.179583
v 1.887653 -0.011271 0.196635
v 1.892558 -0.010023 -0.127525
v 1.896622 -0.028530 -0.127525
v 1.740546 0.271834 -0.144578
v 1.725435 0.288017 -0.145005
v 1.714579 0.284235 -0.156768
v 1.707927 0.297038 -0.144119
v 1.890258 -0.046715 -0.127525
v 1.885789 -0.045255 -0.144119
v 1.890927 -0.030469 -0.145005
v 1.878857 -0.042990 -0.153252
v 1.879137 -0.032452 -0.156769
v 1.873687 -0.014825 -0.159035
v 1.887654 -0.011271 -0.144578
v 1.726582 0.268276 -0.159035
v 1.725435 0.288017 0.197062
v 1.710011 0.300165 0.179583
v 1.707927 0.297038 0.196176
v 1.714579 0.284235 0.208826
v -1.867647 -0.106373 -0.153252
v -1.885106 -0.115255 -0.145005
v -1.873057 -0.102587 -0.144119
v -1.692781 -0.483321 0.179583
v -1.828067 -0.483321 -0.127525
v -1.062421 -0.483321 -0.127525
v -1.062421 -0.483321 0.179583
v -1.062421 -0.479668 0.196635
v -1.062421 -0.479668 -0.144578
v -1.048918 -0.479668 -0.144578
v -1.828067 -0.479668 -0.144578
v -1.048918 -0.469265 -0.159035
v -1.062421 -0.469265 -0.159035
v -0.404278 -0.469253 -0.159035
v -1.828067 -0.469265 -0.159035
v -0.404117 -0.479657 -0.144578
v -1.853595 -0.466825 -0.156769
v -1.048918 -0.483321 -0.127525
v -1.062421 -0.483321 0.179583
v -0.404060 -0.483309 -0.127525
v -1.048918 -0.483321 0.179583
v -1.854959 -0.475259 -0.145005
v -1.867647 -0.463039 -0.153252
v -1.873057 -0.466825 -0.144119
v -1.854302 -0.479668 -0.127525
v -1.876543 -0.469266 -0.127525
v -1.828067 -0.483321 0.091646
v -1.854302 -0.479668 0.093326
v -1.876543 -0.469266 -0.127525
v -1.817042 -0.483321 0.127674
v -1.876543 -0.469266 0.094750
v -1.841754 -0.479668 0.134327
v -1.891404 -0.453696 -0.127525
v -1.789470 -0.483321 0.154495
v -1.748207 -0.483321 0.172416
v -1.695365 -0.479668 0.196635
v -1.758443 -0.479668 0.188479
v -1.808385 -0.479668 0.166789
v -1.862705 -0.469266 0.139968
v -1.891404 -0.453696 0.095702
v -1.824420 -0.469266 0.177212
v -1.767121 -0.469266 0.202097
v -1.697555 -0.469265 0.211092
v -1.876704 -0.453696 0.143737
v -1.062421 -0.469265 0.211092
v -1.699019 -0.453696 0.220752
v -1.048918 -0.479668 0.196635
v -1.062421 -0.453696 0.220752
v -1.048918 -0.469265 0.211092
v -0.404117 -0.479657 0.196635
v -1.772920 -0.453696 0.211197
v -1.699533 -0.435332 0.224143
v -1.774956 -0.435332 0.214392
v -1.774956 -0.134079 0.214392
v -1.699533 -0.134079 0.224143
v -1.772920 -0.115715 0.211197
v -1.835134 -0.453696 0.184176
v -1.774956 -0.435332 0.214392
v -1.838896 -0.435332 0.186622
v -1.881620 -0.435332 0.145060
v -1.838896 -0.435332 0.186622
v -1.881620 -0.134079 0.145061
v -1.838896 -0.134079 0.186622
v -1.774956 -0.134079 0.214392
v -1.835134 -0.115715 0.184176
v -1.876704 -0.115715 0.143736
v -1.824420 -0.100146 0.177212
v -1.767121 -0.100146 0.202097
v -1.862705 -0.100146 0.139968
v -1.808385 -0.089744 0.166789
v -1.699019 -0.115715 0.220752
v -1.697555 -0.100146 0.211092
v -1.891404 -0.115715 0.095701
v -1.758443 -0.089744 0.188479
v -1.789470 -0.086091 0.154495
v -1.695365 -0.089744 0.196635
v -1.817042 -0.086091 0.127674
v -1.748207 -0.086091 0.172416
v -1.841755 -0.089744 0.134327
v -1.876543 -0.100146 0.094750
v -1.854302 -0.089744 0.093326
v -1.692781 -0.086091 0.179583
v -1.828067 -0.086091 0.091646
v -1.876543 -0.100147 -0.127525
v -1.891404 -0.115715 -0.127525
v -1.854302 -0.089744 -0.127525
v -1.873057 -0.102587 -0.144119
v -1.876543 -0.100147 -0.127525
v -1.828067 -0.086091 -0.127525
v -1.885106 -0.115255 -0.145005
v -1.854959 -0.094153 -0.145005
v -1.867647 -0.106373 -0.153252
v -1.828067 -0.089743 -0.144578
v -1.853595 -0.102586 -0.156769
v -1.828067 -0.100146 -0.159035
v -1.873057 -0.116210 -0.156769
v -1.891404 -0.134079 -0.144578
v -1.876543 -0.134079 -0.159035
v -1.876543 -0.435332 -0.159035
v -1.896622 -0.134079 -0.127525
v -1.891404 -0.435332 -0.144578
v -1.873057 -0.453201 -0.156769
v -1.885106 -0.454157 -0.145005
v -1.867647 -0.463039 -0.153252
v -1.873057 -0.466825 -0.144119
v -1.876543 -0.469266 -0.127525
v -1.896622 -0.435332 -0.127525
v -1.896622 -0.435332 0.096036
v -1.881620 -0.435332 0.145060
v -1.896622 -0.134079 0.096036
v -1.881620 -0.134079 0.145061
v 0.380379 -0.428656 -0.127525
v 0.173526 -0.456718 0.179583
v 0.173526 -0.456718 -0.127525
v 0.380379 -0.428656 0.179582
v 0.379189 -0.425096 -0.144578
v 0.172752 -0.453101 -0.144578
v 0.375799 -0.414960 -0.159035
v 0.170549 -0.442804 -0.159035
v 0.658297 -0.375177 -0.127525
v 0.656711 -0.371694 -0.144578
v 0.379189 -0.425096 -0.144578
v 0.652195 -0.361774 -0.159035
v 0.375799 -0.414960 -0.159035
v 0.658297 -0.375177 0.179582
v 0.656711 -0.371694 0.196635
v 1.849778 -0.068085 0.196635
v 1.851562 -0.071517 -0.127525
v 1.851562 -0.071517 0.179583
v 1.872900 -0.057510 0.197062
v 1.849779 -0.068085 -0.144578
v 0.656711 -0.371694 -0.144578
v 1.844699 -0.058308 -0.159035
v 0.652195 -0.361774 -0.159035
v 1.867499 -0.049910 -0.156769
v 1.872900 -0.057510 -0.145005
v 1.885789 -0.045255 -0.144119
v 1.878857 -0.042990 -0.153252
v 1.890258 -0.046715 -0.127525
v 1.874434 -0.061810 -0.127525
v 1.874434 -0.061810 0.179583
v 1.890258 -0.046715 -0.127525
v 1.890257 -0.046715 0.179583
v 1.885789 -0.045255 0.196176
v 1.896622 -0.028530 0.179583
v 1.867498 -0.049910 0.208826
v 1.878857 -0.042990 0.205310
v 1.890927 -0.030469 0.197062
v 1.862595 -0.037679 0.216658
v 1.879137 -0.032452 0.208826
v 1.873687 -0.014826 0.211092
v 1.837096 -0.043678 0.220752
v 1.844699 -0.058308 0.211092
v 1.873687 -0.014826 0.211092
v 1.828128 -0.026419 0.224143
v 0.637464 -0.329418 0.224143
v -0.126439 -0.464858 0.211092
v 0.167253 -0.427394 0.220752
v -0.127855 -0.449307 0.220752
v -0.125492 -0.475248 0.196635
v 0.163363 -0.409216 0.224143
v -0.129527 -0.430965 0.224143
v 0.170549 -0.442804 0.211092
v -0.404060 -0.483309 0.179583
v -0.125159 -0.478897 0.179583
v -0.125159 -0.478897 -0.127525
v -0.125492 -0.475248 -0.144578
v -0.404117 -0.479657 -0.144578
v -0.126439 -0.464858 -0.159035
v -0.404278 -0.469253 -0.159035
v 0.172753 -0.453101 0.196635
v 0.375800 -0.414960 0.211092
v -0.125159 -0.478897 -0.127525
v 0.173526 -0.456718 -0.127525
v 0.172752 -0.453101 -0.144578
v -0.125492 -0.475248 -0.144578
v 0.170549 -0.442804 -0.159035
v -0.126439 -0.464858 -0.159035
v 0.379189 -0.425096 0.196635
v 0.370727 -0.399791 0.220751
v 0.652195 -0.361775 0.211092
v 0.645436 -0.346930 0.220751
v 1.844699 -0.058308 0.211092
v 0.364743 -0.381896 0.224143
v 0.506817 -0.042464 0.224143
v 0.099638 -0.111374 0.224143
v -0.156916 -0.130408 0.224143
v 0.266680 -0.088641 0.224143
v 0.095748 -0.093194 0.220752
v -0.158587 -0.112063 0.220752
v 0.092451 -0.077782 0.211092
v 0.260696 -0.070747 0.220752
v -0.160005 -0.096512 0.211092
v 0.255623 -0.055576 0.211092
v -1.048918 -0.435332 0.224143
v -1.048918 -0.134079 0.224143
v -1.062421 -0.134079 0.224143
v -1.062421 -0.435332 0.224143
v -1.699533 -0.134079 0.224143
v -1.699533 -0.435332 0.224143
v -1.062421 -0.115715 0.220752
v -1.048918 -0.453696 0.220752
v -1.062421 -0.100146 0.211092
v -1.062421 -0.089744 0.196635
v -1.048918 -0.115715 0.220752
v -1.048918 -0.100146 0.211092
v -1.048918 -0.089744 0.196635
v -0.410178 -0.089755 0.196635
v -0.410235 -0.086103 0.179583
v -0.410017 -0.100158 0.211092
v -0.409774 -0.115727 0.220752
v -0.409489 -0.134090 0.224143
v -0.404806 -0.435320 0.224143
v -0.156916 -0.130408 0.224143
v -0.129527 -0.430965 0.224143
v -0.404521 -0.453684 0.220752
v -0.404278 -0.469254 0.211092
v 0.090248 -0.067485 0.196635
v 0.252234 -0.045440 0.196635
v 0.487569 -0.000187 0.196635
v -0.160952 -0.086121 0.196635
v 0.089474 -0.063868 0.179583
v -0.161284 -0.082472 0.179583
v -0.161284 -0.082472 -0.127525
v -0.410235 -0.086103 -0.127525
v -0.410178 -0.089755 -0.144578
v -0.160952 -0.086121 -0.144578
v -0.161284 -0.082472 -0.127525
v -0.410017 -0.100158 -0.159035
v 0.089474 -0.063868 -0.127525
v 0.090248 -0.067485 -0.144578
v -0.160005 -0.096512 -0.159035
v -0.409774 -0.115727 -0.168694
v 0.092451 -0.077782 -0.159035
v -0.158588 -0.112063 -0.168694
v -0.409489 -0.134090 -0.172086
v -1.048918 -0.134079 -0.172086
v -1.048918 -0.435331 -0.172086
v -0.156916 -0.130407 -0.172086
v -0.404806 -0.435320 -0.172086
v -1.048918 -0.453696 -0.168694
v -0.404521 -0.453684 -0.168694
v -0.129527 -0.430965 -0.172086
v -0.127856 -0.449307 -0.168694
v -0.404278 -0.469253 -0.159035
v -0.126439 -0.464858 -0.159035
v 0.163363 -0.409215 -0.172087
v 0.099638 -0.111373 -0.172086
v -0.156916 -0.130407 -0.172086
v 0.095748 -0.093194 -0.168694
v 0.167252 -0.427394 -0.168694
v -0.126439 -0.464858 -0.159035
v 0.170549 -0.442804 -0.159035
v 0.370727 -0.399790 -0.168694
v 0.375799 -0.414960 -0.159035
v 0.170549 -0.442804 -0.159035
v 0.364743 -0.381896 -0.172086
v 0.099638 -0.111373 -0.172086
v 0.266680 -0.088641 -0.172086
v 0.260696 -0.070746 -0.168694
v 0.255623 -0.055576 -0.159035
v 0.252234 -0.045440 -0.144578
v 0.251043 -0.041881 -0.127525
v 0.089474 -0.063868 -0.127525
v 0.251043 -0.041881 0.179583
v 0.485983 0.003297 0.179583
v 0.485983 0.003297 -0.127525
v 0.251043 -0.041881 -0.127525
v 0.487569 -0.000187 -0.144578
v 1.657594 0.301770 -0.127525
v 1.657594 0.301770 0.179583
v 0.492085 -0.010106 -0.159035
v 1.659378 0.298337 -0.144578
v 1.684031 0.304617 -0.127525
v 1.664457 0.288561 -0.159035
v 1.686802 0.300631 -0.145005
v 1.672060 0.273930 -0.168694
v 1.707927 0.297038 -0.144119
v 1.704692 0.292184 -0.153252
v 1.689638 0.292378 -0.156768
v 1.664457 0.288561 -0.159035
v 1.697106 0.280800 -0.164601
v 1.714579 0.284235 -0.156768
v 1.705681 0.262952 -0.168694
v 1.726582 0.268276 -0.159035
v 1.873687 -0.014825 -0.159035
v 1.852785 -0.020144 -0.168694
v 1.879137 -0.032452 -0.156769
v 1.681028 0.256671 -0.172086
v 0.498845 -0.024952 -0.168694
v 0.266680 -0.088641 -0.172086
v 0.506817 -0.042464 -0.172086
v 1.828128 -0.026419 -0.172086
v 0.637464 -0.329418 -0.172086
v 0.370727 -0.399790 -0.168694
v 1.837096 -0.043678 -0.168694
v 0.645436 -0.346930 -0.168694
v 0.375799 -0.414960 -0.159035
v 0.652195 -0.361774 -0.159035
v 1.844699 -0.058308 -0.159035
v 0.652195 -0.361774 -0.159035
v 1.867499 -0.049910 -0.156769
v 1.862595 -0.037678 -0.164601
v 1.878857 -0.042990 -0.153252
v -1.048918 -0.086091 0.179583
v -1.062421 -0.086091 -0.127525
v -1.062421 -0.086091 0.179583
v -1.048918 -0.086091 -0.127525
v -1.062421 -0.089743 -0.144578
v -1.062421 -0.086091 0.179583
v -1.062421 -0.100146 -0.159035
v -1.828067 -0.100146 -0.159035
v -1.048918 -0.089743 -0.144578
v -0.410235 -0.086103 -0.127525
v -1.048918 -0.086091 0.179583
v -1.828067 -0.115715 -0.168694
v -1.048918 -0.100146 -0.159035
v -1.048918 -0.115715 -0.168694
v -1.062421 -0.115715 -0.168694
v -1.062421 -0.134079 -0.172086
v -1.048918 -0.435331 -0.172086
v -1.062421 -0.435332 -0.172086
v -1.828067 -0.134079 -0.172086
v -1.062421 -0.435332 -0.172086
v -1.062421 -0.453696 -0.168694
v -1.048918 -0.469265 -0.159035
v -1.062421 -0.469265 -0.159035
v -0.404278 -0.469253 -0.159035
v -1.828067 -0.435332 -0.172086
v -1.062421 -0.453696 -0.168694
v -1.828067 -0.469265 -0.159035
v -1.854302 -0.134079 -0.168694
v -1.828067 -0.453696 -0.168694
v -1.853595 -0.466825 -0.156769
v -1.854302 -0.435332 -0.168694
v -1.854959 -0.454157 -0.164601
v -1.867647 -0.463039 -0.153252
v -1.873057 -0.453201 -0.156769
v -1.876543 -0.435332 -0.159035
v -1.876543 -0.134079 -0.159035
v -1.873057 -0.116210 -0.156769
v -1.854959 -0.115255 -0.164601
v -1.853595 -0.102586 -0.156769
v -1.828067 -0.100146 -0.159035
vn 0.9870 -0.0596 0.1492
vn 0.8043 0.2845 0.5217
vn 0.8523 -0.0692 0.5184
vn 0.7437 -0.4953 0.4490
vn 0.8249 -0.5503 0.1293
vn 0.8043 0.2846 -0.5217
vn 0.9870 -0.0595 -0.1493
vn 0.8523 -0.0691 -0.5185
vn 0.9300 0.3360 -0.1494
vn 0.7108 0.4963 -0.4984
vn 0.4712 0.3500 -0.8096
vn 0.3696 0.5602 -0.7414
vn 0.2882 0.8820 -0.3728
vn 0.3696 0.5602 -0.7413
vn 0.2424 0.7428 -0.6241
vn 0.3087 0.9455 -0.1037
vn 0.5347 0.7179 -0.4457
vn 0.6039 0.7874 -0.1236
vn 0.8148 0.5623 -0.1409
vn 0.0391 0.1193 0.9921
vn 0.2653 0.0363 0.9635
vn 0.2172 0.2132 0.9526
vn -0.0186 0.0847 0.9962
vn -0.0758 0.3393 0.9376
vn -0.0244 0.3657 0.9304
vn -0.1458 0.6527 0.7434
vn 0.4711 0.3500 0.8097
vn 0.3696 0.5602 0.7414
vn -0.1044 0.6713 0.7338
vn -0.1556 0.8994 0.4084
vn 0.1471 0.4503 0.8807
vn 0.0584 0.7169 0.6947
vn 0.0369 0.9194 0.3915
vn 0.0291 0.9940 0.1053
vn 0.2424 0.7427 0.6242
vn 0.2881 0.8820 0.3728
vn 0.3087 0.9455 0.1037
vn 0.6039 0.7874 -0.1235
vn 0.6039 0.7874 0.1236
vn 0.5347 0.7179 0.4457
vn 0.8149 0.5623 0.1405
vn 0.3696 0.5601 0.7414
vn 0.7108 0.4964 0.4983
vn 0.4712 0.3500 0.8096
vn 0.9300 0.3360 0.1493
vn 0.8042 0.2846 0.5217
vn 0.9300 0.3360 -0.1493
vn 0.9870 -0.0596 -0.1492
vn 0.7108 0.4964 -0.4983
vn 0.5347 0.7179 -0.4458
vn 0.9870 -0.0596 -0.1493
vn 0.8249 -0.5503 -0.1293
vn 0.7437 -0.4953 -0.4490
vn 0.8523 -0.0692 -0.5185
vn 0.5887 -0.3927 -0.7066
vn 0.5827 -0.0975 -0.8068
vn 0.5315 0.1692 -0.8300
vn 0.8042 0.2845 -0.5218
vn 0.2882 0.8820 0.3728
vn -0.4299 0.6145 -0.6615
vn -0.7423 0.4561 -0.4909
vn -0.5245 0.7486 -0.4056
vn -0.0071 -0.9938 0.1109
vn -0.0704 -0.9916 -0.1085
vn -0.0003 -0.9945 -0.1051
vn -0.0002 -0.9944 0.1052
vn -0.0000 -0.9133 0.4074
vn -0.0000 -0.9133 -0.4074
vn -0.0683 -0.9120 -0.4044
vn -0.0002 -0.6803 -0.7329
vn 0.0057 -0.6808 -0.7324
vn -0.0619 -0.6795 -0.7310
vn 0.0072 -0.9137 -0.4064
vn -0.2327 -0.6617 -0.7128
vn 0.0079 -0.9944 -0.1054
vn -0.0000 -0.9944 0.1055
vn -0.2633 -0.8755 -0.4053
vn -0.4300 -0.6142 -0.6617
vn -0.5242 -0.7489 -0.4054
vn -0.2756 -0.9550 -0.1094
vn -0.5697 -0.8138 -0.1144
vn -0.0724 -0.9973 0.0110
vn -0.2839 -0.9579 0.0430
vn -0.0701 -0.9965 0.0446
vn -0.5745 -0.8139 0.0868
vn -0.2656 -0.9491 0.1692
vn -0.8533 -0.5023 -0.1400
vn -0.0535 -0.9952 0.0824
vn -0.0289 -0.9938 0.1075
vn -0.0266 -0.9095 0.4148
vn -0.1059 -0.9132 0.3935
vn -0.1993 -0.9307 0.3067
vn -0.5183 -0.7888 0.3303
vn -0.8543 -0.5033 0.1299
vn -0.3696 -0.7349 0.5686
vn -0.1879 -0.6905 0.6985
vn -0.0468 -0.6766 0.7349
vn -0.7433 -0.4726 0.4735
vn -0.0002 -0.6803 0.7329
vn -0.0598 -0.3568 0.9323
vn -0.0000 -0.3590 0.9333
vn 0.0072 -0.9137 0.4063
vn -0.2417 -0.3707 0.8967
vn -0.0636 -0.0908 0.9938
vn -0.2586 -0.0956 0.9613
vn -0.2585 0.0961 0.9612
vn -0.0636 0.0913 0.9938
vn -0.2415 0.3704 0.8969
vn -0.4963 -0.4126 0.7638
vn -0.2586 -0.0956 0.9612
vn -0.5417 -0.1083 0.8336
vn -0.8364 -0.1280 0.5330
vn -0.5417 -0.1083 0.8335
vn -0.8363 0.1286 0.5329
vn -0.5418 0.1085 0.8335
vn -0.2586 0.0961 0.9612
vn -0.4965 0.4122 0.7639
vn -0.7434 0.4725 0.4734
vn -0.3697 0.7347 0.5688
vn -0.1879 0.6904 0.6986
vn -0.5185 0.7886 0.3304
vn -0.1990 0.9309 0.3064
vn -0.0597 0.3572 0.9321
vn -0.0470 0.6769 0.7346
vn -0.8540 0.5039 0.1299
vn -0.1059 0.9133 0.3932
vn -0.0535 0.9952 0.0824
vn -0.0266 0.9095 0.4148
vn -0.0701 0.9965 0.0446
vn -0.0289 0.9938 0.1075
vn -0.2656 0.9491 0.1692
vn -0.5743 0.8140 0.0870
vn -0.2839 0.9579 0.0430
vn -0.0071 0.9938 0.1109
vn -0.0724 0.9973 0.0110
vn -0.5700 0.8137 -0.1144
vn -0.8533 0.5023 -0.1400
vn -0.2758 0.9550 -0.1093
vn -0.5244 0.7487 -0.4056
vn -0.5700 0.8136 -0.1144
vn -0.0705 0.9916 -0.1086
vn -0.7423 0.4561 -0.4908
vn -0.2632 0.8756 -0.4051
vn -0.4298 0.6146 -0.6615
vn -0.0685 0.9120 -0.4044
vn -0.2328 0.6614 -0.7130
vn -0.0620 0.6793 -0.7312
vn -0.5076 0.3637 -0.7811
vn -0.8377 0.1276 -0.5310
vn -0.5426 0.1014 -0.8338
vn -0.5427 -0.1008 -0.8339
vn -0.9781 0.1411 -0.1530
vn -0.8379 -0.1279 -0.5307
vn -0.5075 -0.3641 -0.7809
vn -0.7425 -0.4556 -0.4910
vn -0.5243 -0.7488 -0.4054
vn -0.5698 -0.8138 -0.1144
vn -0.9780 -0.1418 -0.1531
vn -0.9792 -0.1382 0.1484
vn -0.8364 -0.1280 0.5329
vn -0.9791 0.1385 0.1488
vn -0.8364 0.1286 0.5329
vn 0.1604 -0.9813 -0.1066
vn 0.1036 -0.9890 0.1059
vn 0.1038 -0.9890 -0.1057
vn 0.1604 -0.9813 0.1066
vn 0.1476 -0.9000 -0.4101
vn 0.0951 -0.9083 -0.4073
vn 0.1093 -0.6692 -0.7350
vn 0.0708 -0.6771 -0.7325
vn 0.2163 -0.9704 -0.1075
vn 0.1983 -0.8885 -0.4138
vn 0.1475 -0.9000 -0.4101
vn 0.1469 -0.6581 -0.7385
vn 0.2164 -0.9703 0.1078
vn 0.1982 -0.8884 0.4140
vn 0.2937 -0.8580 0.4213
vn 0.3181 -0.9412 -0.1136
vn 0.3181 -0.9412 0.1136
vn 0.4942 -0.7508 0.4384
vn 0.2937 -0.8580 -0.4213
vn 0.2259 -0.6231 -0.7488
vn 0.3955 -0.5331 -0.7479
vn 0.4942 -0.7507 -0.4384
vn 0.7436 -0.4953 -0.4491
vn 0.5886 -0.3927 -0.7066
vn 0.5342 -0.8368 -0.1198
vn 0.5342 -0.8368 0.1198
vn 0.7436 -0.4953 0.4491
vn 0.3955 -0.5331 0.7479
vn 0.5887 -0.3927 0.7066
vn 0.8523 -0.0691 0.5185
vn 0.3287 -0.2196 0.9185
vn 0.5827 -0.0975 0.8068
vn 0.5315 0.1691 0.8300
vn 0.8042 0.2845 0.5218
vn 0.1471 -0.3065 0.9404
vn 0.2259 -0.6230 0.7489
vn 0.0843 -0.0556 0.9949
vn 0.0201 -0.0888 0.9958
vn 0.0307 -0.6817 0.7309
vn 0.0376 -0.3593 0.9325
vn 0.0165 -0.3625 0.9319
vn 0.0410 -0.9129 0.4061
vn 0.0099 -0.0924 0.9957
vn 0.0042 -0.0933 0.9956
vn 0.0706 -0.6771 0.7325
vn 0.0079 -0.9944 0.1054
vn 0.0447 -0.9934 0.1054
vn 0.0447 -0.9934 -0.1053
vn 0.0409 -0.9130 -0.4059
vn 0.0306 -0.6820 -0.7307
vn 0.0951 -0.9083 0.4073
vn 0.1095 -0.6688 0.7353
vn 0.1037 -0.9890 -0.1057
vn 0.1476 -0.9001 0.4100
vn 0.0579 -0.3537 0.9335
vn 0.1468 -0.6580 0.7386
vn 0.0773 -0.3468 0.9348
vn 0.2258 -0.6231 0.7489
vn 0.0149 -0.0908 0.9958
vn -0.0185 0.0848 0.9962
vn -0.0092 0.0875 0.9961
vn -0.0040 0.0884 0.9961
vn -0.0142 0.0865 0.9962
vn -0.0366 0.3505 0.9359
vn -0.0155 0.3539 0.9351
vn -0.0705 0.6716 0.7376
vn -0.0567 0.3461 0.9365
vn -0.0300 0.6764 0.7360
vn -0.1090 0.6638 0.7400
vn -0.0002 -0.0914 0.9958
vn -0.0000 0.0911 0.9958
vn -0.0001 -0.0913 0.9958
vn -0.0000 0.3590 0.9333
vn -0.0001 0.6802 0.7330
vn -0.0000 0.9133 0.4074
vn -0.0000 0.6805 0.7328
vn -0.0069 0.9132 0.4075
vn -0.0070 0.9944 0.1052
vn -0.0048 0.6801 0.7331
vn -0.0027 0.3582 0.9337
vn -0.0008 0.0902 0.9959
vn 0.0005 -0.0915 0.9958
vn 0.0030 -0.3597 0.9331
vn 0.0056 -0.6809 0.7324
vn -0.0949 0.9065 0.4114
vn -0.1473 0.8983 0.4139
vn -0.1979 0.8868 0.4178
vn -0.0404 0.9112 0.4100
vn -0.1035 0.9889 0.1068
vn -0.0438 0.9934 0.1065
vn -0.0438 0.9934 -0.1064
vn -0.0070 0.9944 -0.1052
vn -0.0070 0.9132 -0.4074
vn -0.0404 0.9112 -0.4100
vn -0.0048 0.6801 -0.7331
vn -0.1035 0.9889 -0.1068
vn -0.0949 0.9065 -0.4114
vn -0.0300 0.6764 -0.7360
vn -0.0027 0.3582 -0.9337
vn -0.0705 0.6716 -0.7376
vn -0.0155 0.3539 -0.9351
vn -0.0009 0.0901 -0.9959
vn -0.0000 0.0911 -0.9958
vn -0.0001 -0.0913 -0.9958
vn -0.0040 0.0884 -0.9961
vn 0.0005 -0.0915 -0.9958
vn -0.0000 -0.3590 -0.9333
vn 0.0030 -0.3597 -0.9331
vn 0.0042 -0.0932 -0.9956
vn 0.0165 -0.3625 -0.9319
vn 0.0057 -0.6808 -0.7325
vn 0.0097 -0.0924 -0.9957
vn -0.0090 0.0875 -0.9961
vn -0.0366 0.3505 -0.9359
vn 0.0376 -0.3593 -0.9324
vn 0.0580 -0.3539 -0.9335
vn 0.1093 -0.6691 -0.7351
vn 0.0150 -0.0906 -0.9958
vn -0.0091 0.0875 -0.9961
vn -0.0141 0.0866 -0.9961
vn -0.0564 0.3462 -0.9365
vn -0.1088 0.6639 -0.7398
vn -0.1473 0.8983 -0.4140
vn -0.1609 0.9811 -0.1077
vn -0.1608 0.9811 0.1072
vn -0.2165 0.9703 0.1084
vn -0.2165 0.9703 -0.1084
vn -0.1979 0.8867 -0.4178
vn -0.1736 0.9787 -0.1100
vn -0.1736 0.9787 0.1100
vn -0.1459 0.6527 -0.7434
vn -0.1556 0.8994 -0.4084
vn 0.0290 0.9940 -0.1052
vn -0.1044 0.6713 -0.7338
vn 0.0369 0.9194 -0.3915
vn -0.0246 0.3660 -0.9303
vn 0.2881 0.8820 -0.3728
vn 0.0584 0.7169 -0.6947
vn 0.1471 0.4503 -0.8807
vn 0.3696 0.5601 -0.7414
vn 0.2172 0.2132 -0.9526
vn 0.4711 0.3499 -0.8097
vn 0.5314 0.1691 -0.8301
vn 0.2653 0.0363 -0.9635
vn 0.0391 0.1193 -0.9921
vn -0.0756 0.3389 -0.9378
vn -0.0141 0.0865 -0.9961
vn -0.0186 0.0847 -0.9962
vn 0.0843 -0.0556 -0.9949
vn 0.0200 -0.0888 -0.9958
vn 0.1470 -0.3065 -0.9404
vn 0.0773 -0.3468 -0.9348
vn 0.1469 -0.6580 -0.7385
vn 0.2258 -0.6230 -0.7489
vn 0.1469 -0.6580 -0.7386
vn 0.3287 -0.2196 -0.9185
vn -0.0000 0.9944 0.1055
vn -0.0003 0.9945 -0.1052
vn -0.0002 0.9944 0.1053
vn -0.0002 0.9944 -0.1053
vn -0.0000 0.9133 -0.4074
vn -0.0002 0.6801 -0.7331
vn -0.0619 0.6793 -0.7313
vn -0.0646 0.3566 -0.9320
vn -0.0000 0.3590 -0.9333
vn -0.0002 -0.0914 -0.9958
vn -0.0655 0.0932 -0.9935
vn -0.0002 -0.6803 -0.7330
vn -0.0656 -0.0936 -0.9934
vn -0.0619 -0.6795 -0.7311
vn -0.2575 0.0952 -0.9616
vn -0.0646 -0.3566 -0.9320
vn -0.2327 -0.6616 -0.7128
vn -0.2575 -0.0952 -0.9616
vn -0.2510 -0.3585 -0.8991
vn -0.4300 -0.6142 -0.6618
vn -0.5075 -0.3641 -0.7810
vn -0.5426 -0.1008 -0.8339
vn -0.5426 0.1014 -0.8339
vn -0.2510 0.3590 -0.8990
vn -0.4298 0.6145 -0.6615
vn -0.0620 0.6793 -0.7313
vt 1.000000 0.249715
vt 1.000000 0.271997
vt 1.000000 0.258285
vt 1.000000 0.232354
vt 1.000000 0.221884
vt 1.000000 0.098814
vt 1.000000 0.074864
vt 1.000000 0.065137
vt 1.000000 0.106013
vt 1.000000 0.651186
vt 1.000000 0.659389
vt 1.000000 0.693127
vt 1.000000 0.732354
vt 0.999082 0.750295
vt 1.000000 0.721884
vt 1.000000 0.684862
vt 1.000000 0.675136
vt 1.000000 0.643987
vt 0.993516 0.469795
vt 0.996025 0.280204
vt 0.996000 0.469796
vt 0.875000 0.469773
vt 0.875000 0.481340
vt 0.993508 0.481353
vt 0.875000 0.500000
vt 1.000000 0.469796
vt 1.000000 0.481042
vt 0.993485 0.500000
vt 0.993485 0.517356
vt 0.996058 0.481644
vt 0.995911 0.500000
vt 0.996040 0.517087
vt 0.995978 0.528116
vt 0.999082 0.499705
vt 1.000000 0.517646
vt 1.000000 0.528116
vt 1.000000 0.500285
vt 1.000000 0.491715
vt 1.000000 0.485204
vt 1.000000 0.478003
vt 1.000000 0.264796
vt 1.000000 0.028116
vt 1.000000 0.017646
vt 1.000000 0.038301
vt 1.000000 0.056872
vt 1.000000 0.090611
vt 0.001447 0.733274
vt 0.000000 0.683712
vt 0.000000 0.732354
vt 0.030067 0.223781
vt 0.010241 0.028206
vt 0.125000 0.028116
vt 0.125000 0.221884
vt 0.125000 0.232644
vt 0.125000 0.017356
vt 0.250000 0.017356
vt 0.010251 0.017418
vt 0.250000 0.000000
vt 0.125000 0.000000
vt 0.374958 0.000000
vt 0.010273 0.000000
vt 0.374989 0.017356
vt 0.006447 0.000000
vt 0.250000 0.028116
vt 0.375000 0.028116
vt 0.250000 0.221884
vt 0.006226 0.017134
vt 0.004342 0.000000
vt 0.000000 0.017646
vt 0.006319 0.028181
vt 0.000000 0.028116
vt 0.009585 0.167698
vt 0.005844 0.168222
vt 0.010329 0.192455
vt 0.000010 0.169163
vt 0.006470 0.196284
vt 0.000000 0.076378
vt 0.013899 0.211958
vt 0.021022 0.221744
vt 0.029878 0.234013
vt 0.019624 0.232302
vt 0.010160 0.222193
vt 0.000785 0.200390
vt 0.000003 0.199905
vt 0.003226 0.241169
vt 0.018126 0.247851
vt 0.029536 0.249974
vt 0.000759 0.226248
vt 0.125000 0.250000
vt 0.029533 0.268639
vt 0.250000 0.232644
vt 0.125000 0.268644
vt 0.250000 0.250000
vt 0.375008 0.232644
vt 0.018204 0.266879
vt 0.029533 0.280202
vt 0.018231 0.278647
vt 0.018231 0.471353
vt 0.029533 0.469798
vt 0.018204 0.483121
vt 0.002972 0.261739
vt 0.002883 0.274218
vt 0.000749 0.242361
vt 0.000749 0.507639
vt 0.002883 0.475783
vt 0.002972 0.488261
vt 0.000759 0.523752
vt 0.003226 0.508831
vt 0.018126 0.502149
vt 0.000785 0.549610
vt 0.010160 0.527807
vt 0.029533 0.481361
vt 0.029536 0.500026
vt 0.000003 0.550096
vt 0.019624 0.517698
vt 0.013899 0.538042
vt 0.029878 0.515987
vt 0.010329 0.557545
vt 0.021022 0.528256
vt 0.006470 0.553716
vt 0.000010 0.580837
vt 0.005844 0.581778
vt 0.030067 0.526219
vt 0.009585 0.582302
vt 0.000000 0.721884
vt 0.000000 0.673622
vt 0.006319 0.721819
vt 0.010241 0.721794
vt 0.006226 0.732866
vt 0.010251 0.732582
vt 0.006447 0.750000
vt 0.010273 0.750000
vt 0.000000 0.693133
vt 0.000000 0.649869
vt 0.000000 0.659394
vt 0.000000 0.090607
vt 0.000000 0.642141
vt 0.000000 0.100132
vt 0.000000 0.056868
vt 0.000000 0.066289
vt 0.000000 0.011883
vt 0.000000 0.107859
vt 0.000000 0.218903
vt 0.000000 0.531098
vt 0.750000 0.028116
vt 0.625000 0.221884
vt 0.625000 0.028116
vt 0.750000 0.221884
vt 0.749881 0.017356
vt 0.625132 0.017356
vt 0.749541 0.000000
vt 0.625510 0.000000
vt 0.875000 0.028116
vt 0.874909 0.017356
vt 0.750087 0.017356
vt 0.874649 0.000000
vt 0.750334 0.000000
vt 0.875000 0.221884
vt 0.874964 0.232644
vt 0.993596 0.232644
vt 0.993596 0.028116
vt 0.993596 0.221884
vt 0.996108 0.232913
vt 0.993596 0.017356
vt 0.875020 0.017356
vt 0.993596 0.000000
vt 0.875075 0.000000
vt 0.995981 0.000000
vt 0.996108 0.017087
vt 1.000000 0.011883
vt 0.996047 0.028116
vt 0.996047 0.221884
vt 0.995981 0.250000
vt 0.999098 0.250295
vt 0.996091 0.268356
vt 1.000000 0.268958
vt 1.000000 0.280204
vt 0.993574 0.268646
vt 0.993596 0.250000
vt 0.993566 0.280205
vt 0.875000 0.280226
vt 0.499990 0.250000
vt 0.625000 0.268661
vt 0.500000 0.268660
vt 0.499997 0.232644
vt 0.625000 0.280229
vt 0.500000 0.280228
vt 0.625075 0.250000
vt 0.375000 0.221884
vt 0.500000 0.221884
vt 0.500000 0.028116
vt 0.499904 0.017356
vt 0.375027 0.017356
vt 0.499630 0.000000
vt 0.375105 0.000000
vt 0.625020 0.232644
vt 0.749938 0.250000
vt 0.624907 0.017356
vt 0.500091 0.017356
vt 0.624641 0.000000
vt 0.500351 0.000000
vt 0.749984 0.232644
vt 0.750000 0.268658
vt 0.874862 0.250000
vt 0.875000 0.268659
vt 0.750000 0.280224
vt 0.625000 0.469769
vt 0.500000 0.469770
vt 0.750000 0.469776
vt 0.625000 0.481338
vt 0.500000 0.481339
vt 0.625000 0.500000
vt 0.750000 0.481342
vt 0.500000 0.500000
vt 0.750000 0.500000
vt 0.250000 0.280203
vt 0.250000 0.469798
vt 0.125000 0.469798
vt 0.125000 0.280202
vt 0.125000 0.481356
vt 0.250000 0.268644
vt 0.125000 0.500000
vt 0.125000 0.517356
vt 0.250000 0.481356
vt 0.250000 0.500000
vt 0.250000 0.517356
vt 0.374992 0.517356
vt 0.375000 0.528116
vt 0.375000 0.500000
vt 0.375000 0.481355
vt 0.375000 0.469796
vt 0.375000 0.280204
vt 0.375000 0.268646
vt 0.375032 0.250000
vt 0.624970 0.517356
vt 0.750024 0.517356
vt 0.875044 0.517356
vt 0.500002 0.517356
vt 0.625000 0.528116
vt 0.500000 0.528116
vt 0.500000 0.721884
vt 0.375000 0.721884
vt 0.374993 0.732644
vt 0.500002 0.732644
vt 0.375000 0.750000
vt 0.625000 0.721884
vt 0.624970 0.732644
vt 0.500000 0.750000
vt 0.375000 0.768645
vt 0.625000 0.750000
vt 0.500000 0.768661
vt 0.375000 0.780203
vt 0.250000 0.780202
vt 0.250000 0.969797
vt 0.500000 0.780230
vt 0.375000 0.969796
vt 0.250000 0.981355
vt 0.375000 0.981354
vt 0.500000 0.969772
vt 0.500000 0.981340
vt 0.375105 1.000000
vt 0.499630 1.000000
vt 0.625000 0.969771
vt 0.625000 0.780231
vt 0.625000 0.768662
vt 0.625000 0.981339
vt 0.500351 1.000000
vt 0.624641 1.000000
vt 0.750000 0.981342
vt 0.749541 1.000000
vt 0.625510 1.000000
vt 0.750000 0.969776
vt 0.750000 0.780224
vt 0.750000 0.768658
vt 0.750000 0.750000
vt 0.750024 0.732644
vt 0.750000 0.721884
vt 0.750000 0.528116
vt 0.875000 0.528116
vt 0.875000 0.721884
vt 0.875044 0.732644
vt 0.993485 0.721884
vt 0.993485 0.528116
vt 0.875000 0.750000
vt 0.993485 0.732644
vt 0.995978 0.721884
vt 0.993485 0.750000
vt 0.996040 0.732913
vt 0.993508 0.768646
vt 0.995911 0.750000
vt 0.996058 0.768356
vt 1.000000 0.768958
vt 0.996000 0.780204
vt 1.000000 0.780204
vt 1.000000 0.969796
vt 0.996025 0.969796
vt 1.000000 0.981043
vt 0.993516 0.780205
vt 0.875000 0.768660
vt 0.875000 0.780227
vt 0.993566 0.969795
vt 0.875000 0.969774
vt 0.993574 0.981354
vt 0.875000 0.981341
vt 0.750334 1.000000
vt 0.874649 1.000000
vt 0.993596 1.000000
vt 0.875075 1.000000
vt 0.995981 1.000000
vt 0.996091 0.981644
vt 0.997293 1.000000
vt 0.250000 0.528116
vt 0.125000 0.721884
vt 0.125000 0.528116
vt 0.250000 0.721884
vt 0.125000 0.732644
vt 0.125000 0.750000
vt 0.250000 0.732644
vt 0.010273 0.768644
vt 0.250000 0.750000
vt 0.250000 0.768644
vt 0.125000 0.768644
vt 0.125000 0.780202
vt 0.125000 0.969797
vt 0.010273 0.780202
vt 0.125000 0.981355
vt 0.250000 1.000000
vt 0.125000 1.000000
vt 0.374958 1.000000
vt 0.010273 0.969797
vt 0.010273 1.000000
vt 0.006341 0.780202
vt 0.010273 0.981356
vt 0.006447 1.000000
vt 0.006341 0.969797
vt 0.006243 0.981645
vt 0.000000 0.987235
vt 0.000000 0.981044
vt 0.000000 0.969798
vt 0.000000 0.780202
vt 0.000000 0.768956
vt 0.006243 0.768354
s 1
f 1/1/1 2/2/2 3/3/3
f 4/4/4 1/1/1 3/3/3
f 1/1/1 4/4/4 5/5/5
f 6/6/6 7/7/7 8/8/8
f 7/7/7 6/6/6 9/9/9
f 10/10/10 9/9/9 6/6/6
f 10/10/10 6/6/6 11/11/11
f 10/10/10 11/11/11 12/12/12
f 13/13/13 12/12/14 14/14/15
f 15/15/16 16/16/17 13/13/13
f 16/16/17 15/15/16 17/17/18
f 16/16/17 17/17/18 18/18/19
f 19/19/20 20/20/21 21/21/22
f 22/22/23 19/19/20 23/23/24
f 23/23/24 19/19/20 24/24/25
f 21/21/22 24/24/25 19/19/20
f 23/23/24 24/24/25 25/25/26
f 21/21/22 26/26/27 27/27/28
f 25/25/26 24/24/25 28/28/29
f 29/29/30 25/25/26 28/28/29
f 24/24/25 21/21/22 30/30/31
f 30/30/31 21/21/22 27/27/28
f 31/31/32 28/28/29 24/24/25
f 24/24/25 30/30/31 31/31/32
f 28/28/29 32/32/33 29/29/30
f 32/32/33 28/28/29 31/31/32
f 33/33/34 29/29/30 32/32/33
f 31/31/32 30/30/31 34/34/35
f 30/30/31 27/27/28 34/34/35
f 34/34/35 32/32/33 31/31/32
f 32/32/33 34/34/35 35/35/36
f 27/27/28 35/35/36 34/34/35
f 35/35/36 33/33/34 32/32/33
f 33/33/34 35/35/36 36/36/37
f 37/15/16 33/33/34 36/36/37
f 36/36/37 38/17/38 37/15/16
f 39/37/39 38/17/38 36/36/37
f 36/36/37 40/38/40 39/37/39
f 41/39/41 38/17/38 39/37/39
f 40/38/40 41/39/41 39/37/39
f 38/17/38 41/39/41 42/18/19
f 27/27/42 43/40/43 40/38/40
f 41/39/41 40/38/40 43/40/43
f 43/40/43 27/27/42 44/26/44
f 43/40/43 45/41/45 41/39/41
f 41/39/41 45/41/45 42/18/19
f 45/41/45 43/40/43 46/2/46
f 42/18/19 45/41/45 47/9/47
f 45/41/45 48/7/48 47/9/47
f 42/18/19 47/9/47 49/10/49
f 50/16/50 42/18/19 49/10/49
f 51/12/12 50/16/50 49/10/49
f 51/12/12 52/13/13 50/16/50
f 48/7/51 53/42/52 54/43/53
f 55/8/54 48/7/51 54/43/53
f 55/8/54 54/43/53 56/44/55
f 57/45/56 55/8/54 56/44/55
f 58/46/57 55/8/54 57/45/56
f 55/8/54 58/46/57 59/6/58
f 60/11/11 59/6/58 58/46/57
f 61/38/40 62/36/37 63/35/59
f 63/35/59 64/27/28 61/38/40
f 65/47/60 66/48/61 67/49/62
f 68/50/63 69/51/64 70/52/65
f 68/50/63 70/52/65 71/53/66
f 72/54/67 68/50/63 71/53/66
f 69/51/64 73/55/68 70/52/65
f 74/56/68 70/52/65 73/55/68
f 73/55/68 69/51/64 75/57/69
f 73/55/68 76/58/70 74/56/68
f 76/58/70 73/55/68 77/59/70
f 75/57/69 77/59/70 73/55/68
f 78/60/71 74/56/68 76/58/70
f 77/59/70 75/57/69 79/61/72
f 74/56/68 78/60/71 80/62/73
f 81/63/74 79/61/72 75/57/69
f 70/52/65 74/56/68 82/64/65
f 80/62/73 82/64/65 74/56/68
f 82/64/65 83/53/66 70/52/65
f 82/64/65 80/62/73 84/65/75
f 83/53/66 82/64/65 85/66/76
f 84/65/75 85/66/76 82/64/65
f 85/66/76 72/54/67 83/53/66
f 81/63/74 75/57/69 86/67/77
f 87/68/78 81/63/74 86/67/77
f 86/67/77 88/69/79 87/68/78
f 75/57/69 89/70/80 86/67/77
f 88/69/79 86/67/77 89/70/80
f 89/70/80 90/71/81 88/69/79
f 89/70/80 75/57/69 69/51/64
f 69/51/64 91/72/82 89/70/80
f 69/51/64 68/50/63 91/72/82
f 89/70/80 91/72/82 92/73/83
f 89/70/80 92/73/83 93/71/81
f 68/50/63 94/74/84 91/72/82
f 94/74/84 92/73/83 91/72/82
f 93/71/81 92/73/83 95/75/85
f 92/73/83 94/74/84 96/76/86
f 96/76/86 95/75/85 92/73/83
f 95/75/85 97/77/87 93/71/81
f 98/78/88 96/76/86 94/74/84
f 94/74/84 68/50/63 99/79/89
f 94/74/84 99/79/89 98/78/88
f 100/80/90 99/79/89 68/50/63
f 68/50/63 72/54/67 100/80/90
f 101/81/91 98/78/88 99/79/89
f 99/79/89 100/80/90 101/81/91
f 96/76/86 98/78/88 102/82/92
f 98/78/88 101/81/91 102/82/92
f 95/75/85 96/76/86 103/83/93
f 102/82/92 103/83/93 96/76/86
f 103/83/93 104/84/94 95/75/85
f 97/77/87 95/75/85 104/84/94
f 103/83/93 102/82/92 105/85/95
f 106/86/96 102/82/92 101/81/91
f 102/82/92 106/86/96 105/85/95
f 101/81/91 107/87/97 106/86/96
f 107/87/97 101/81/91 100/80/90
f 104/84/94 103/83/93 108/88/98
f 105/85/95 108/88/98 103/83/93
f 100/80/90 109/89/99 107/87/97
f 109/89/99 100/80/90 72/54/67
f 110/90/100 106/86/96 107/87/97
f 111/91/67 109/89/99 72/54/67
f 72/54/67 85/66/76 111/91/67
f 112/92/101 107/87/97 109/89/99
f 107/87/97 112/92/101 110/90/100
f 109/89/99 111/91/67 113/93/99
f 112/92/101 109/89/99 113/93/99
f 85/66/76 114/94/102 111/91/67
f 106/86/96 110/90/100 115/95/103
f 115/95/103 105/85/95 106/86/96
f 116/96/104 115/95/103 110/90/100
f 115/95/103 116/96/104 117/97/105
f 116/96/104 118/98/106 117/97/105
f 118/98/106 116/96/104 119/99/107
f 118/98/106 119/99/107 120/100/108
f 105/85/95 115/95/103 121/101/109
f 122/97/110 121/101/109 115/95/103
f 121/101/109 108/88/98 105/85/95
f 121/101/109 122/97/110 123/102/111
f 121/101/109 124/103/112 108/88/98
f 124/103/112 121/101/109 125/102/113
f 125/102/113 126/104/114 124/103/112
f 122/97/110 127/105/115 123/102/111
f 126/104/114 125/102/113 127/105/115
f 127/105/115 122/97/110 128/98/116
f 129/106/117 126/104/114 127/105/115
f 127/105/115 128/98/116 129/106/117
f 120/100/108 129/106/117 128/98/116
f 126/104/114 129/106/117 130/107/118
f 129/106/117 120/100/108 131/108/119
f 131/108/119 130/107/118 129/106/117
f 132/109/120 131/108/119 120/100/108
f 130/107/118 131/108/119 133/110/121
f 131/108/119 132/109/120 134/111/122
f 134/111/122 133/110/121 131/108/119
f 120/100/108 135/112/123 132/109/120
f 135/112/123 120/100/108 119/99/107
f 136/113/124 132/109/120 135/112/123
f 133/110/121 137/114/125 130/107/118
f 136/113/124 138/115/126 132/109/120
f 134/111/122 132/109/120 138/115/126
f 134/111/122 138/115/126 139/116/127
f 138/115/126 136/113/124 140/117/128
f 141/118/129 134/111/122 139/116/127
f 139/116/127 138/115/126 142/119/130
f 142/119/130 141/118/129 139/116/127
f 140/117/128 142/119/130 138/115/126
f 133/110/121 134/111/122 143/120/131
f 143/120/131 134/111/122 141/118/129
f 143/120/131 144/121/132 133/110/121
f 137/114/125 133/110/121 144/121/132
f 141/118/129 145/122/133 143/120/131
f 144/121/132 143/120/131 145/122/133
f 141/118/129 142/119/130 146/123/134
f 142/119/130 140/117/128 146/123/134
f 145/122/133 141/118/129 147/124/135
f 141/118/129 146/123/134 147/124/135
f 145/122/133 148/125/136 144/121/132
f 144/121/132 149/126/137 137/114/125
f 149/126/137 144/121/132 148/125/136
f 148/125/136 145/122/133 150/127/138
f 147/124/135 150/127/138 145/122/133
f 148/125/136 150/127/138 151/49/139
f 151/49/62 149/126/137 152/125/140
f 150/127/138 147/124/135 153/128/141
f 146/123/134 153/128/141 147/124/135
f 149/126/137 151/49/62 154/48/142
f 150/127/138 155/129/143 151/49/139
f 151/49/139 155/129/143 156/47/144
f 157/130/145 150/127/138 153/128/141
f 150/127/138 157/130/145 155/129/143
f 155/129/143 158/131/146 156/47/144
f 155/129/143 157/130/145 158/131/146
f 157/130/145 159/132/147 158/131/146
f 154/48/142 156/47/60 160/133/148
f 160/133/148 161/134/149 154/48/142
f 161/134/149 149/126/137 154/48/142
f 161/134/149 160/133/148 162/135/150
f 162/135/150 163/136/151 161/134/149
f 149/126/137 161/134/149 164/137/152
f 161/134/149 163/136/151 165/138/153
f 161/134/149 165/138/153 164/137/152
f 163/136/151 166/139/154 165/138/153
f 164/137/152 137/114/125 149/126/137
f 165/138/153 166/139/154 167/140/155
f 166/139/154 168/141/78 167/140/155
f 167/140/155 168/141/78 169/69/156
f 169/69/156 97/77/87 167/140/155
f 97/77/87 165/138/153 167/140/155
f 97/77/87 169/69/156 170/71/157
f 165/138/153 97/77/87 171/142/158
f 164/137/152 165/138/153 171/142/158
f 104/84/94 171/142/158 97/77/87
f 171/142/158 104/84/94 172/143/159
f 164/137/152 171/142/158 172/143/159
f 108/88/98 172/143/159 104/84/94
f 172/143/159 108/88/98 173/103/160
f 174/144/161 164/137/152 172/143/159
f 173/103/160 174/144/161 172/143/159
f 137/114/125 164/137/152 174/144/161
f 174/144/161 173/103/160 175/104/162
f 174/144/161 130/107/118 137/114/125
f 130/107/118 174/144/161 175/104/162
f 176/145/163 177/146/164 178/147/165
f 177/146/164 176/145/163 179/148/166
f 178/147/165 180/149/167 176/145/163
f 180/149/167 178/147/165 181/150/168
f 181/150/168 182/151/169 180/149/167
f 182/151/169 181/150/168 183/152/170
f 184/153/171 179/148/166 176/145/163
f 176/145/163 185/154/172 184/153/171
f 185/154/172 176/145/163 186/155/173
f 186/155/173 187/156/174 185/154/172
f 187/156/174 186/155/173 188/157/169
f 179/148/166 184/153/171 189/158/175
f 190/159/176 179/148/166 189/158/175
f 189/158/175 191/160/177 190/159/176
f 192/161/178 189/158/175 184/153/171
f 191/160/177 189/158/175 193/162/179
f 189/158/175 192/161/178 193/162/179
f 193/162/179 194/163/180 191/160/177
f 184/153/171 195/164/181 192/161/178
f 195/164/181 184/153/171 196/165/172
f 196/165/172 197/166/182 195/164/181
f 197/166/182 196/165/172 198/167/174
f 199/168/183 195/164/181 197/166/182
f 200/169/184 192/161/178 195/164/181
f 195/164/181 199/168/183 200/169/184
f 199/168/183 201/43/185 200/169/184
f 201/43/185 199/168/183 202/170/186
f 203/42/52 200/169/184 201/43/185
f 200/169/184 203/42/52 204/171/187
f 192/161/178 200/169/184 204/171/187
f 204/171/187 193/162/179 192/161/178
f 193/162/179 204/171/187 205/172/188
f 205/172/188 194/163/180 193/162/179
f 206/42/52 205/172/188 204/171/187
f 205/172/188 206/42/52 207/5/5
f 207/5/5 194/163/180 205/172/188
f 48/7/48 207/5/5 206/42/52
f 194/163/180 207/5/5 208/4/189
f 207/5/5 48/7/48 209/1/1
f 208/4/189 210/173/190 194/163/180
f 194/163/180 210/173/190 191/160/177
f 210/173/190 208/4/189 211/174/191
f 212/3/192 211/174/191 208/4/189
f 48/7/48 45/41/45 209/1/1
f 210/173/190 211/174/191 213/175/193
f 211/174/191 212/3/192 214/176/194
f 214/176/194 213/175/193 211/174/191
f 212/3/192 215/177/195 214/176/194
f 215/177/195 212/3/192 46/2/196
f 46/2/46 209/1/1 45/41/45
f 216/178/197 210/173/190 213/175/193
f 217/179/198 210/173/190 216/178/197
f 20/20/21 213/175/193 214/176/194
f 20/20/21 216/178/197 213/175/193
f 20/20/21 214/176/194 218/177/195
f 46/2/46 26/26/27 218/177/195
f 216/178/197 20/20/21 219/180/199
f 220/181/200 216/178/197 219/180/199
f 220/181/200 219/180/199 22/22/23
f 21/21/22 218/177/195 26/26/27
f 218/177/195 21/21/22 20/20/21
f 26/26/27 46/2/46 43/40/43
f 22/22/23 219/180/199 19/19/20
f 20/20/21 19/19/20 219/180/199
f 221/182/201 222/183/202 223/184/203
f 221/182/201 114/94/102 224/185/204
f 225/186/205 223/184/203 222/183/202
f 223/184/203 225/186/205 226/187/206
f 222/183/202 221/182/201 227/188/207
f 224/185/204 227/188/207 221/182/201
f 228/189/208 224/185/204 114/94/102
f 114/94/102 85/66/76 228/189/208
f 85/66/76 84/65/75 228/189/208
f 224/185/204 228/189/208 229/190/209
f 84/65/75 229/190/209 228/189/208
f 229/190/209 84/65/75 230/191/210
f 84/65/75 231/192/211 230/191/210
f 231/192/211 84/65/75 232/193/73
f 232/193/73 233/194/212 231/192/211
f 233/194/212 232/193/73 234/195/71
f 229/190/209 235/196/213 224/185/204
f 227/188/207 224/185/204 235/196/213
f 235/196/213 229/190/209 177/146/164
f 235/196/213 236/197/214 227/188/207
f 227/188/207 236/197/214 222/183/202
f 237/191/210 177/146/164 229/190/209
f 177/146/164 237/191/210 238/147/215
f 237/191/210 239/198/168 238/147/215
f 239/198/168 237/191/210 240/199/211
f 240/199/211 241/200/170 239/198/168
f 241/200/170 240/199/211 242/201/212
f 177/146/164 243/202/216 235/196/213
f 236/197/214 235/196/213 243/202/216
f 243/202/216 177/146/164 179/148/166
f 244/203/217 222/183/202 236/197/214
f 222/183/202 244/203/217 225/186/205
f 243/202/216 245/204/218 236/197/214
f 236/197/214 246/205/219 244/203/217
f 246/205/219 236/197/214 245/204/218
f 245/204/218 243/202/216 190/159/176
f 179/148/166 190/159/176 243/202/216
f 245/204/218 247/179/220 246/205/219
f 190/159/176 247/179/220 245/204/218
f 246/205/219 247/179/220 216/178/197
f 247/179/220 190/159/176 191/160/177
f 220/181/200 244/203/217 246/205/219
f 246/205/219 216/178/197 220/181/200
f 244/203/217 220/181/200 248/206/221
f 248/206/221 225/186/205 244/203/217
f 249/22/222 248/206/221 220/181/200
f 191/160/177 210/173/190 247/179/220
f 250/207/223 225/186/205 248/206/221
f 250/207/223 226/187/206 225/186/205
f 226/187/206 250/207/223 251/208/224
f 248/206/221 249/22/222 252/209/225
f 250/207/223 248/206/221 252/209/225
f 23/23/24 252/209/225 249/22/222
f 253/210/226 251/208/224 250/207/223
f 250/207/223 252/209/225 253/210/226
f 251/208/224 253/210/226 254/211/227
f 255/212/228 254/211/227 253/210/226
f 256/213/229 253/210/226 252/209/225
f 253/210/226 256/213/229 255/212/228
f 252/209/225 23/23/24 256/213/229
f 254/211/227 255/212/228 257/214/230
f 25/25/26 256/213/229 23/23/24
f 258/215/231 255/212/228 256/213/229
f 256/213/229 25/25/26 258/215/231
f 259/216/232 260/217/233 261/218/233
f 261/218/233 262/219/234 259/216/232
f 261/218/233 263/99/107 262/219/234
f 263/99/107 261/218/233 135/112/123
f 263/99/107 264/96/104 262/219/234
f 110/90/100 262/219/234 264/96/104
f 262/219/234 110/90/100 112/92/101
f 265/220/235 135/112/123 261/218/233
f 265/220/235 261/218/233 260/217/233
f 135/112/123 265/220/235 136/113/124
f 262/219/234 112/92/101 266/221/101
f 266/221/101 259/216/232 262/219/234
f 266/221/101 112/92/101 113/93/99
f 267/222/236 136/113/124 265/220/235
f 267/222/236 140/117/128 136/113/124
f 140/117/128 267/222/236 268/223/237
f 267/222/236 265/220/235 269/224/235
f 260/217/233 269/224/235 265/220/235
f 270/225/238 268/223/237 267/222/236
f 270/225/238 267/222/236 269/224/235
f 268/223/237 270/225/238 271/226/237
f 270/225/238 272/227/239 271/226/237
f 273/228/240 271/226/237 272/227/239
f 269/224/235 274/229/241 270/225/238
f 272/227/239 270/225/238 274/229/241
f 260/217/233 275/230/242 269/224/235
f 274/229/241 269/224/235 275/230/242
f 275/230/242 260/217/233 276/231/243
f 259/216/232 276/231/243 260/217/233
f 275/230/242 257/214/230 274/229/241
f 276/231/243 259/216/232 277/232/244
f 266/221/101 277/232/244 259/216/232
f 276/231/243 254/211/227 275/230/242
f 257/214/230 275/230/242 254/211/227
f 277/232/244 278/208/224 276/231/243
f 254/211/227 276/231/243 278/208/224
f 278/208/224 277/232/244 279/187/206
f 277/232/244 266/221/101 280/233/245
f 280/233/245 279/187/206 277/232/244
f 113/93/99 280/233/245 266/221/101
f 279/187/206 280/233/245 223/184/203
f 280/233/245 113/93/99 281/234/246
f 281/234/246 223/184/203 280/233/245
f 111/91/67 281/234/246 113/93/99
f 281/234/246 111/91/67 114/94/102
f 223/184/203 281/234/246 221/182/201
f 114/94/102 221/182/201 281/234/246
f 282/235/247 257/214/230 255/212/228
f 283/236/248 255/212/228 258/215/231
f 255/212/228 283/236/248 282/235/247
f 258/215/231 284/237/249 283/236/248
f 284/237/249 258/215/231 25/25/26
f 257/214/230 282/235/247 285/238/250
f 285/238/250 274/229/241 257/214/230
f 274/229/241 285/238/250 272/227/239
f 286/239/251 285/238/250 282/235/247
f 287/240/252 272/227/239 285/238/250
f 285/238/250 286/239/251 287/240/252
f 272/227/239 287/240/252 273/228/240
f 288/241/253 273/228/240 287/240/252
f 273/228/240 288/241/253 289/242/254
f 288/241/253 290/243/255 289/242/254
f 290/243/255 288/241/253 291/244/256
f 286/239/251 292/241/253 287/240/252
f 291/244/256 293/245/257 290/243/255
f 292/241/253 286/239/251 294/246/258
f 294/246/258 291/244/256 292/241/253
f 291/244/256 294/246/258 295/247/259
f 293/245/257 291/244/256 296/248/260
f 295/247/259 296/248/260 291/244/256
f 296/248/260 297/249/261 293/245/257
f 296/248/260 295/247/259 298/250/262
f 297/249/261 296/248/260 299/251/263
f 298/250/262 299/251/263 296/248/260
f 299/251/263 300/252/264 297/249/261
f 301/253/265 297/249/261 300/252/264
f 300/252/264 302/254/266 301/253/265
f 300/252/264 299/251/263 303/255/267
f 302/254/266 300/252/264 304/256/268
f 303/255/267 304/256/268 300/252/264
f 304/256/268 305/257/269 302/254/266
f 305/257/269 304/256/268 306/258/270
f 304/256/268 303/255/267 307/259/271
f 307/259/271 306/258/270 304/256/268
f 306/258/270 307/259/271 308/260/272
f 308/260/272 309/261/273 306/258/270
f 309/261/273 308/260/272 310/262/212
f 311/263/274 308/260/272 307/259/271
f 307/259/271 312/264/275 311/263/274
f 312/264/275 307/259/271 313/255/267
f 313/255/267 314/265/276 312/264/275
f 314/265/276 313/255/267 299/251/263
f 299/251/263 298/250/262 314/265/276
f 308/260/272 311/263/274 315/266/277
f 315/266/277 316/267/212 308/260/272
f 316/267/212 315/266/277 317/268/170
f 311/263/274 318/269/278 315/266/277
f 319/270/279 315/266/277 318/269/278
f 315/266/277 319/270/279 320/271/170
f 318/269/278 311/263/274 321/272/280
f 322/264/281 321/272/280 311/263/274
f 321/272/280 322/264/281 323/273/282
f 314/265/276 323/273/282 322/264/281
f 323/273/282 314/265/276 324/274/283
f 298/250/262 324/274/283 314/265/276
f 324/274/283 298/250/262 325/275/284
f 298/250/262 326/276/285 325/275/284
f 326/276/285 298/250/262 295/247/259
f 295/247/259 327/277/286 326/276/285
f 327/277/286 295/247/259 328/246/258
f 286/239/251 327/277/286 328/246/258
f 327/277/286 286/239/251 329/278/287
f 282/235/247 329/278/287 286/239/251
f 329/278/287 282/235/247 283/236/248
f 283/236/248 330/279/288 329/278/287
f 330/279/288 283/236/248 284/237/249
f 331/280/289 329/278/287 330/279/288
f 329/278/287 331/280/289 332/277/286
f 331/280/289 326/276/285 332/277/286
f 326/276/285 331/280/289 333/281/290
f 333/281/290 325/275/284 326/276/285
f 330/279/288 334/282/291 331/280/289
f 334/282/291 333/281/290 331/280/289
f 284/237/249 335/283/292 330/279/288
f 334/282/291 330/279/288 335/283/292
f 325/275/284 333/281/290 336/284/293
f 336/284/293 324/274/283 325/275/284
f 333/281/290 334/282/291 337/285/294
f 337/285/294 336/284/293 333/281/290
f 335/283/292 338/286/295 334/282/291
f 338/286/295 337/285/294 334/282/291
f 335/283/292 284/237/249 29/29/30
f 25/25/26 29/29/30 284/237/249
f 29/29/30 33/33/34 335/283/292
f 33/33/34 338/286/295 335/283/292
f 336/284/293 337/285/294 339/287/296
f 337/285/294 338/286/295 340/288/297
f 340/288/297 339/287/296 337/285/294
f 341/289/298 336/284/293 339/287/296
f 338/286/295 342/13/299 340/288/297
f 37/15/16 342/13/299 338/286/295
f 33/33/34 37/15/16 338/286/295
f 342/13/299 343/14/15 340/288/297
f 339/287/296 340/288/297 344/290/300
f 340/288/297 343/14/15 344/290/300
f 344/290/300 341/289/298 345/287/296
f 343/14/15 346/291/301 344/290/300
f 341/289/298 344/290/300 346/291/301
f 346/291/301 343/14/15 347/292/302
f 347/292/302 348/293/303 346/291/301
f 348/293/303 341/289/298 346/291/301
f 348/293/303 347/292/302 349/294/304
f 349/294/304 350/295/305 348/293/303
f 348/293/303 350/295/305 351/296/306
f 350/295/305 352/297/56 351/296/306
f 341/289/298 348/293/303 353/298/307
f 348/293/303 351/296/306 353/298/307
f 353/298/307 354/299/308 341/289/298
f 336/284/293 341/289/298 354/299/308
f 324/274/283 336/284/293 354/299/308
f 354/299/308 355/273/309 324/274/283
f 355/273/309 354/299/308 356/300/310
f 354/299/308 353/298/307 356/300/310
f 356/300/310 321/272/280 355/273/309
f 353/298/307 351/296/306 357/301/311
f 357/301/311 356/300/310 353/298/307
f 321/272/280 356/300/310 358/302/312
f 356/300/310 357/301/311 358/302/312
f 358/302/312 359/269/278 321/272/280
f 351/296/306 360/303/313 357/301/311
f 360/303/313 358/302/312 357/301/311
f 359/269/278 358/302/312 361/304/314
f 358/302/312 360/303/313 361/304/314
f 361/304/314 362/305/279 359/269/278
f 362/305/279 361/304/314 363/306/315
f 364/307/316 361/304/314 360/303/313
f 361/304/314 364/307/316 365/308/317
f 364/307/316 360/303/313 366/309/183
f 360/303/313 351/296/306 367/310/318
f 360/303/313 367/310/318 366/309/183
f 367/310/318 351/296/306 352/297/56
f 366/309/183 367/310/318 368/311/186
f 367/310/318 352/297/56 368/311/186
f 369/312/319 370/313/320 371/314/321
f 371/314/321 271/226/237 369/312/319
f 370/313/320 369/312/319 372/315/322
f 271/226/237 371/314/321 268/223/237
f 372/315/322 373/316/323 370/313/320
f 373/316/323 153/128/141 370/313/320
f 146/123/134 370/313/320 153/128/141
f 370/313/320 146/123/134 374/314/321
f 146/123/134 268/223/237 374/314/321
f 153/128/141 373/316/323 157/130/145
f 268/223/237 146/123/134 140/117/128
f 375/317/324 157/130/145 373/316/323
f 157/130/145 375/317/324 376/132/325
f 373/316/323 372/315/322 377/318/323
f 377/318/323 375/317/324 373/316/323
f 378/242/254 377/318/323 372/315/322
f 379/312/319 378/242/254 372/315/322
f 378/242/254 379/312/319 273/228/240
f 271/226/237 273/228/240 379/312/319
f 377/318/323 378/242/254 290/243/255
f 375/317/324 380/319/326 376/132/325
f 375/317/324 377/318/323 381/320/324
f 290/243/255 381/320/324 377/318/323
f 382/321/327 375/317/324 381/320/324
f 381/320/324 290/243/255 293/245/257
f 293/245/257 382/321/327 381/320/324
f 375/317/324 382/321/327 383/322/327
f 380/319/326 375/317/324 383/322/327
f 382/321/327 293/245/257 297/249/261
f 301/253/265 383/322/327 382/321/327
f 297/249/261 301/253/265 382/321/327
f 383/322/327 301/253/265 384/323/265
f 385/254/328 384/323/265 301/253/265
f 384/323/265 385/254/328 386/324/266
f 305/257/269 386/324/266 385/254/328
f 387/325/329 383/322/327 384/323/265
f 383/322/327 387/325/329 380/319/326
f 388/324/266 387/325/329 384/323/265
f 386/324/266 305/257/269 389/326/269
f 390/327/330 389/326/269 305/257/269
f 389/326/269 390/327/330 391/328/330
f 306/258/270 390/327/330 305/257/269
f 390/327/330 306/258/270 392/329/273
f 387/325/329 388/324/266 393/330/331
f 394/326/269 393/330/331 388/324/266
f 395/331/332 394/326/269 391/328/330
f 387/325/329 393/330/331 396/332/333
f 396/332/333 380/319/326 387/325/329
f 394/326/269 395/331/332 397/333/334
f 393/330/331 394/326/269 397/333/334
f 397/333/334 395/331/332 398/334/335
f 397/333/334 399/335/336 393/330/331
f 396/332/333 393/330/331 399/335/336
f 400/336/337 397/333/334 398/334/335
f 399/335/336 397/333/334 400/336/337
f 400/336/337 398/334/335 401/337/338
f 402/338/339 400/336/337 401/337/338
f 399/335/336 400/336/337 402/338/339
f 403/339/340 399/335/336 402/338/339
f 404/340/341 399/335/336 403/339/340
f 396/332/333 399/335/336 404/340/341
f 396/332/333 404/340/341 405/341/148
f 405/341/148 406/342/342 396/332/333
f 380/319/326 396/332/333 406/342/342
f 406/342/342 405/341/148 156/47/343
f 156/47/343 407/131/146 406/342/342
f 407/131/146 380/319/326 406/342/342
f 407/131/146 408/132/344 380/319/326
