# Blender 5.2.1 LTS
# www.blender.org
mtllib Skinny Left.mtl
o RenderMesh_111525819308010
v 1.911514 0.027814 1.261142
v 1.924530 0.011111 1.281825
v 1.914328 0.008555 1.261827
v 1.920786 0.029678 1.280576
v 1.767144 0.313540 1.229181
v 1.776414 0.315404 1.248614
v 1.751916 0.329989 1.225872
v 1.749174 0.309660 1.211312
v 1.737792 0.325936 1.211440
v 1.734390 0.339387 1.223892
v 1.728707 0.334221 1.213536
v 1.851477 0.327844 1.604048
v 1.838461 0.344547 1.583364
v 1.836458 0.344330 1.601676
v 1.816601 0.356042 1.579722
v 1.852319 0.328277 1.586012
v 1.762558 0.331672 1.245968
v 1.995847 0.042118 1.636008
v 1.996689 0.042551 1.617975
v 2.000433 0.023985 1.619222
v 1.920786 0.029678 1.280576
v 1.924530 0.011111 1.281825
v 1.776414 0.315404 1.248614
v 1.767144 0.313540 1.229181
v 1.751916 0.329989 1.225872
v 1.740700 0.343165 1.242329
v 1.734390 0.339387 1.223892
v 1.790064 0.361014 1.575638
v 1.893542 0.023936 1.243270
v 1.749174 0.309660 1.211312
v 1.911514 0.027814 1.261142
v 1.914328 0.008555 1.261827
v 1.899288 0.006315 1.247188
v 1.908943 -0.006076 1.262532
v 1.899629 -0.004058 1.251371
v 1.917591 -0.006927 1.281487
v 1.714167 0.348132 1.238252
v 1.712597 0.343362 1.219604
v 1.728707 0.334221 1.213536
v 1.712409 0.334569 1.207393
v 1.717867 0.322526 1.200315
v 1.737792 0.325936 1.211440
v 1.685948 0.331165 1.201231
v 1.684536 0.341637 1.216010
v 1.725239 0.304355 1.197727
v 1.749174 0.309660 1.211312
v 1.691022 0.315993 1.192271
v 0.379617 0.034110 1.020971
v 1.869604 0.018635 1.229679
v 1.893542 0.023936 1.243270
v 1.698984 0.298433 1.190494
v 0.384540 0.018896 1.011979
v 1.816601 0.356042 1.579722
v 1.762558 0.331672 1.245968
v 1.740700 0.343165 1.242329
v -2.015680 -0.388669 0.254562
v -1.969865 -0.403412 0.225166
v -2.001023 -0.404367 0.261228
v -2.100638 -0.393896 0.460922
v -2.085619 -0.409572 0.466708
v -2.001963 -0.035358 0.270188
v -1.970805 -0.034403 0.234126
v -2.016540 -0.050788 0.262766
v -2.086559 -0.040562 0.475669
v -2.101499 -0.056015 0.469126
v -1.928963 -0.067412 0.200049
v -1.928196 -0.368575 0.192736
v -1.987846 -0.068065 0.220749
v -1.926149 -0.049138 0.204316
v -1.987079 -0.369227 0.213436
v -1.983441 -0.049773 0.224457
v -1.918040 -0.033818 0.215576
v -1.970805 -0.034403 0.234126
v -1.925288 -0.387019 0.196112
v -1.982581 -0.387654 0.216253
v -1.917100 -0.402827 0.206616
v -1.969865 -0.403412 0.225166
v -1.774210 -0.067579 0.223168
v -1.773443 -0.368742 0.215856
v -1.853945 -0.067241 0.200899
v -1.853155 -0.048973 0.205142
v -1.775028 -0.049303 0.226964
v -1.850813 -0.033665 0.216338
v -1.777266 -0.033977 0.236879
v -1.853178 -0.368405 0.193586
v -1.852295 -0.386854 0.196938
v -1.774169 -0.387185 0.218759
v -1.849873 -0.402674 0.207378
v -1.776330 -0.402986 0.227918
v -1.928963 -0.067412 0.200049
v -1.928196 -0.368575 0.192736
v -1.926149 -0.049138 0.204316
v -1.925288 -0.387019 0.196112
v -1.853155 -0.048973 0.205142
v -1.918040 -0.033818 0.215576
v -1.850813 -0.033665 0.216338
v -1.852295 -0.386854 0.196938
v -1.917100 -0.402827 0.206616
v -1.849873 -0.402674 0.207378
v -0.038090 -0.064482 1.329477
v 0.027124 -0.362721 1.344348
v 0.271274 -0.332640 1.407049
v 0.172303 -0.038483 1.383441
v 0.593895 -0.276468 1.471179
v 0.601171 -0.294188 1.469292
v 0.277133 -0.350606 1.404881
v 0.031417 -0.380881 1.341774
v 0.281742 -0.365874 1.395826
v 0.606092 -0.309402 1.460300
v 1.954303 -0.003392 1.646991
v 0.284398 -0.376120 1.381263
v 0.607914 -0.319793 1.445570
v -0.305204 -0.403109 1.233419
v -0.609307 -0.406035 1.119035
v -0.301445 -0.418456 1.224114
v 0.035682 -0.396194 1.332627
v -0.297043 -0.428537 1.210052
v 0.039270 -0.406329 1.318300
v -0.292666 -0.431819 1.193377
v 0.041635 -0.409743 1.300976
v 0.069922 -0.406042 0.986191
v -0.220161 -0.425197 0.892681
v 0.070704 -0.402215 0.968503
v -0.216477 -0.421180 0.875927
v 0.069783 -0.391731 0.953147
v -0.214046 -0.410474 0.861649
v 0.041635 -0.409743 1.300976
v 0.284699 -0.379785 1.363408
v 0.069922 -0.406042 0.986191
v 0.268495 -0.381490 1.037078
v 0.266393 -0.378015 1.018650
v 0.070704 -0.402215 0.968503
v 0.262209 -0.367930 1.002455
v 0.538244 -0.319869 1.057325
v 0.266393 -0.378015 1.018650
v 0.545370 -0.329443 1.074105
v 0.268495 -0.381490 1.037078
v 0.550070 -0.332465 1.093049
v 0.606356 -0.323781 1.427347
v 0.284699 -0.379785 1.363408
v 1.862834 -0.018920 1.240378
v 0.545370 -0.329443 1.074105
v 1.871392 -0.028180 1.257365
v 1.886960 -0.010890 1.246028
v 0.550070 -0.332465 1.093049
v 1.895231 -0.018097 1.260029
v 1.899629 -0.004058 1.251371
v 1.908943 -0.006076 1.262532
v 1.917591 -0.006927 1.281487
v 1.901027 -0.021690 1.279613
v 1.877358 -0.030930 1.276487
v 1.953251 -0.018043 1.613865
v 0.606356 -0.323781 1.427347
v 1.976924 -0.008809 1.616998
v 1.993493 0.005950 1.618880
v 1.917591 -0.006927 1.281487
v 1.955715 -0.013864 1.632213
v 1.979768 -0.003749 1.635823
v 1.993045 0.008193 1.636383
v 1.993493 0.005950 1.618880
v 1.977312 0.004443 1.647669
v 1.988247 0.010978 1.645290
v 1.974499 0.017087 1.655112
v 1.998871 0.022896 1.637630
v 1.993493 0.005950 1.618880
v 1.989644 0.021645 1.648836
v 1.985019 0.039456 1.649897
v 1.965853 0.034968 1.657525
v 1.985019 0.039456 1.649897
v 1.941267 0.029340 1.657730
v 1.840650 0.325179 1.617939
v 1.821487 0.320689 1.625572
v 1.796905 0.315056 1.625783
v 1.812091 0.338516 1.619165
v 1.840650 0.325179 1.617939
v 1.949229 0.011780 1.655952
v 0.593895 -0.276468 1.471179
v 0.464453 0.012384 1.441514
v 1.828148 0.341265 1.613086
v 1.787265 0.332332 1.620108
v 1.802762 0.349903 1.609034
v 1.777417 0.346693 1.607844
v 1.817324 0.349257 1.607455
v 1.797135 0.357710 1.595398
v 1.777417 0.346693 1.607844
v 1.768858 0.355954 1.590858
v 1.818493 0.353656 1.597744
v 1.840650 0.325179 1.617939
v -2.052466 -0.395335 0.525252
v -1.231258 -0.401449 0.863190
v -2.053804 -0.377054 0.528834
v -2.068519 -0.415222 0.491402
v -2.072898 -0.408415 0.504021
v -2.086267 -0.403906 0.494307
v -2.088803 -0.407939 0.482780
v -2.048750 -0.410673 0.515945
v -2.085619 -0.409572 0.466708
v -2.063175 -0.420138 0.475680
v -1.979120 -0.414967 0.271517
v -2.001023 -0.404367 0.261228
v -1.950868 -0.414101 0.238817
v -1.227542 -0.416788 0.853882
v -2.043221 -0.420734 0.502327
v -2.036721 -0.423987 0.486473
v -1.222013 -0.426849 0.840265
v -1.207203 -0.416939 0.862252
v -1.953306 -0.418855 0.283863
v -1.215513 -0.430102 0.824411
v -1.783474 -0.417811 0.258686
v -1.212257 -0.383320 0.875142
v -1.232596 -0.383169 0.866772
v -1.210919 -0.401601 0.871560
v -1.233363 -0.082008 0.874085
v -0.610798 -0.387753 1.122555
v -1.213024 -0.082159 0.882454
v -1.211780 -0.063720 0.879764
v -0.616296 -0.086581 1.127962
v -0.615474 -0.068140 1.125101
v -0.612464 -0.052347 1.116294
v -0.336395 -0.049985 1.220254
v -0.333963 -0.039280 1.205976
v -0.337202 -0.065749 1.229886
v -0.616296 -0.086581 1.127962
v -0.336263 -0.084172 1.233403
v -0.307746 -0.384834 1.236552
v 0.027124 -0.362721 1.344348
v -0.038090 -0.064482 1.329477
v -0.041758 -0.046239 1.325087
v -1.784475 -0.020699 0.268332
v -2.037733 -0.026875 0.496117
v -1.216525 -0.032990 0.834055
v -1.223006 -0.037041 0.849731
v -1.099641 -0.025798 0.550150
v -1.196186 -0.033141 0.842425
v -1.079302 -0.025950 0.558519
v -1.093142 -0.029051 0.534297
v -1.072803 -0.029202 0.542667
v -1.202667 -0.037192 0.858100
v -0.601975 -0.037551 1.086904
v -0.497285 -0.030318 0.798118
v -1.079302 -0.025950 0.558519
v -0.607724 -0.041605 1.102880
v -0.491404 -0.033568 0.782011
v -1.087613 -0.039112 0.520680
v -0.486284 -0.043628 0.768225
v -1.208143 -0.047930 0.871212
v -0.253398 -0.031922 0.871852
v -0.497285 -0.030318 0.798118
v -1.067274 -0.039263 0.529050
v -1.228482 -0.047779 0.862842
v -2.049690 -0.041664 0.524905
v -1.232118 -0.063569 0.871394
v -2.044214 -0.030926 0.511793
v -2.053326 -0.057454 0.533457
v -2.064168 -0.030330 0.485146
v -1.954317 -0.021743 0.293505
v -1.843081 -0.020451 0.251963
v -2.054571 -0.075894 0.536147
v -1.232596 -0.383169 0.866772
v -2.079724 -0.075616 0.522129
v -2.078877 -0.056697 0.518528
v -2.074552 -0.043859 0.512162
v -2.049690 -0.041664 0.524905
v -2.094135 -0.057332 0.503759
v -2.087369 -0.047457 0.502991
v -2.049690 -0.041664 0.524905
v -2.071473 -0.035141 0.500926
v -2.089355 -0.043417 0.492395
v -2.101805 -0.056011 0.487910
v -2.086559 -0.040562 0.475669
v -2.107943 -0.074773 0.484445
v -2.101499 -0.056015 0.469126
v -1.980113 -0.025158 0.280982
v -2.001963 -0.035358 0.270188
v -1.929493 -0.020982 0.264773
v -1.951861 -0.024292 0.248283
v -1.970805 -0.034403 0.234126
v -1.891493 -0.020561 0.251415
v -1.905870 -0.023783 0.232115
v -1.970805 -0.034403 0.234126
v -1.918040 -0.033818 0.215576
v -2.016540 -0.050788 0.262766
v -1.983441 -0.049773 0.224457
v -2.021626 -0.069100 0.259847
v -1.987846 -0.068065 0.220749
v -1.987079 -0.369227 0.213436
v -2.020859 -0.370263 0.252534
v -1.982581 -0.387654 0.216253
v -2.015680 -0.388669 0.254562
v -1.969865 -0.403412 0.225166
v -2.106712 -0.074335 0.466516
v -2.021626 -0.069100 0.259847
v -2.105945 -0.375498 0.459204
v -2.020859 -0.370263 0.252534
v -2.107176 -0.375936 0.477132
v -2.100638 -0.393896 0.460922
v -2.099256 -0.393692 0.479293
v -2.097698 -0.376386 0.496661
v -2.098465 -0.075223 0.503974
v -2.078957 -0.376779 0.514816
v -2.094014 -0.393624 0.495702
v -2.097698 -0.376386 0.496661
v -2.076104 -0.394383 0.510212
v -1.928482 -0.418094 0.255131
v -1.842070 -0.417563 0.242321
v -1.890482 -0.417673 0.241772
v -1.904878 -0.413591 0.222650
v -1.969865 -0.403412 0.225166
v -1.917100 -0.402827 0.206616
v -1.846283 -0.413458 0.223314
v -1.917100 -0.402827 0.206616
v -1.849873 -0.402674 0.207378
v -1.776330 -0.402986 0.227918
v -1.849873 -0.402674 0.207378
v -1.779597 -0.413740 0.241939
v -1.086674 -0.408121 0.511721
v -1.776330 -0.402986 0.227918
v -1.092149 -0.418859 0.524833
v -1.066335 -0.408272 0.520091
v -1.098630 -0.422910 0.540508
v -1.071811 -0.419010 0.533202
v -0.479548 -0.412656 0.761599
v -0.484288 -0.423398 0.775013
v -1.078292 -0.423062 0.548878
v -0.490037 -0.427452 0.790989
v -1.195175 -0.430253 0.832781
v -0.594726 -0.434684 1.079772
v -1.201674 -0.427000 0.848634
v -0.214046 -0.410474 0.861649
v -0.484288 -0.423398 0.775013
v -0.216477 -0.421180 0.875927
v -0.490037 -0.427452 0.790989
v -0.220161 -0.425197 0.892681
v -0.292666 -0.431819 1.193377
v -0.600608 -0.431434 1.095880
v -0.605729 -0.421373 1.109667
v 1.880274 0.001097 1.236261
v 1.899288 0.006315 1.247188
v 1.899629 -0.004058 1.251371
v 1.886960 -0.010890 1.246028
v 1.862834 -0.018920 1.240378
v 1.852985 -0.004559 1.228114
v 0.538244 -0.319869 1.057325
v 0.529776 -0.305202 1.045264
v 1.843346 0.012717 1.222440
v 0.521257 -0.287675 1.039757
v 0.391814 0.001177 1.010092
v 0.262209 -0.367930 1.002455
v 0.529776 -0.305202 1.045264
v 0.256580 -0.352769 0.990958
v 0.521257 -0.287675 1.039757
v 0.151390 -0.040683 0.962301
v 0.250362 -0.334841 0.985909
v 0.145531 -0.022718 0.964469
v 0.069783 -0.391731 0.953147
v 0.256580 -0.352769 0.990958
v 0.067300 -0.376184 0.942461
v -0.214046 -0.410474 0.861649
v 0.067300 -0.376184 0.942461
v -0.213238 -0.394709 0.852017
v 0.063632 -0.357941 0.938070
v -0.214176 -0.376286 0.848500
v -0.001581 -0.059709 0.923200
v 0.151390 -0.040683 0.962301
v -0.005874 -0.041547 0.925775
v -0.242694 -0.075631 0.845351
v -0.001581 -0.059709 0.923200
v -0.245236 -0.057354 0.848484
v -0.010140 -0.026232 0.934924
v -0.248995 -0.042005 0.857790
v 0.140923 -0.007450 0.973524
v 0.377796 0.044501 1.035701
v 0.138265 0.002797 0.988088
v 1.687000 0.345817 1.234357
v 0.379355 0.048489 1.053926
v 1.762893 0.358703 1.571736
v 0.435639 0.057173 1.388222
v 0.137966 0.006462 1.005942
v 0.435639 0.057173 1.388222
v 0.154170 0.008167 1.332272
v 0.440340 0.054151 1.407166
v 0.156272 0.004692 1.350700
v 0.447466 0.044578 1.423946
v 0.160455 -0.005394 1.366895
v 0.455933 0.029911 1.436007
v 0.166085 -0.020555 1.378392
v -0.044241 -0.030693 1.314401
v -0.045161 -0.020208 1.299046
v 0.154170 0.008167 1.332272
v -0.044380 -0.016382 1.281358
v -0.016093 -0.012681 0.966581
v 0.137966 0.006462 1.005942
v -0.330279 -0.035261 1.189222
v -0.013729 -0.016096 0.949253
v -0.601975 -0.037551 1.086904
v -0.016093 -0.012681 0.966581
v -0.257774 -0.028640 0.888529
v -0.482705 -0.058966 0.758858
v -0.481214 -0.077247 0.755338
v -1.063559 -0.054600 0.519743
v -1.062221 -0.072880 0.516161
v -1.061454 -0.374044 0.508848
v -0.475717 -0.378422 0.749931
v -1.062698 -0.392482 0.511539
v -0.476538 -0.396863 0.752792
v -0.476538 -0.396863 0.752792
v -0.213238 -0.394709 0.852017
v -1.066335 -0.408272 0.520091
v -0.479548 -0.412656 0.761599
v -0.214046 -0.410474 0.861649
v -1.086674 -0.408121 0.511721
v -1.062698 -0.392482 0.511539
v -1.083037 -0.392331 0.503169
v -1.776330 -0.402986 0.227918
v -1.061454 -0.374044 0.508848
v -1.774169 -0.387185 0.218759
v -1.081792 -0.373892 0.500479
v -1.773443 -0.368742 0.215856
v -1.082559 -0.072728 0.507792
v -1.775028 -0.049303 0.226964
v -1.083897 -0.054449 0.511373
v -1.777266 -0.033977 0.236879
v -1.780584 -0.023932 0.251406
v -1.847275 -0.023650 0.232779
v -1.777266 -0.033977 0.236879
v -1.850813 -0.033665 0.216338
v -1.918040 -0.033818 0.215576
v -1.850813 -0.033665 0.216338
vn 0.7749 0.2091 -0.5965
vn 0.9386 -0.0873 -0.3337
vn 0.8041 -0.0993 -0.5861
vn 0.8980 0.2806 -0.3389
vn 0.7086 0.4053 -0.5776
vn 0.8044 0.5002 -0.3204
vn 0.7085 0.4054 -0.5776
vn 0.5701 0.6308 -0.5265
vn 0.5378 0.2759 -0.7967
vn 0.4549 0.4845 -0.7472
vn 0.3515 0.8278 -0.4372
vn 0.3358 0.6842 -0.6473
vn 0.7576 0.5641 0.3284
vn 0.6204 0.7823 -0.0552
vn 0.5438 0.7863 0.2933
vn 0.3238 0.9460 -0.0137
vn 0.8309 0.5511 -0.0772
vn 0.6211 0.7335 -0.2760
vn 0.8778 0.3277 0.3495
vn 0.9439 0.3188 -0.0859
vn 0.9930 -0.0864 -0.0808
vn 0.8980 0.2806 -0.3388
vn 0.8045 0.5002 -0.3204
vn 0.5701 0.6308 -0.5264
vn 0.3442 0.9162 -0.2055
vn 0.0411 0.9979 0.0494
vn 0.7085 0.4053 -0.5777
vn 0.5812 0.1088 -0.8064
vn 0.7748 0.2091 -0.5966
vn 0.6131 -0.1266 -0.7798
vn 0.7157 -0.4788 -0.5085
vn 0.6061 -0.3877 -0.6945
vn 0.9386 -0.0874 -0.3337
vn 0.7913 -0.5495 -0.2682
vn 0.0699 0.9863 -0.1496
vn 0.1149 0.9019 -0.4164
vn 0.3358 0.6843 -0.6473
vn 0.1741 0.6924 -0.7003
vn 0.2774 0.4091 -0.8693
vn 0.4549 0.4844 -0.7473
vn 0.0137 0.6811 -0.7320
vn -0.0797 0.9133 -0.3993
vn 0.3446 0.1671 -0.9238
vn 0.5377 0.2759 -0.7967
vn 0.1185 0.3502 -0.9292
vn -0.0118 0.6784 -0.7346
vn 0.3835 -0.0059 -0.9235
vn 0.5812 0.1088 -0.8065
vn 0.1850 0.0857 -0.9790
vn 0.0897 0.3406 -0.9359
vn 0.6210 0.7336 -0.2760
vn 0.3442 0.9161 -0.2055
vn -0.7172 -0.5261 -0.4571
vn -0.3190 -0.7946 -0.5165
vn -0.4639 -0.8303 -0.3089
vn -0.8324 -0.5279 -0.1688
vn -0.5458 -0.8325 -0.0948
vn -0.4686 0.8416 -0.2685
vn -0.3230 0.8172 -0.4774
vn -0.7198 0.5442 -0.4310
vn -0.5430 0.8364 -0.0753
vn -0.8272 0.5366 -0.1667
vn -0.1466 0.1350 -0.9799
vn -0.1460 -0.0878 -0.9854
vn -0.5377 0.1552 -0.8287
vn -0.1346 0.4415 -0.8871
vn -0.5370 -0.1173 -0.8354
vn -0.4726 0.5101 -0.7187
vn -0.1005 0.7586 -0.6437
vn -0.1324 -0.3994 -0.9071
vn -0.4698 -0.4778 -0.7423
vn -0.0967 -0.7269 -0.6799
vn -0.3189 -0.7946 -0.5166
vn 0.3240 0.1150 -0.9391
vn 0.3245 -0.0675 -0.9435
vn 0.1471 0.1208 -0.9817
vn 0.1361 0.3944 -0.9088
vn 0.3032 0.3792 -0.8743
vn 0.1046 0.7098 -0.6966
vn 0.2382 0.6940 -0.6794
vn 0.1476 -0.0721 -0.9864
vn 0.1379 -0.3498 -0.9266
vn 0.3050 -0.3346 -0.8916
vn 0.1081 -0.6746 -0.7302
vn 0.2415 -0.6594 -0.7119
vn -0.1465 0.1350 -0.9800
vn -0.1459 -0.0878 -0.9854
vn -0.1346 0.4416 -0.8871
vn -0.1324 -0.3994 -0.9072
vn 0.1360 0.3944 -0.9088
vn 0.1045 0.7099 -0.6965
vn 0.1080 -0.6746 -0.7302
vn -0.2839 0.0762 0.9558
vn -0.2672 -0.1059 0.9578
vn -0.2089 -0.0898 0.9738
vn -0.2342 0.0917 0.9678
vn -0.1528 -0.0684 0.9859
vn -0.0890 -0.3443 0.9346
vn -0.1560 -0.3617 0.9192
vn -0.2249 -0.3749 0.8994
vn -0.0631 -0.6871 0.7238
vn 0.0115 -0.6778 0.7352
vn 0.1186 -0.6588 0.7429
vn 0.0445 -0.9152 0.4005
vn 0.1141 -0.9089 0.4012
vn -0.2913 -0.3823 0.8769
vn -0.3381 -0.3808 0.8606
vn -0.2124 -0.6973 0.6846
vn -0.1392 -0.6936 0.7068
vn -0.0964 -0.9215 0.3763
vn -0.0268 -0.9193 0.3927
vn 0.0061 -0.9959 0.0901
vn 0.0650 -0.9928 0.1003
vn 0.1228 -0.9873 -0.1006
vn 0.0750 -0.9913 -0.1086
vn 0.1963 -0.9025 -0.3834
vn 0.1696 -0.9057 -0.3885
vn 0.2646 -0.6700 -0.6936
vn 0.2672 -0.6690 -0.6936
vn 0.1232 -0.9871 0.1023
vn 0.1684 -0.9806 -0.1007
vn 0.2210 -0.8962 -0.3846
vn 0.2579 -0.6714 -0.6948
vn 0.2524 -0.6738 -0.6944
vn 0.2432 -0.8892 -0.3874
vn 0.2124 -0.9714 -0.1065
vn 0.1797 -0.9789 0.0975
vn 0.3061 -0.6375 -0.7071
vn 0.3215 -0.8531 -0.4110
vn 0.4540 -0.5316 -0.7150
vn 0.5047 -0.7311 -0.4592
vn 0.7156 -0.4789 -0.5085
vn 0.5189 -0.8330 -0.1917
vn 0.3079 -0.9418 -0.1348
vn 0.2836 -0.9558 0.0772
vn 0.5076 -0.8611 0.0302
vn 0.8134 -0.5802 -0.0414
vn 0.7913 -0.5495 -0.2681
vn 0.2268 -0.8941 0.3862
vn 0.4540 -0.8141 0.3622
vn 0.7622 -0.5677 0.3111
vn 0.8134 -0.5803 -0.0413
vn 0.3245 -0.5976 0.7332
vn 0.5864 -0.4650 0.6633
vn 0.2351 -0.2319 0.9439
vn 0.9310 -0.0917 0.3533
vn 0.8134 -0.5802 -0.0413
vn 0.5967 -0.1095 0.7949
vn 0.5309 0.2276 0.8163
vn 0.1575 0.0722 0.9849
vn 0.5308 0.2276 0.8163
vn -0.0583 -0.0258 0.9980
vn 0.4520 0.4403 0.7758
vn 0.1062 0.2741 0.9558
vn -0.1007 0.1637 0.9813
vn 0.0426 0.5240 0.8507
vn 0.4519 0.4403 0.7758
vn 0.0119 -0.3059 0.9520
vn -0.1527 -0.0684 0.9859
vn -0.1874 0.1122 0.9759
vn 0.3277 0.6603 0.6758
vn -0.1493 0.4149 0.8975
vn -0.0186 0.7718 0.6356
vn -0.1900 0.7020 0.6863
vn 0.1921 0.8191 0.5406
vn 0.0075 0.9459 0.3243
vn -0.1900 0.7021 0.6863
vn -0.1875 0.9077 0.3754
vn 0.2742 0.9264 0.2581
vn 0.4519 0.4404 0.7758
vn -0.4174 -0.3759 0.8273
vn -0.3543 -0.3807 0.8541
vn -0.4377 -0.1241 0.8905
vn -0.3630 -0.8972 0.2517
vn -0.4677 -0.6800 0.5646
vn -0.6243 -0.6363 0.4532
vn -0.6101 -0.7728 0.1747
vn -0.3393 -0.6954 0.6335
vn -0.5458 -0.8325 -0.0947
vn -0.2797 -0.9601 -0.0005
vn -0.2230 -0.9610 -0.1634
vn -0.1594 -0.9485 -0.2738
vn -0.2772 -0.6974 0.6609
vn -0.2177 -0.9213 0.3223
vn -0.1066 -0.9926 0.0575
vn -0.1527 -0.9227 0.3540
vn -0.2771 -0.6974 0.6609
vn -0.0545 -0.9967 -0.0598
vn -0.0376 -0.9966 0.0734
vn 0.0387 -0.9909 -0.1292
vn -0.3787 -0.1144 0.9184
vn -0.3788 -0.1144 0.9184
vn -0.3540 -0.3805 0.8543
vn -0.3792 0.0677 0.9228
vn -0.3638 -0.1150 0.9244
vn -0.3563 0.3369 0.8715
vn -0.3655 0.0667 0.9284
vn -0.3455 0.3350 0.8766
vn -0.2754 0.6611 0.6979
vn -0.2701 0.6582 0.7028
vn -0.1736 0.8997 0.4006
vn -0.3219 0.3323 0.8865
vn -0.3309 0.0677 0.9412
vn -0.3233 -0.1149 0.9393
vn -0.2912 0.3391 0.8945
vn 0.0337 0.9962 -0.0809
vn -0.1039 0.9896 0.0999
vn -0.0427 0.9917 0.1214
vn -0.1574 0.9036 0.3983
vn 0.0374 0.9966 -0.0735
vn -0.0428 0.9917 0.1211
vn 0.0376 0.9966 -0.0734
vn 0.1525 0.9226 -0.3544
vn 0.1524 0.9226 -0.3544
vn -0.1574 0.9037 0.3982
vn -0.0482 0.9915 0.1213
vn 0.0297 0.9968 -0.0745
vn 0.0374 0.9966 -0.0736
vn -0.1587 0.9019 0.4017
vn 0.1409 0.9233 -0.3572
vn 0.2772 0.6974 -0.6609
vn 0.2627 0.6986 -0.6656
vn -0.2806 0.6631 0.6940
vn 0.0961 0.9237 -0.3709
vn 0.2770 0.6974 -0.6610
vn -0.2808 0.6633 0.6937
vn -0.3328 0.6626 0.6710
vn -0.2142 0.9029 0.3726
vn -0.4103 0.3357 0.8479
vn -0.2795 0.9597 0.0280
vn -0.0594 0.9982 -0.0114
vn 0.0138 0.9963 -0.0853
vn -0.4342 0.0703 0.8981
vn -0.5878 0.0747 0.8056
vn -0.5592 0.3405 0.7559
vn -0.4724 0.6488 0.5966
vn -0.3329 0.6625 0.6710
vn -0.7437 0.3563 0.5656
vn -0.6274 0.6104 0.4835
vn -0.3825 0.8719 0.3059
vn -0.6144 0.7593 0.2144
vn -0.8560 0.4696 0.2160
vn -0.9685 0.1278 0.2138
vn -0.2279 0.9667 -0.1166
vn -0.4685 0.8417 -0.2685
vn -0.0450 0.9981 -0.0416
vn -0.1644 0.9599 -0.2270
vn -0.3230 0.8172 -0.4773
vn -0.0166 0.9974 -0.0707
vn -0.0549 0.9418 -0.3315
vn -0.3229 0.8172 -0.4773
vn -0.1005 0.7587 -0.6437
vn -0.7198 0.5441 -0.4310
vn -0.4727 0.5101 -0.7186
vn -0.8414 0.1607 -0.5160
vn -0.5371 -0.1173 -0.8353
vn -0.8407 -0.1396 -0.5233
vn -0.4699 -0.4778 -0.7422
vn -0.7172 -0.5260 -0.4571
vn -0.9644 0.1560 -0.2134
vn -0.8414 0.1607 -0.5159
vn -0.9644 -0.1638 -0.2074
vn -0.8407 -0.1396 -0.5232
vn -0.7172 -0.5261 -0.4570
vn -0.9653 -0.1639 0.2032
vn -0.8324 -0.5278 -0.1688
vn -0.8645 -0.4716 0.1737
vn -0.7941 -0.1398 0.5915
vn -0.3189 -0.7947 -0.5165
vn -0.7965 0.0874 0.5983
vn -0.5853 -0.1316 0.8001
vn -0.7428 -0.3850 0.5477
vn -0.5516 -0.3659 0.7496
vn -0.0399 -0.9951 -0.0900
vn 0.0191 -0.9908 -0.1339
vn -0.0115 -0.9928 -0.1190
vn -0.0502 -0.9249 -0.3769
vn -0.0967 -0.7270 -0.6798
vn 0.0621 -0.9039 -0.4232
vn 0.2415 -0.6595 -0.7119
vn 0.1377 -0.8994 -0.4148
vn 0.2805 -0.6630 -0.6941
vn 0.1571 -0.9035 -0.3988
vn 0.0427 -0.9917 -0.1217
vn 0.2738 -0.6660 -0.6939
vn 0.1566 -0.9049 -0.3958
vn 0.0425 -0.9916 -0.1218
vn 0.0469 -0.9919 -0.1178
vn -0.0298 -0.9965 0.0783
vn -0.1528 -0.9227 0.3539
vn -0.1409 -0.9219 0.3610
vn -0.2620 -0.6967 0.6677
vn 0.4249 -0.2458 -0.8712
vn 0.4540 -0.5316 -0.7151
vn 0.3061 -0.6374 -0.7071
vn 0.2690 -0.3428 -0.9001
vn 0.2524 -0.6738 -0.6945
vn 0.2270 -0.3769 -0.8980
vn 0.2244 -0.0958 -0.9698
vn 0.1881 -0.1168 -0.9752
vn 0.1536 0.0647 -0.9860
vn 0.2579 -0.6713 -0.6949
vn 0.2579 -0.3623 -0.8957
vn 0.2086 0.0862 -0.9742
vn 0.2347 -0.0965 -0.9673
vn 0.1561 0.3579 -0.9206
vn 0.2646 -0.6699 -0.6937
vn 0.2905 -0.3521 -0.8897
vn 0.2672 -0.6689 -0.6937
vn 0.3214 -0.3445 -0.8821
vn 0.2844 -0.0815 -0.9552
vn 0.2844 -0.0816 -0.9552
vn 0.3315 -0.0728 -0.9407
vn 0.2675 0.1015 -0.9582
vn 0.2087 0.0862 -0.9742
vn 0.2256 0.3704 -0.9011
vn 0.3247 0.1105 -0.9393
vn 0.2937 0.3769 -0.8784
vn 0.1382 0.6948 -0.7058
vn 0.2141 0.6972 -0.6842
vn 0.0621 0.6876 -0.7235
vn -0.1159 0.9114 -0.3949
vn -0.0470 0.9177 -0.3945
vn -0.1350 0.9849 -0.1079
vn -0.1801 0.9793 -0.0923
vn -0.1634 0.9816 0.0989
vn -0.2134 0.9705 0.1125
vn -0.1248 0.9874 -0.0977
vn -0.1700 0.9797 0.1064
vn -0.2444 0.8837 0.3992
vn -0.2229 0.8907 0.3963
vn -0.2520 0.6647 0.7033
vn -0.2587 0.6617 0.7037
vn -0.2259 0.3667 0.9025
vn -0.2572 0.3512 0.9003
vn -0.2660 0.6589 0.7036
vn -0.1998 0.8957 0.3973
vn -0.1245 0.9864 0.1072
vn -0.0671 0.9932 -0.0947
vn -0.0764 0.9905 0.1142
vn 0.0238 0.9221 -0.3862
vn -0.0482 0.9915 0.1212
vn -0.0670 0.9932 -0.0947
vn -0.0065 0.9964 -0.0851
vn 0.3394 0.3809 -0.8601
vn 0.3645 0.1144 -0.9241
vn 0.3546 0.3807 -0.8540
vn 0.3787 0.1143 -0.9184
vn 0.3791 -0.0676 -0.9229
vn 0.3659 -0.0685 -0.9281
vn 0.3562 -0.3370 -0.8715
vn 0.3452 -0.3396 -0.8749
vn 0.3214 -0.3445 -0.8820
vn 0.2805 -0.6629 -0.6942
vn 0.2738 -0.6659 -0.6939
vn 0.3560 -0.3369 -0.8716
vn 0.3240 0.1150 -0.9390
vn 0.3788 0.1144 -0.9184
vn 0.3543 0.3807 -0.8541
vn 0.1330 0.9192 -0.3706
vn 0.0574 0.9236 -0.3789
vn 0.2382 0.6941 -0.6794
vt 1.000000 0.098813
vt 1.000000 0.074863
vt 1.000000 0.065135
vt 1.000000 0.106013
vt 1.000000 0.651185
vt 1.000000 0.643987
vt 1.000000 0.684860
vt 1.000000 0.659387
vt 1.000000 0.693124
vt 1.000000 0.732351
vt 0.999146 0.750294
vt 1.000000 0.478004
vt 1.000000 0.500286
vt 1.000000 0.491717
vt 1.000000 0.528116
vt 1.000000 0.485204
vt 1.000000 0.675135
vt 1.000000 0.271996
vt 1.000000 0.264796
vt 1.000000 0.249714
vt 1.000000 0.721882
vt 0.996308 0.528119
vt 1.000000 0.090606
vt 1.000000 0.056867
vt 1.000000 0.017647
vt 1.000000 0.038294
vt 1.000000 0.028116
vt 0.996284 0.721883
vt 0.996337 0.732914
vt 0.996199 0.750000
vt 0.996334 0.768354
vt 1.000000 0.768959
vt 0.993944 0.750000
vt 0.993968 0.732643
vt 0.996279 0.780203
vt 1.000000 0.780204
vt 0.993963 0.768645
vt 0.875000 0.750000
vt 0.996298 0.969795
vt 1.000000 0.969798
vt 0.993969 0.780204
vt 0.875047 0.768653
vt 0.000000 0.124673
vt 0.001006 0.051504
vt 0.000014 0.080837
vt 0.000000 0.248199
vt 0.000000 0.221884
vt 0.000014 0.669163
vt 0.001006 0.698496
vt 0.000000 0.625327
vt 0.000000 0.528116
vt 0.000000 0.501801
vt 0.000000 0.659394
vt 0.000000 0.090606
vt 0.000000 0.621553
vt 0.000000 0.693540
vt 0.000000 0.128448
vt 0.000000 0.652140
vt 0.000000 0.747408
vt 0.000000 0.702694
vt 0.000000 0.056460
vt 0.000000 0.097860
vt 0.000000 0.002592
vt 0.000000 0.047306
vt 0.027892 0.780202
vt 0.027892 0.969798
vt 0.017218 0.780202
vt 0.017362 0.768644
vt 0.027821 0.768644
vt 0.017772 0.750000
vt 0.027618 0.750000
vt 0.017218 0.969798
vt 0.017362 0.981356
vt 0.027821 0.981356
vt 0.017772 1.000000
vt 0.027617 1.000000
vt 0.000000 0.780202
vt 0.000000 0.969798
vt 0.000232 0.768644
vt 0.000232 0.981356
vt 0.016986 0.768644
vt 0.000894 0.750000
vt 0.016324 0.750000
vt 0.016986 0.981356
vt 0.000894 1.000000
vt 0.016324 1.000000
vt 0.625000 0.469772
vt 0.625000 0.280227
vt 0.750000 0.280221
vt 0.750000 0.469779
vt 0.875000 0.280221
vt 0.874966 0.268653
vt 0.749984 0.268652
vt 0.625018 0.268655
vt 0.749892 0.250000
vt 0.874768 0.250000
vt 0.994135 0.250000
vt 0.749987 0.232632
vt 0.874971 0.232631
vt 0.499997 0.268655
vt 0.375015 0.268645
vt 0.499982 0.250000
vt 0.625119 0.250000
vt 0.499997 0.232632
vt 0.625015 0.232628
vt 0.500000 0.221861
vt 0.625000 0.221852
vt 0.625000 0.028151
vt 0.500000 0.028140
vt 0.624906 0.017383
vt 0.500094 0.017375
vt 0.625000 0.000000
vt 0.500003 0.000000
vt 0.750000 0.221859
vt 0.750000 0.028141
vt 0.749882 0.017375
vt 0.625136 0.017382
vt 0.750000 0.000000
vt 0.875000 0.000000
vt 0.750081 0.017375
vt 0.874919 0.017375
vt 0.875000 0.028141
vt 0.875000 0.221859
vt 0.994030 0.000000
vt 0.875016 0.017374
vt 0.994052 0.017359
vt 0.996253 0.000000
vt 0.996388 0.017090
vt 1.000000 0.011883
vt 0.996336 0.028119
vt 0.994059 0.028119
vt 0.994107 0.221881
vt 0.996359 0.221883
vt 1.000000 0.221881
vt 0.994114 0.232642
vt 0.996420 0.232913
vt 1.000000 0.232350
vt 0.996318 0.250000
vt 0.999173 0.250294
vt 0.996423 0.268354
vt 1.000000 0.258284
vt 1.000000 0.268959
vt 1.000000 0.280205
vt 0.996363 0.280203
vt 0.994113 0.280204
vt 1.000000 0.469798
vt 0.996346 0.469795
vt 0.994077 0.469796
vt 0.996399 0.481642
vt 0.994119 0.268645
vt 0.875000 0.469779
vt 1.000000 0.481045
vt 0.994071 0.481353
vt 0.996268 0.500000
vt 0.994054 0.500000
vt 0.999162 0.499707
vt 0.996370 0.517090
vt 0.994032 0.517359
vt 1.000000 0.517647
vt 0.009702 0.268645
vt 0.125000 0.268645
vt 0.009702 0.280203
vt 0.006120 0.232264
vt 0.006211 0.250000
vt 0.001374 0.250296
vt 0.000000 0.231999
vt 0.009702 0.250000
vt 0.005989 0.221884
vt 0.005989 0.082539
vt 0.007765 0.056669
vt 0.125000 0.250000
vt 0.009702 0.232643
vt 0.009702 0.221884
vt 0.125000 0.232643
vt 0.250001 0.250000
vt 0.009702 0.083599
vt 0.125000 0.221884
vt 0.028848 0.028116
vt 0.250000 0.280203
vt 0.125000 0.280203
vt 0.250000 0.268645
vt 0.125000 0.469798
vt 0.375000 0.280205
vt 0.250000 0.469798
vt 0.250000 0.481355
vt 0.375000 0.469796
vt 0.375017 0.481354
vt 0.375036 0.500000
vt 0.500000 0.500000
vt 0.500003 0.517374
vt 0.499998 0.481336
vt 0.500000 0.469772
vt 0.500000 0.280226
vt 0.625000 0.280226
vt 0.625022 0.481335
vt 0.028849 0.721885
vt 0.009702 0.528116
vt 0.125000 0.528116
vt 0.125000 0.517356
vt 0.125000 0.721885
vt 0.250000 0.528116
vt 0.250000 0.721885
vt 0.125000 0.732644
vt 0.250000 0.732644
vt 0.250000 0.517356
vt 0.375000 0.528125
vt 0.375000 0.721876
vt 0.374994 0.517363
vt 0.374992 0.732640
vt 0.125000 0.750000
vt 0.375000 0.750000
vt 0.250000 0.500000
vt 0.500002 0.732632
vt 0.250001 0.750000
vt 0.125000 0.500000
vt 0.009702 0.500000
vt 0.125000 0.481356
vt 0.009702 0.517356
vt 0.009702 0.481356
vt 0.005989 0.528116
vt 0.009702 0.666401
vt 0.021004 0.717363
vt 0.009702 0.469798
vt 0.005989 0.469798
vt 0.005896 0.481645
vt 0.006089 0.500000
vt 0.000000 0.481044
vt 0.001367 0.499706
vt 0.005896 0.517087
vt 0.000000 0.517646
vt 0.000000 0.492870
vt 0.000000 0.479323
vt 0.005989 0.667461
vt 0.011262 0.689133
vt 0.007765 0.693331
vt 0.015164 0.706055
vt 0.012487 0.713813
vt 0.002437 0.701465
vt 0.007855 0.724964
vt 0.000000 0.651285
vt 0.000000 0.598094
vt 0.000000 0.151906
vt 0.000000 0.098715
vt 0.000000 0.487050
vt 0.000000 0.262950
vt 0.000000 0.270677
vt 0.000000 0.257443
vt 0.000000 0.280203
vt 0.000000 0.469798
vt 0.005989 0.280203
vt 0.000000 0.269337
vt 0.006120 0.269052
vt 0.011262 0.060867
vt 0.021004 0.032637
vt 0.015164 0.043945
vt 0.012487 0.036188
vt 0.002437 0.048535
vt 0.007855 0.025036
vt 0.019555 0.022502
vt 0.008639 0.022764
vt 0.016748 0.007063
vt 0.027617 0.000158
vt 0.017772 0.005833
vt 0.028482 0.017356
vt 0.125000 0.000000
vt 0.028172 0.000000
vt 0.125000 0.017356
vt 0.250000 0.000000
vt 0.125000 0.028116
vt 0.250000 0.017356
vt 0.375000 0.000000
vt 0.374988 0.017362
vt 0.250000 0.028116
vt 0.375000 0.028125
vt 0.250000 0.221883
vt 0.375000 0.221874
vt 0.250000 0.232643
vt 0.499996 0.000000
vt 0.375029 0.017364
vt 0.499901 0.017374
vt 0.375007 0.232638
vt 0.375088 0.250000
vt 0.996358 0.981642
vt 1.000000 0.981044
vt 0.997477 1.000000
vt 0.996253 1.000000
vt 0.994030 1.000000
vt 0.994013 0.981353
vt 0.875000 1.000000
vt 0.874981 0.981341
vt 0.994007 0.969796
vt 0.875000 0.969779
vt 0.875000 0.780221
vt 0.750000 1.000000
vt 0.875104 0.981340
vt 0.749896 0.981340
vt 0.750000 0.780221
vt 0.750000 0.969779
vt 0.750033 0.768652
vt 0.625000 1.000000
vt 0.750151 0.981340
vt 0.624817 0.981335
vt 0.500003 1.000000
vt 0.625124 0.981335
vt 0.499900 0.981335
vt 0.625000 0.969772
vt 0.500000 0.969771
vt 0.625000 0.780231
vt 0.624960 0.768657
vt 0.500000 0.780231
vt 0.500002 0.768658
vt 0.625000 0.750000
vt 0.500000 0.750000
vt 0.750000 0.750000
vt 0.875039 0.732631
vt 0.750028 0.732631
vt 0.993975 0.721882
vt 0.875000 0.721859
vt 0.994025 0.528119
vt 0.875000 0.528141
vt 0.750000 0.721859
vt 0.750000 0.528141
vt 0.875034 0.517375
vt 0.750018 0.517375
vt 0.874975 0.500000
vt 0.749987 0.500000
vt 0.874963 0.481341
vt 0.749980 0.481340
vt 0.625016 0.500000
vt 0.624978 0.517382
vt 0.625000 0.528150
vt 0.625000 0.721846
vt 0.500000 0.528139
vt 0.624967 0.732624
vt 0.500000 0.721859
vt 0.374980 0.768644
vt 0.375000 0.780203
vt 0.250000 0.768644
vt 0.250000 0.780202
vt 0.250000 0.969798
vt 0.375000 0.969796
vt 0.250000 0.981356
vt 0.374936 0.981354
vt 0.375029 0.981354
vt 0.500108 0.981336
vt 0.250000 1.000000
vt 0.375000 1.000000
vt 0.499996 1.000000
vt 0.125000 1.000000
vt 0.125000 0.981356
vt 0.028172 1.000000
vt 0.027965 0.981356
vt 0.125000 0.969798
vt 0.125000 0.780202
vt 0.027965 0.768644
vt 0.125000 0.768644
vt 0.028172 0.750000
vt 0.028483 0.732644
vt 0.019555 0.727498
vt 0.027618 0.749842
vt 0.017772 0.744167
vt 0.008639 0.727236
vt 0.016748 0.742937
s 1
f 1/1/1 2/2/2 3/3/3
f 2/2/2 1/1/1 4/4/4
f 1/1/1 5/5/5 4/4/4
f 6/6/6 5/5/7 7/7/8
f 8/8/9 7/7/8 5/5/7
f 7/7/8 8/8/9 9/9/10
f 9/9/10 10/10/11 7/7/8
f 10/10/11 9/9/10 11/11/12
f 12/12/13 13/13/14 14/14/15
f 15/15/16 14/14/15 13/13/14
f 13/13/14 12/12/13 16/16/17
f 17/17/18 15/15/16 13/13/14
f 16/16/17 17/17/18 13/13/14
f 12/12/13 18/18/19 16/16/17
f 19/19/20 16/16/17 18/18/19
f 18/18/19 20/20/21 19/19/20
f 20/20/21 21/4/22 19/19/20
f 21/4/22 20/20/21 22/2/2
f 16/16/17 19/19/20 23/6/23
f 23/6/23 19/19/20 21/4/22
f 17/17/18 16/16/17 23/6/23
f 23/6/23 21/4/22 24/5/5
f 25/7/24 17/17/18 23/6/23
f 25/7/24 26/21/25 17/17/18
f 26/21/25 25/7/24 27/10/11
f 26/21/25 28/22/26 15/15/16
f 24/5/27 29/23/28 30/8/9
f 29/23/28 24/5/27 31/1/29
f 32/3/3 29/23/28 31/1/29
f 29/23/28 32/3/3 33/24/30
f 34/25/31 33/24/30 32/3/3
f 33/24/30 34/25/31 35/26/32
f 32/3/3 22/2/33 34/25/31
f 22/2/33 36/27/34 34/25/31
f 28/22/26 26/21/25 37/28/35
f 27/10/11 37/28/35 26/21/25
f 37/28/35 27/10/11 38/29/36
f 39/11/37 38/29/36 27/10/11
f 38/29/36 39/11/37 40/30/38
f 39/11/37 41/31/39 40/30/38
f 41/31/39 39/11/37 42/32/40
f 43/33/41 38/29/36 40/30/38
f 41/31/39 43/33/41 40/30/38
f 44/34/42 37/28/35 38/29/36
f 38/29/36 43/33/41 44/34/42
f 42/32/40 45/35/43 41/31/39
f 45/35/43 42/32/40 46/36/44
f 43/33/41 41/31/39 47/37/45
f 45/35/43 47/37/45 41/31/39
f 43/33/41 48/38/46 44/34/42
f 47/37/45 48/38/46 43/33/41
f 46/36/44 49/39/47 45/35/43
f 49/39/47 46/36/44 50/40/48
f 47/37/45 45/35/43 51/41/49
f 45/35/43 49/39/47 51/41/49
f 48/38/46 47/37/45 52/42/50
f 51/41/49 52/42/50 47/37/45
f 53/15/16 54/17/51 55/21/52
f 56/43/53 57/44/54 58/45/55
f 59/46/56 58/45/55 60/47/57
f 61/48/58 62/49/59 63/50/60
f 64/51/61 61/48/58 65/52/62
f 66/53/63 67/54/64 68/55/65
f 66/53/63 68/55/65 69/56/66
f 68/55/65 67/54/64 70/57/67
f 71/58/68 69/56/66 68/55/65
f 69/56/66 71/58/68 72/59/69
f 73/60/59 72/59/69 71/58/68
f 74/61/70 70/57/67 67/54/64
f 70/57/67 74/61/70 75/62/71
f 76/63/72 75/62/71 74/61/70
f 75/62/71 76/63/72 77/64/73
f 78/65/74 79/66/75 80/67/76
f 81/68/77 78/65/74 80/67/76
f 78/65/74 81/68/77 82/69/78
f 83/70/79 82/69/78 81/68/77
f 82/69/78 83/70/79 84/71/80
f 80/67/76 79/66/75 85/72/81
f 79/66/75 86/73/82 85/72/81
f 86/73/82 79/66/75 87/74/83
f 87/74/83 88/75/84 86/73/82
f 88/75/84 87/74/83 89/76/85
f 80/67/76 85/72/81 90/77/86
f 90/77/86 85/72/81 91/78/87
f 92/79/88 80/67/76 90/77/86
f 85/72/81 93/80/89 91/78/87
f 80/67/76 92/79/88 94/81/90
f 95/82/69 94/81/90 92/79/88
f 94/81/90 95/82/69 96/83/91
f 93/80/89 85/72/81 97/84/82
f 93/80/89 97/84/82 98/85/72
f 98/85/72 97/84/82 99/86/92
f 100/87/93 101/88/94 102/89/95
f 100/87/93 102/89/95 103/90/96
f 103/90/96 102/89/95 104/91/97
f 104/91/97 102/89/95 105/92/98
f 102/89/95 101/88/94 106/93/99
f 106/93/99 105/92/98 102/89/95
f 107/94/100 106/93/99 101/88/94
f 106/93/99 107/94/100 108/95/101
f 105/92/98 106/93/99 109/96/102
f 108/95/101 109/96/102 106/93/99
f 109/96/102 110/97/103 105/92/98
f 111/98/104 109/96/102 108/95/101
f 112/99/105 110/97/103 109/96/102
f 109/96/102 111/98/104 112/99/105
f 113/100/106 114/101/107 115/102/108
f 115/102/108 116/103/109 113/100/106
f 107/94/100 113/100/106 116/103/109
f 117/104/110 116/103/109 115/102/108
f 116/103/109 117/104/110 118/105/111
f 119/106/112 118/105/111 117/104/110
f 118/105/111 119/106/112 120/107/113
f 119/106/112 121/108/114 120/107/113
f 121/108/114 119/106/112 122/109/115
f 122/109/115 123/110/116 121/108/114
f 123/110/116 122/109/115 124/111/117
f 124/111/117 125/112/118 123/110/116
f 125/112/118 124/111/117 126/113/119
f 118/105/111 108/95/101 116/103/109
f 116/103/109 108/95/101 107/94/100
f 108/95/101 118/105/111 111/98/104
f 127/107/113 111/98/104 118/105/111
f 111/98/104 127/107/113 128/114/120
f 129/108/114 128/114/120 127/107/113
f 128/114/120 129/108/114 130/115/121
f 129/108/114 131/116/122 130/115/121
f 131/116/122 129/108/114 132/117/116
f 132/117/116 133/118/123 131/116/122
f 133/118/123 132/117/116 125/112/118
f 134/119/124 135/120/122 133/118/123
f 135/120/122 134/119/124 136/121/125
f 136/121/125 137/115/121 135/120/122
f 137/115/121 136/121/125 138/122/126
f 139/123/127 137/115/121 138/122/126
f 137/115/121 139/123/127 140/114/120
f 112/99/105 140/114/120 139/123/127
f 140/114/120 112/99/105 111/98/104
f 134/119/124 141/124/128 142/125/125
f 142/125/125 141/124/128 143/126/129
f 141/124/128 144/127/130 143/126/129
f 143/126/129 145/122/126 142/125/125
f 143/126/129 144/127/130 146/128/131
f 144/127/130 147/129/32 146/128/131
f 148/25/132 146/128/131 147/129/32
f 149/27/34 146/128/131 148/25/132
f 146/128/131 149/27/34 150/130/133
f 146/128/131 151/131/134 143/126/129
f 145/122/126 143/126/129 151/131/134
f 151/131/134 146/128/131 150/130/133
f 152/132/135 145/122/126 151/131/134
f 145/122/126 152/132/135 153/123/127
f 150/130/133 154/133/136 151/131/134
f 152/132/135 151/131/134 154/133/136
f 150/130/133 155/134/137 154/133/136
f 155/134/137 150/130/133 156/27/138
f 156/27/138 20/20/21 155/134/137
f 20/20/21 156/27/138 22/2/2
f 157/135/139 153/123/127 152/132/135
f 153/123/127 157/135/139 112/99/105
f 152/132/135 154/133/136 158/136/140
f 157/135/139 152/132/135 158/136/140
f 154/133/136 159/137/141 158/136/140
f 159/137/141 154/133/136 160/134/142
f 157/135/139 158/136/140 161/138/143
f 110/97/103 112/99/105 157/135/139
f 110/97/103 157/135/139 161/138/143
f 158/136/140 162/139/144 161/138/143
f 162/139/144 158/136/140 159/137/141
f 162/139/144 163/140/145 161/138/143
f 163/140/145 110/97/103 161/138/143
f 164/141/146 162/139/144 159/137/141
f 165/134/147 164/141/146 159/137/141
f 164/141/146 165/134/147 20/20/21
f 162/139/144 164/141/146 166/142/148
f 163/140/145 162/139/144 166/142/148
f 164/141/146 167/143/149 166/142/148
f 167/143/149 164/141/146 18/18/19
f 20/20/21 18/18/19 164/141/146
f 168/144/150 163/140/145 166/142/148
f 169/143/151 168/144/150 166/142/148
f 170/145/152 163/140/145 168/144/150
f 18/18/19 171/146/153 169/143/151
f 172/147/154 169/143/151 171/146/153
f 169/143/151 172/147/154 168/144/150
f 171/146/153 18/18/19 12/12/13
f 173/148/155 168/144/150 172/147/154
f 168/144/150 173/148/155 170/145/152
f 173/148/155 172/147/154 174/149/156
f 175/146/157 174/149/156 172/147/154
f 170/145/152 176/150/158 163/140/145
f 110/97/103 163/140/145 176/150/158
f 170/145/152 177/91/159 176/150/158
f 105/92/98 176/150/158 177/91/159
f 176/150/158 105/92/98 110/97/103
f 177/91/159 170/145/152 178/151/160
f 178/151/160 170/145/152 173/148/155
f 174/149/156 175/146/157 179/152/161
f 180/153/162 178/151/160 173/148/155
f 180/153/162 173/148/155 174/149/156
f 180/153/162 174/149/156 181/154/163
f 182/155/164 180/153/162 181/154/163
f 174/149/156 183/156/165 181/154/163
f 174/149/156 179/152/161 183/156/165
f 184/157/166 181/154/163 183/156/165
f 184/157/166 185/155/167 181/154/163
f 185/155/167 184/157/166 186/158/168
f 183/156/165 187/159/169 184/157/166
f 179/152/161 187/159/169 183/156/165
f 187/159/169 28/22/26 184/157/166
f 28/22/26 186/158/168 184/157/166
f 187/159/169 179/152/161 14/14/15
f 179/152/161 12/12/13 14/14/15
f 12/12/13 179/152/161 188/146/170
f 14/14/15 15/15/16 187/159/169
f 28/22/26 187/159/169 15/15/16
f 189/160/171 190/161/172 191/162/173
f 192/163/174 193/164/175 194/165/176
f 195/166/177 192/163/174 194/165/176
f 189/160/171 193/164/175 196/167/178
f 197/47/179 198/168/180 195/166/177
f 198/168/180 192/163/174 195/166/177
f 197/47/179 199/169/181 198/168/180
f 199/169/181 197/47/179 200/45/55
f 200/45/55 201/170/182 199/169/181
f 196/167/178 202/171/183 189/160/171
f 190/161/172 189/160/171 202/171/183
f 203/172/184 196/167/178 193/164/175
f 192/163/174 203/172/184 193/164/175
f 203/172/184 202/171/183 196/167/178
f 204/173/185 203/172/184 192/163/174
f 198/168/180 204/173/185 192/163/174
f 202/171/183 203/172/184 205/174/186
f 204/173/185 205/174/186 203/172/184
f 190/161/172 202/171/183 206/175/187
f 205/174/186 206/175/187 202/171/183
f 198/168/180 207/176/188 204/173/185
f 207/176/188 198/168/180 199/169/181
f 205/174/186 204/173/185 208/177/189
f 209/178/190 204/173/185 207/176/188
f 209/178/190 208/177/189 204/173/185
f 210/179/191 211/180/192 212/181/193
f 213/182/194 211/180/192 210/179/191
f 214/183/195 212/181/193 114/101/107
f 212/181/193 214/183/195 210/179/191
f 210/179/191 215/184/194 213/182/194
f 216/185/196 213/182/194 215/184/194
f 217/186/197 210/179/191 214/183/195
f 210/179/191 217/186/197 215/184/194
f 218/187/198 215/184/194 217/186/197
f 215/184/194 218/187/198 216/185/196
f 219/188/199 216/185/196 218/187/198
f 218/187/198 220/189/200 219/188/199
f 221/190/201 219/188/199 220/189/200
f 220/189/200 218/187/198 222/191/202
f 223/186/197 222/191/202 218/187/198
f 214/183/195 224/192/203 223/186/197
f 222/191/202 223/186/197 224/192/203
f 224/192/203 214/183/195 225/193/204
f 114/101/107 225/193/204 214/183/195
f 224/192/203 225/193/204 226/194/94
f 224/192/203 226/194/94 227/87/93
f 228/195/205 224/192/203 227/87/93
f 224/192/203 228/195/205 222/191/202
f 226/194/94 225/193/204 107/94/100
f 225/193/204 114/101/107 113/100/106
f 113/100/106 107/94/100 225/193/204
f 229/196/206 230/197/207 231/198/208
f 230/197/207 232/199/209 231/198/208
f 229/196/206 231/198/208 233/200/210
f 234/201/211 233/200/210 231/198/208
f 233/200/210 234/201/211 235/202/212
f 235/202/212 236/203/213 233/200/210
f 236/203/213 229/196/206 233/200/210
f 236/203/213 235/202/212 237/204/214
f 231/198/208 238/205/215 234/201/211
f 238/205/215 231/198/208 232/199/209
f 238/205/215 239/206/216 234/201/211
f 240/207/217 234/201/211 239/206/216
f 234/201/211 240/207/217 241/202/218
f 239/206/216 238/205/215 242/208/219
f 243/209/220 241/202/218 240/207/217
f 241/202/218 243/209/220 237/204/214
f 237/204/214 244/210/221 236/203/213
f 245/211/222 237/204/214 243/209/220
f 246/212/223 242/208/219 238/205/215
f 232/199/209 246/212/223 238/205/215
f 247/213/224 245/211/222 243/209/220
f 248/207/217 247/213/224 243/209/220
f 237/204/214 245/211/222 249/214/225
f 244/210/221 237/204/214 249/214/225
f 246/212/223 232/199/209 250/215/226
f 232/199/209 251/216/227 250/215/226
f 252/217/196 246/212/223 250/215/226
f 250/215/226 251/216/227 252/217/196
f 251/216/227 232/199/209 253/218/228
f 232/199/209 230/197/207 253/218/228
f 254/219/229 252/217/196 251/216/227
f 255/220/230 253/218/228 230/197/207
f 246/212/223 252/217/196 216/185/196
f 230/197/207 256/221/231 255/220/230
f 229/196/206 256/221/231 230/197/207
f 256/221/231 229/196/206 257/222/232
f 216/185/196 219/188/199 246/212/223
f 242/208/219 246/212/223 219/188/199
f 213/182/194 216/185/196 252/217/196
f 219/188/199 221/190/201 242/208/219
f 252/217/196 258/223/233 213/182/194
f 258/223/233 252/217/196 254/219/229
f 213/182/194 258/223/233 259/180/192
f 191/162/173 259/180/192 258/223/233
f 254/219/229 260/224/234 258/223/233
f 260/224/234 191/162/173 258/223/233
f 259/180/192 191/162/173 190/161/172
f 260/224/234 254/219/229 261/225/235
f 254/219/229 262/226/236 261/225/235
f 262/226/236 254/219/229 263/216/237
f 264/227/238 260/224/234 261/225/235
f 265/228/239 261/225/235 262/226/236
f 261/225/235 265/228/239 264/227/238
f 262/226/236 266/216/227 253/218/228
f 262/226/236 253/218/228 267/229/240
f 265/228/239 262/226/236 267/229/240
f 253/218/228 255/220/230 267/229/240
f 267/229/240 268/230/241 265/228/239
f 268/230/241 267/229/240 255/220/230
f 269/231/242 264/227/238 265/228/239
f 265/228/239 268/230/241 269/231/242
f 255/220/230 270/51/61 268/230/241
f 264/227/238 269/231/242 271/232/243
f 268/230/241 272/52/62 269/231/242
f 268/230/241 270/51/61 272/52/62
f 272/52/62 271/232/243 269/231/242
f 255/220/230 273/233/244 270/51/61
f 255/220/230 256/221/231 273/233/244
f 270/51/61 273/233/244 274/48/245
f 275/234/246 273/233/244 256/221/231
f 257/222/232 275/234/246 256/221/231
f 276/235/247 274/48/245 273/233/244
f 273/233/244 275/234/246 276/235/247
f 274/48/245 276/235/247 277/49/248
f 278/236/249 276/235/247 275/234/246
f 275/234/246 257/222/232 278/236/249
f 276/235/247 278/236/249 279/237/250
f 257/222/232 279/237/250 278/236/249
f 279/237/250 280/238/251 276/235/247
f 280/238/251 279/237/250 281/239/252
f 282/50/253 272/52/62 274/48/58
f 283/240/254 282/50/253 277/49/248
f 282/50/253 283/240/254 284/241/255
f 285/55/65 284/241/255 283/240/254
f 285/55/65 286/57/256 284/241/255
f 284/241/255 286/57/256 287/242/257
f 288/243/258 287/242/257 286/57/256
f 287/242/257 288/243/258 289/43/259
f 290/44/54 289/43/259 288/243/258
f 272/52/62 282/50/253 291/244/260
f 292/241/261 291/244/260 282/50/253
f 271/232/243 272/52/62 291/244/260
f 291/244/260 292/241/261 293/245/262
f 292/241/261 294/242/263 293/245/262
f 289/43/264 293/245/262 294/242/263
f 295/246/265 291/244/260 293/245/262
f 291/244/260 295/246/265 271/232/243
f 293/245/262 289/43/264 296/46/266
f 200/45/55 296/46/266 289/43/264
f 295/246/265 293/245/262 297/247/267
f 293/245/262 296/46/266 297/247/267
f 298/248/268 271/232/243 295/246/265
f 201/170/182 200/45/55 290/44/269
f 271/232/243 298/248/268 299/249/270
f 271/232/243 299/249/270 264/227/238
f 260/224/234 264/227/238 299/249/270
f 300/250/271 299/249/270 298/248/268
f 299/249/270 300/250/271 260/224/234
f 298/248/268 295/246/265 301/251/272
f 295/246/265 297/247/267 301/251/272
f 302/248/268 301/251/272 300/250/271
f 191/162/173 260/224/234 300/250/271
f 300/250/271 301/251/272 303/252/273
f 303/252/273 191/162/173 300/250/271
f 301/251/272 297/247/267 194/165/176
f 301/251/272 194/165/176 303/252/273
f 297/247/267 195/166/177 194/165/176
f 297/247/267 296/46/266 195/166/177
f 296/46/266 197/47/179 195/166/177
f 191/162/173 303/252/273 189/160/171
f 303/252/273 194/165/176 193/164/175
f 303/252/273 193/164/175 189/160/171
f 199/169/181 304/253/274 207/176/188
f 304/253/274 199/169/181 201/170/182
f 305/254/275 207/176/188 304/253/274
f 207/176/188 305/254/275 209/178/190
f 201/170/182 306/255/276 304/253/274
f 305/254/275 304/253/274 306/255/276
f 306/255/276 201/170/182 307/256/277
f 307/256/277 305/254/275 306/255/276
f 308/257/269 307/256/277 201/170/182
f 307/256/277 308/257/269 309/258/278
f 305/254/275 307/256/277 310/259/279
f 311/260/278 310/259/279 307/256/277
f 310/259/279 311/260/278 312/261/92
f 313/262/280 310/259/279 314/263/84
f 310/259/279 313/262/280 315/264/281
f 315/264/281 305/254/275 310/259/279
f 305/254/275 315/264/281 209/178/190
f 316/265/282 315/264/281 317/266/280
f 315/264/281 316/265/282 318/267/283
f 318/267/283 209/178/190 315/264/281
f 319/268/282 318/267/283 316/265/282
f 209/178/190 318/267/283 320/269/284
f 318/267/283 319/268/282 321/270/283
f 321/270/283 320/269/284 318/267/283
f 322/271/285 321/270/283 319/268/282
f 208/177/189 209/178/190 320/269/284
f 321/270/283 322/271/285 323/272/286
f 323/272/286 324/273/287 321/270/283
f 320/269/284 321/270/283 324/273/287
f 324/273/287 323/272/286 325/274/288
f 326/275/189 320/269/284 324/273/287
f 325/274/288 326/275/189 324/273/287
f 320/269/284 326/275/189 208/177/189
f 326/275/189 325/274/288 327/276/289
f 328/277/290 208/177/189 326/275/189
f 327/276/289 328/277/290 326/275/189
f 208/177/189 328/277/290 205/174/186
f 206/175/187 205/174/186 328/277/290
f 329/278/119 330/279/286 322/271/285
f 330/279/286 329/278/119 331/280/117
f 331/280/117 332/274/288 330/279/286
f 332/274/288 331/280/117 333/109/115
f 333/109/115 327/276/289 332/274/288
f 327/276/289 333/109/115 334/106/112
f 117/104/110 327/276/289 334/106/112
f 328/277/290 327/276/289 335/281/291
f 335/281/291 206/175/187 328/277/290
f 327/276/289 117/104/110 335/281/291
f 206/175/187 335/281/291 336/282/292
f 206/175/187 336/282/292 212/181/193
f 212/181/193 190/161/172 206/175/187
f 335/281/291 115/102/108 336/282/292
f 115/102/108 335/281/291 117/104/110
f 211/180/192 190/161/172 212/181/193
f 336/282/292 115/102/108 114/101/107
f 114/101/107 212/181/193 336/282/292
f 50/40/48 337/283/293 49/39/47
f 337/283/293 50/40/48 338/284/30
f 337/283/293 338/284/30 339/285/32
f 340/286/294 337/283/293 339/285/32
f 341/287/295 337/283/293 340/286/294
f 337/283/293 341/287/295 342/288/296
f 342/288/296 49/39/47 337/283/293
f 343/289/297 342/288/296 341/287/295
f 344/290/298 342/288/296 343/289/297
f 49/39/47 342/288/296 345/291/299
f 344/290/298 345/291/299 342/288/296
f 51/41/49 49/39/47 345/291/299
f 345/291/299 344/290/298 346/292/300
f 347/293/301 345/291/299 346/292/300
f 345/291/299 347/293/301 51/41/49
f 52/42/50 51/41/49 347/293/301
f 348/294/302 349/295/298 343/289/297
f 349/295/298 348/294/302 350/296/303
f 350/296/303 351/292/300 349/295/298
f 351/292/300 352/297/304 347/293/301
f 351/292/300 350/296/303 353/298/305
f 352/297/304 351/292/300 353/298/305
f 354/299/306 347/293/301 352/297/304
f 347/293/301 354/299/306 52/42/50
f 355/300/307 356/301/303 348/294/302
f 356/301/303 355/300/307 357/302/308
f 357/302/308 353/298/305 356/301/303
f 358/303/309 359/304/308 355/300/307
f 359/304/308 358/303/309 360/305/310
f 360/305/310 361/306/311 359/304/308
f 353/298/305 357/302/308 361/306/312
f 361/306/311 360/305/310 362/307/313
f 363/308/314 353/298/305 361/306/312
f 353/298/305 363/308/314 364/297/315
f 365/309/316 364/297/315 363/308/314
f 364/297/315 365/309/316 354/299/306
f 366/310/317 361/306/311 362/307/313
f 361/306/311 366/310/317 367/308/314
f 367/308/314 368/311/318 365/309/316
f 368/311/318 367/308/314 366/310/317
f 369/312/319 354/299/306 365/309/316
f 370/313/320 365/309/316 368/311/318
f 365/309/316 370/313/320 369/312/319
f 368/311/318 245/211/222 370/313/320
f 354/299/306 369/312/319 371/314/321
f 371/314/321 52/42/50 354/299/306
f 52/42/50 371/314/321 48/38/46
f 48/38/46 371/314/321 372/315/322
f 44/34/42 48/38/46 372/315/322
f 371/314/321 369/312/319 373/316/323
f 372/315/322 371/314/321 373/316/323
f 44/34/42 372/315/322 374/317/324
f 37/28/35 44/34/42 374/317/324
f 374/317/324 28/22/26 37/28/35
f 374/317/324 372/315/322 375/318/325
f 372/315/322 373/316/323 375/318/325
f 28/22/26 374/317/324 376/319/326
f 374/317/324 375/318/325 376/319/326
f 186/158/168 28/22/26 376/319/326
f 376/319/326 375/318/325 377/320/327
f 375/318/325 373/316/323 378/321/328
f 378/321/328 379/320/327 375/318/325
f 379/320/327 378/321/328 380/322/329
f 381/323/330 376/319/326 377/320/327
f 376/319/326 381/323/330 186/158/168
f 382/324/331 379/320/327 380/322/329
f 379/320/327 382/324/331 381/323/330
f 383/325/332 186/158/168 381/323/330
f 186/158/168 383/325/332 182/155/164
f 384/326/333 381/323/330 382/324/331
f 381/323/330 384/326/333 383/325/332
f 385/327/334 182/155/164 383/325/332
f 182/155/164 385/327/334 180/153/162
f 178/151/160 180/153/162 385/327/334
f 383/325/332 386/328/335 385/327/334
f 386/328/335 383/325/332 384/326/333
f 385/327/334 103/90/96 178/151/160
f 103/90/96 385/327/334 386/328/335
f 103/90/96 104/91/97 178/151/160
f 384/326/333 228/195/205 386/328/335
f 386/328/335 100/87/93 103/90/96
f 100/87/93 386/328/335 228/195/205
f 228/195/205 384/326/333 387/329/336
f 382/324/331 387/329/336 384/326/333
f 387/329/336 222/191/202 228/195/205
f 222/191/202 387/329/336 220/189/200
f 387/329/336 382/324/331 388/330/337
f 388/330/337 220/189/200 387/329/336
f 389/322/329 388/330/337 382/324/331
f 220/189/200 388/330/337 221/190/201
f 388/330/337 389/322/329 390/331/338
f 390/331/338 221/190/201 388/330/337
f 389/322/329 391/332/339 390/331/338
f 391/332/339 389/322/329 392/321/328
f 221/190/201 390/331/338 393/333/340
f 392/321/328 394/334/341 391/332/339
f 393/333/340 242/208/219 221/190/201
f 373/316/323 394/334/341 392/321/328
f 373/316/323 369/312/319 394/334/341
f 242/208/219 393/333/340 395/206/342
f 369/312/319 370/313/320 394/334/341
f 396/332/343 393/333/340 390/331/338
f 397/335/344 395/206/342 393/333/340
f 393/333/340 396/332/343 397/335/344
f 395/206/342 397/335/344 248/207/217
f 247/213/224 248/207/217 397/335/344
f 396/332/343 247/213/224 397/335/344
f 394/334/341 247/213/224 396/332/343
f 394/334/341 370/313/320 247/213/224
f 245/211/222 247/213/224 370/313/320
f 245/211/222 368/311/318 398/336/345
f 398/336/345 249/214/225 245/211/222
f 368/311/318 399/337/346 398/336/345
f 399/337/346 368/311/318 366/310/317
f 249/214/225 398/336/345 400/338/347
f 400/338/347 244/210/221 249/214/225
f 401/339/348 398/336/345 399/337/346
f 398/336/345 401/339/348 400/338/347
f 399/337/346 402/340/349 401/339/348
f 366/310/317 403/341/350 399/337/346
f 402/340/349 399/337/346 403/341/350
f 403/341/350 366/310/317 362/307/313
f 403/341/350 404/342/351 402/340/349
f 362/307/313 405/343/352 403/341/350
f 404/342/351 403/341/350 406/344/352
f 405/343/352 362/307/313 407/345/353
f 406/344/352 408/346/354 404/342/351
f 407/345/353 409/347/355 405/343/352
f 408/346/354 406/344/352 409/347/355
f 409/347/355 407/345/353 410/348/309
f 411/349/354 412/342/356 408/346/354
f 412/342/356 411/349/354 413/350/356
f 414/351/85 413/350/356 411/349/354
f 413/350/356 415/340/349 412/342/356
f 413/350/356 414/351/85 416/352/83
f 416/352/83 417/353/349 413/350/356
f 415/340/349 413/350/356 417/353/349
f 417/353/349 416/352/83 418/66/75
f 78/65/357 417/353/349 418/66/75
f 419/354/358 415/340/349 417/353/349
f 417/353/349 78/65/357 419/354/358
f 415/340/349 419/354/358 401/339/348
f 420/355/78 419/354/358 78/65/357
f 421/356/359 401/339/348 419/354/358
f 419/354/358 420/355/78 421/356/359
f 401/339/348 421/356/359 400/338/347
f 422/357/80 421/356/359 420/355/78
f 244/210/221 400/338/347 421/356/359
f 421/356/359 422/357/80 244/210/221
f 423/358/360 244/210/221 422/357/80
f 244/210/221 423/358/360 236/203/213
f 229/196/206 236/203/213 423/358/360
f 423/358/360 257/222/232 229/196/206
f 257/222/232 423/358/360 424/359/361
f 425/360/362 424/359/361 423/358/360
f 424/359/361 425/360/362 426/361/91
f 424/359/361 279/237/250 257/222/232
f 424/359/361 427/362/252 279/237/250
f 428/363/91 427/362/252 424/359/361
